{"glyphs":{"0":{"ha":931,"x_min":63,"x_max":868,"o":"m 465 -21 q 261 39 353 -21 q 116 213 169 99 q 63 486 63 328 q 116 759 63 644 q 261 933 169 874 q 465 993 353 993 q 669 933 578 993 q 815 759 761 874 q 868 486 868 644 q 815 213 868 328 q 669 39 761 99 q 465 -21 578 -21 m 465 7 q 625 486 625 7 q 465 965 625 965 q 306 486 306 965 q 465 7 306 7 z "},"1":{"ha":576,"x_min":21,"x_max":521,"o":"m 97 0 l 97 21 l 194 49 l 194 811 l 49 708 l 21 743 l 274 972 l 424 972 l 424 49 l 521 21 l 521 0 l 97 0 z "},"2":{"ha":799,"x_min":42,"x_max":729,"o":"m 42 63 q 74 212 42 144 q 154 329 107 279 q 278 447 201 379 q 389 552 349 510 q 457 648 429 594 q 485 764 485 701 q 440 907 485 856 q 325 958 396 958 q 243 947 285 958 l 214 938 l 214 715 l 196 711 q 158 708 174 708 q 83 737 111 708 q 54 813 54 765 q 88 899 54 857 q 190 967 122 940 q 353 993 257 993 q 631 918 540 993 q 721 708 721 843 q 677 563 721 624 q 570 461 633 501 q 401 369 507 421 q 258 294 313 326 q 156 215 203 261 q 90 111 110 169 l 604 111 q 651 236 614 186 q 688 278 667 260 l 729 278 l 729 0 l 42 0 l 42 63 z "},"3":{"ha":813,"x_min":35,"x_max":743,"o":"m 333 -21 q 170 6 238 -21 q 69 74 103 32 q 35 160 35 115 q 63 235 35 207 q 139 264 92 264 q 161 262 150 264 q 176 260 172 260 l 194 257 l 194 35 q 224 24 196 35 q 306 14 260 14 q 455 73 403 14 q 507 250 507 132 q 456 432 507 371 q 319 493 406 493 l 250 493 l 250 528 l 319 528 q 424 583 382 528 q 465 743 465 639 q 422 903 465 847 q 313 958 379 958 q 243 947 276 958 q 215 938 239 946 l 215 715 l 197 711 q 160 708 175 708 q 84 737 113 708 q 56 813 56 765 q 89 897 56 856 q 187 966 122 939 q 340 993 251 993 q 538 959 457 993 q 660 868 619 925 q 701 743 701 811 q 661 617 701 664 q 556 543 621 571 q 410 514 492 518 l 410 507 q 576 475 501 503 q 743 250 743 408 q 642 53 743 128 q 333 -21 542 -21 z "},"4":{"ha":833,"x_min":0,"x_max":799,"o":"m 326 0 l 326 21 l 424 49 l 424 257 l 28 257 l 0 299 l 521 986 l 653 986 l 653 319 l 799 319 l 799 257 l 653 257 l 653 49 l 750 21 l 750 0 l 326 0 m 76 319 l 424 319 l 424 778 l 76 319 z "},"5":{"ha":792,"x_min":49,"x_max":736,"o":"m 347 -21 q 184 6 251 -21 q 83 74 117 32 q 49 160 49 115 q 77 235 49 207 q 153 264 106 264 q 175 262 164 264 q 190 260 186 260 l 208 257 l 208 35 q 238 24 210 35 q 319 14 274 14 q 451 83 403 14 q 500 299 500 151 q 450 510 500 444 q 306 576 400 576 q 238 564 269 576 q 169 531 206 551 q 111 486 140 513 l 83 507 l 139 972 l 549 972 q 596 1097 558 1047 q 632 1139 611 1121 l 674 1139 l 674 868 l 169 868 l 132 549 q 189 579 151 563 q 333 611 267 611 q 636 528 536 611 q 736 299 736 446 q 638 64 736 149 q 347 -21 539 -21 z "},"6":{"ha":861,"x_min":69,"x_max":799,"o":"m 444 -21 q 169 104 269 -21 q 69 486 69 229 q 178 865 69 736 q 479 993 288 993 q 623 966 561 993 q 717 897 685 939 q 750 813 750 856 q 722 737 750 765 q 646 708 693 708 q 607 711 626 708 l 590 715 l 590 938 l 564 947 q 507 958 533 958 q 395 922 439 958 q 328 789 351 886 q 306 514 306 692 q 343 556 321 538 q 465 597 396 597 q 642 559 567 597 q 758 453 718 521 q 799 299 799 385 q 706 65 799 150 q 444 -21 614 -21 m 444 7 q 499 35 472 7 q 544 125 526 63 q 563 285 563 188 q 544 444 563 382 q 497 535 525 507 q 438 563 468 563 q 347 507 381 563 q 313 333 313 451 q 351 82 313 157 q 444 7 389 7 z "},"7":{"ha":736,"x_min":42,"x_max":701,"o":"m 201 0 q 240 244 201 138 q 332 426 278 350 q 474 597 386 501 q 594 740 550 681 q 660 868 638 799 l 167 868 q 119 743 157 793 q 83 701 104 719 l 42 701 l 42 972 l 701 972 l 701 910 q 677 765 701 832 q 601 593 653 699 q 520 418 551 494 q 467 235 489 342 q 444 0 444 129 l 201 0 z "},"8":{"ha":854,"x_min":56,"x_max":813,"o":"m 410 -21 q 145 49 235 -21 q 56 229 56 118 q 122 377 56 306 q 285 479 189 449 q 145 592 193 531 q 97 743 97 654 q 187 924 97 854 q 451 993 276 993 q 605 961 539 993 q 707 878 671 929 q 743 771 743 826 q 687 644 743 706 q 556 563 631 583 q 747 431 682 507 q 813 243 813 354 q 768 111 813 171 q 633 15 724 51 q 410 -21 543 -21 m 514 590 q 599 658 567 614 q 632 771 632 703 q 608 864 632 821 q 545 933 583 907 q 465 958 507 958 q 366 912 406 958 q 326 785 326 865 q 514 590 326 674 m 396 14 q 534 63 485 14 q 583 201 583 113 q 517 336 583 268 q 340 451 450 404 q 218 369 263 424 q 174 229 174 314 q 203 122 174 171 q 284 43 233 72 q 396 14 335 14 z "},"9":{"ha":861,"x_min":63,"x_max":792,"o":"m 382 -21 q 238 6 300 -21 q 144 75 176 33 q 111 160 111 117 q 140 235 111 207 q 215 264 168 264 q 238 262 226 264 q 253 260 249 260 l 271 257 l 271 35 l 297 24 q 354 14 322 14 q 465 50 422 14 q 532 183 508 86 q 556 458 556 281 q 517 417 543 438 q 396 375 464 375 q 219 413 294 375 q 103 519 143 451 q 63 674 63 588 q 155 908 63 822 q 417 993 247 993 q 692 868 592 993 q 792 486 792 743 q 683 108 792 236 q 382 -21 574 -21 m 424 410 q 515 465 481 410 q 549 639 549 521 q 510 890 549 815 q 417 965 472 965 q 362 938 389 965 q 317 847 335 910 q 299 688 299 785 q 317 528 299 590 q 365 438 336 465 q 424 410 393 410 z "},"\r":{"ha":389,"x_min":0,"x_max":0,"o":""}," ":{"ha":389,"x_min":0,"x_max":0,"o":""},"A":{"ha":944,"x_min":-28,"x_max":972,"o":"m -28 21 l 83 63 l 465 986 l 507 986 l 903 42 l 972 21 l 972 0 l 806 0 q 688 33 733 0 q 619 118 642 65 l 549 285 l 217 285 l 125 63 l 229 21 l 229 0 l -28 0 l -28 21 m 231 319 l 535 319 l 382 685 l 231 319 z "},"Á":{"ha":944,"x_min":-28,"x_max":972,"o":"m -28 21 l 83 63 l 465 986 l 507 986 l 903 42 l 972 21 l 972 0 l 806 0 q 688 33 733 0 q 619 118 642 65 l 549 285 l 217 285 l 125 63 l 229 21 l 229 0 l -28 0 l -28 21 m 231 319 l 535 319 l 382 685 l 231 319 m 447 1042 l 503 1250 l 683 1250 l 496 1042 l 447 1042 z "},"Ă":{"ha":944,"x_min":-28,"x_max":972,"o":"m -28 21 l 83 63 l 465 986 l 507 986 l 903 42 l 972 21 l 972 0 l 806 0 q 688 33 733 0 q 619 118 642 65 l 549 285 l 217 285 l 125 63 l 229 21 l 229 0 l -28 0 l -28 21 m 231 319 l 535 319 l 382 685 l 231 319 m 486 1042 q 328 1075 379 1042 q 278 1160 278 1108 q 301 1219 278 1196 q 361 1243 325 1243 q 393 1239 364 1243 l 410 1236 l 410 1083 q 430 1076 411 1083 q 486 1069 449 1069 q 542 1076 524 1069 q 563 1083 561 1083 l 563 1236 l 579 1239 q 611 1243 608 1243 q 671 1219 647 1243 q 694 1160 694 1196 q 644 1075 694 1108 q 486 1042 593 1042 z "},"Ắ":{"ha":944,"x_min":-28,"x_max":972,"o":"m -28 21 l 83 63 l 465 986 l 507 986 l 903 42 l 972 21 l 972 0 l 806 0 q 688 33 733 0 q 619 118 642 65 l 549 285 l 217 285 l 125 63 l 229 21 l 229 0 l -28 0 l -28 21 m 231 319 l 535 319 l 382 685 l 231 319 m 486 1042 q 328 1075 379 1042 q 278 1160 278 1108 q 301 1219 278 1196 q 361 1243 325 1243 q 393 1239 364 1243 l 410 1236 l 410 1083 q 430 1076 411 1083 q 486 1069 449 1069 q 542 1076 524 1069 q 563 1083 561 1083 l 563 1236 l 579 1239 q 611 1243 608 1243 q 671 1219 647 1243 q 694 1160 694 1196 q 644 1075 694 1108 q 486 1042 593 1042 m 456 1250 l 511 1458 l 692 1458 l 504 1250 l 456 1250 z "},"Ặ":{"ha":944,"x_min":-28,"x_max":972,"o":"m -28 21 l 83 63 l 465 986 l 507 986 l 903 42 l 972 21 l 972 0 l 806 0 q 688 33 733 0 q 619 118 642 65 l 549 285 l 217 285 l 125 63 l 229 21 l 229 0 l -28 0 l -28 21 m 231 319 l 535 319 l 382 685 l 231 319 m 472 -214 q 427 -195 446 -214 q 408 -150 408 -176 q 427 -104 408 -124 q 472 -85 446 -85 q 518 -104 499 -85 q 538 -150 538 -124 q 518 -195 538 -176 q 472 -214 499 -214 m 486 1042 q 328 1075 379 1042 q 278 1160 278 1108 q 301 1219 278 1196 q 361 1243 325 1243 q 393 1239 364 1243 l 410 1236 l 410 1083 q 430 1076 411 1083 q 486 1069 449 1069 q 542 1076 524 1069 q 563 1083 561 1083 l 563 1236 l 579 1239 q 611 1243 608 1243 q 671 1219 647 1243 q 694 1160 694 1196 q 644 1075 694 1108 q 486 1042 593 1042 z "},"Ằ":{"ha":944,"x_min":-28,"x_max":972,"o":"m -28 21 l 83 63 l 465 986 l 507 986 l 903 42 l 972 21 l 972 0 l 806 0 q 688 33 733 0 q 619 118 642 65 l 549 285 l 217 285 l 125 63 l 229 21 l 229 0 l -28 0 l -28 21 m 231 319 l 535 319 l 382 685 l 231 319 m 486 1042 q 328 1075 379 1042 q 278 1160 278 1108 q 301 1219 278 1196 q 361 1243 325 1243 q 393 1239 364 1243 l 410 1236 l 410 1083 q 430 1076 411 1083 q 486 1069 449 1069 q 542 1076 524 1069 q 563 1083 561 1083 l 563 1236 l 579 1239 q 611 1243 608 1243 q 671 1219 647 1243 q 694 1160 694 1196 q 644 1075 694 1108 q 486 1042 593 1042 m 460 1254 l 272 1463 l 453 1463 l 508 1254 l 460 1254 z "},"Ẳ":{"ha":944,"x_min":-28,"x_max":972,"o":"m -28 21 l 83 63 l 465 986 l 507 986 l 903 42 l 972 21 l 972 0 l 806 0 q 688 33 733 0 q 619 118 642 65 l 549 285 l 217 285 l 125 63 l 229 21 l 229 0 l -28 0 l -28 21 m 231 319 l 535 319 l 382 685 l 231 319 m 486 1042 q 328 1075 379 1042 q 278 1160 278 1108 q 301 1219 278 1196 q 361 1243 325 1243 q 393 1239 364 1243 l 410 1236 l 410 1083 q 430 1076 411 1083 q 486 1069 449 1069 q 542 1076 524 1069 q 563 1083 561 1083 l 563 1236 l 579 1239 q 611 1243 608 1243 q 671 1219 647 1243 q 694 1160 694 1196 q 644 1075 694 1108 q 486 1042 593 1042 m 463 1289 q 508 1322 492 1300 q 524 1386 524 1344 q 507 1452 524 1432 q 456 1472 490 1472 q 428 1468 449 1472 l 417 1465 l 417 1388 l 411 1386 l 407 1386 q 336 1422 336 1386 q 465 1499 336 1499 q 635 1386 635 1499 q 601 1319 635 1346 q 506 1282 567 1292 l 503 1243 l 465 1243 l 463 1289 z "},"Ẵ":{"ha":944,"x_min":-28,"x_max":972,"o":"m -28 21 l 83 63 l 465 986 l 507 986 l 903 42 l 972 21 l 972 0 l 806 0 q 688 33 733 0 q 619 118 642 65 l 549 285 l 217 285 l 125 63 l 229 21 l 229 0 l -28 0 l -28 21 m 231 319 l 535 319 l 382 685 l 231 319 m 486 1042 q 328 1075 379 1042 q 278 1160 278 1108 q 301 1219 278 1196 q 361 1243 325 1243 q 393 1239 364 1243 l 410 1236 l 410 1083 q 430 1076 411 1083 q 486 1069 449 1069 q 542 1076 524 1069 q 563 1083 561 1083 l 563 1236 l 579 1239 q 611 1243 608 1243 q 671 1219 647 1243 q 694 1160 694 1196 q 644 1075 694 1108 q 486 1042 593 1042 m 551 1293 q 499 1303 521 1293 q 450 1333 476 1314 q 416 1356 431 1349 q 385 1363 401 1363 q 340 1344 358 1363 q 322 1300 322 1326 l 294 1300 q 327 1420 294 1381 q 419 1460 360 1460 q 472 1449 450 1460 q 521 1419 494 1439 q 555 1398 540 1406 q 586 1390 569 1390 q 631 1408 613 1390 q 649 1453 649 1426 l 676 1453 q 644 1333 676 1372 q 551 1293 611 1293 z "},"Â":{"ha":944,"x_min":-28,"x_max":972,"o":"m -28 21 l 83 63 l 465 986 l 507 986 l 903 42 l 972 21 l 972 0 l 806 0 q 688 33 733 0 q 619 118 642 65 l 549 285 l 217 285 l 125 63 l 229 21 l 229 0 l -28 0 l -28 21 m 231 319 l 535 319 l 382 685 l 231 319 m 285 1042 l 486 1271 l 688 1042 l 639 1042 l 486 1139 l 333 1042 l 285 1042 z "},"Ấ":{"ha":944,"x_min":-28,"x_max":972,"o":"m -28 21 l 83 63 l 465 986 l 507 986 l 903 42 l 972 21 l 972 0 l 806 0 q 688 33 733 0 q 619 118 642 65 l 549 285 l 217 285 l 125 63 l 229 21 l 229 0 l -28 0 l -28 21 m 231 319 l 535 319 l 382 685 l 231 319 m 285 1042 l 486 1271 l 688 1042 l 639 1042 l 486 1139 l 333 1042 l 285 1042 m 661 1143 l 717 1351 l 897 1351 l 710 1143 l 661 1143 z "},"Ậ":{"ha":944,"x_min":-28,"x_max":972,"o":"m -28 21 l 83 63 l 465 986 l 507 986 l 903 42 l 972 21 l 972 0 l 806 0 q 688 33 733 0 q 619 118 642 65 l 549 285 l 217 285 l 125 63 l 229 21 l 229 0 l -28 0 l -28 21 m 231 319 l 535 319 l 382 685 l 231 319 m 472 -214 q 427 -195 446 -214 q 408 -150 408 -176 q 427 -104 408 -124 q 472 -85 446 -85 q 518 -104 499 -85 q 538 -150 538 -124 q 518 -195 538 -176 q 472 -214 499 -214 m 285 1042 l 486 1271 l 688 1042 l 639 1042 l 486 1139 l 333 1042 l 285 1042 z "},"Ầ":{"ha":944,"x_min":-28,"x_max":972,"o":"m -28 21 l 83 63 l 465 986 l 507 986 l 903 42 l 972 21 l 972 0 l 806 0 q 688 33 733 0 q 619 118 642 65 l 549 285 l 217 285 l 125 63 l 229 21 l 229 0 l -28 0 l -28 21 m 231 319 l 535 319 l 382 685 l 231 319 m 285 1042 l 486 1271 l 688 1042 l 639 1042 l 486 1139 l 333 1042 l 285 1042 m 639 1211 l 451 1419 l 632 1419 l 688 1211 l 639 1211 z "},"Ẩ":{"ha":944,"x_min":-28,"x_max":972,"o":"m -28 21 l 83 63 l 465 986 l 507 986 l 903 42 l 972 21 l 972 0 l 806 0 q 688 33 733 0 q 619 118 642 65 l 549 285 l 217 285 l 125 63 l 229 21 l 229 0 l -28 0 l -28 21 m 231 319 l 535 319 l 382 685 l 231 319 m 285 1042 l 486 1271 l 688 1042 l 639 1042 l 486 1139 l 333 1042 l 285 1042 m 629 1226 q 674 1260 658 1238 q 690 1324 690 1282 q 674 1390 690 1369 q 622 1410 657 1410 q 594 1406 615 1410 l 583 1403 l 583 1325 l 578 1324 l 574 1324 q 503 1360 503 1324 q 632 1436 503 1436 q 801 1324 801 1436 q 767 1256 801 1283 q 672 1219 733 1229 l 669 1181 l 632 1181 l 629 1226 z "},"Ẫ":{"ha":944,"x_min":-28,"x_max":972,"o":"m -28 21 l 83 63 l 465 986 l 507 986 l 903 42 l 972 21 l 972 0 l 806 0 q 688 33 733 0 q 619 118 642 65 l 549 285 l 217 285 l 125 63 l 229 21 l 229 0 l -28 0 l -28 21 m 231 319 l 535 319 l 382 685 l 231 319 m 285 1042 l 486 1271 l 688 1042 l 639 1042 l 486 1139 l 333 1042 l 285 1042 m 551 1297 q 499 1308 521 1297 q 450 1338 476 1318 q 416 1360 431 1353 q 385 1367 401 1367 q 340 1349 358 1367 q 322 1304 322 1331 l 294 1304 q 327 1424 294 1385 q 419 1464 360 1464 q 472 1453 450 1464 q 521 1424 494 1443 q 555 1402 540 1410 q 586 1394 569 1394 q 631 1413 613 1394 q 649 1457 649 1431 l 676 1457 q 644 1337 676 1376 q 551 1297 611 1297 z "},"Ä":{"ha":944,"x_min":-28,"x_max":972,"o":"m -28 21 l 83 63 l 465 986 l 507 986 l 903 42 l 972 21 l 972 0 l 806 0 q 688 33 733 0 q 619 118 642 65 l 549 285 l 217 285 l 125 63 l 229 21 l 229 0 l -28 0 l -28 21 m 231 319 l 535 319 l 382 685 l 231 319 m 357 1056 q 288 1083 315 1056 q 260 1153 260 1111 q 288 1222 260 1194 q 357 1250 315 1250 q 426 1222 399 1250 q 454 1153 454 1194 q 426 1083 454 1111 q 357 1056 399 1056 m 614 1056 q 544 1083 572 1056 q 517 1153 517 1111 q 544 1222 517 1194 q 614 1250 572 1250 q 683 1222 656 1250 q 711 1153 711 1194 q 683 1083 711 1111 q 614 1056 656 1056 z "},"Ạ":{"ha":944,"x_min":-28,"x_max":972,"o":"m -28 21 l 83 63 l 465 986 l 507 986 l 903 42 l 972 21 l 972 0 l 806 0 q 688 33 733 0 q 619 118 642 65 l 549 285 l 217 285 l 125 63 l 229 21 l 229 0 l -28 0 l -28 21 m 231 319 l 535 319 l 382 685 l 231 319 m 472 -214 q 427 -195 446 -214 q 408 -150 408 -176 q 427 -104 408 -124 q 472 -85 446 -85 q 518 -104 499 -85 q 538 -150 538 -124 q 518 -195 538 -176 q 472 -214 499 -214 z "},"À":{"ha":944,"x_min":-28,"x_max":972,"o":"m -28 21 l 83 63 l 465 986 l 507 986 l 903 42 l 972 21 l 972 0 l 806 0 q 688 33 733 0 q 619 118 642 65 l 549 285 l 217 285 l 125 63 l 229 21 l 229 0 l -28 0 l -28 21 m 231 319 l 535 319 l 382 685 l 231 319 m 471 1042 l 283 1250 l 464 1250 l 519 1042 l 471 1042 z "},"Ả":{"ha":944,"x_min":-28,"x_max":972,"o":"m -28 21 l 83 63 l 465 986 l 507 986 l 903 42 l 972 21 l 972 0 l 806 0 q 688 33 733 0 q 619 118 642 65 l 549 285 l 217 285 l 125 63 l 229 21 l 229 0 l -28 0 l -28 21 m 231 319 l 535 319 l 382 685 l 231 319 m 463 1142 q 508 1175 492 1153 q 524 1239 524 1197 q 507 1305 524 1285 q 456 1325 490 1325 q 428 1321 449 1325 l 417 1318 l 417 1240 l 411 1239 l 407 1239 q 336 1275 336 1239 q 465 1351 336 1351 q 635 1239 635 1351 q 601 1172 635 1199 q 506 1135 567 1144 l 503 1096 l 465 1096 l 463 1142 z "},"Ā":{"ha":944,"x_min":-28,"x_max":972,"o":"m -28 21 l 83 63 l 465 986 l 507 986 l 903 42 l 972 21 l 972 0 l 806 0 q 688 33 733 0 q 619 118 642 65 l 549 285 l 217 285 l 125 63 l 229 21 l 229 0 l -28 0 l -28 21 m 231 319 l 535 319 l 382 685 l 231 319 m 306 1188 l 306 1250 l 667 1250 l 667 1188 l 306 1188 z "},"Ą":{"ha":944,"x_min":-28,"x_max":972,"o":"m 868 -264 q 760 -234 797 -264 q 722 -160 722 -204 q 760 -74 722 -108 q 826 -29 799 -40 q 908 0 853 -18 l 806 0 q 688 33 733 0 q 619 118 642 65 l 549 285 l 217 285 l 125 63 l 229 21 l 229 0 l -28 0 l -28 21 l 83 63 l 465 986 l 507 986 l 903 42 l 972 21 l 972 0 q 906 -43 933 -19 q 840 -174 840 -100 q 896 -229 840 -229 q 940 -215 918 -229 q 958 -201 950 -210 l 958 -243 q 933 -254 956 -244 q 868 -264 908 -264 m 231 319 l 535 319 l 382 685 l 231 319 z "},"Å":{"ha":944,"x_min":-28,"x_max":972,"o":"m -28 21 l 83 63 l 465 986 l 507 986 l 903 42 l 972 21 l 972 0 l 806 0 q 688 33 733 0 q 619 118 642 65 l 549 285 l 217 285 l 125 63 l 229 21 l 229 0 l -28 0 l -28 21 m 231 319 l 535 319 l 382 685 l 231 319 m 486 1042 q 382 1082 424 1042 q 340 1181 340 1122 q 382 1279 340 1239 q 486 1319 424 1319 q 590 1279 549 1319 q 632 1181 632 1239 q 590 1082 632 1122 q 486 1042 549 1042 m 486 1090 q 541 1115 519 1090 q 563 1181 563 1140 q 541 1246 563 1221 q 486 1271 519 1271 q 431 1246 453 1271 q 410 1181 410 1221 q 431 1115 410 1140 q 486 1090 453 1090 z "},"Ã":{"ha":944,"x_min":-28,"x_max":972,"o":"m -28 21 l 83 63 l 465 986 l 507 986 l 903 42 l 972 21 l 972 0 l 806 0 q 688 33 733 0 q 619 118 642 65 l 549 285 l 217 285 l 125 63 l 229 21 l 229 0 l -28 0 l -28 21 m 231 319 l 535 319 l 382 685 l 231 319 m 551 1083 q 499 1094 521 1083 q 450 1124 476 1104 q 416 1146 431 1139 q 385 1153 401 1153 q 340 1135 358 1153 q 322 1090 322 1117 l 294 1090 q 327 1210 294 1171 q 419 1250 360 1250 q 472 1240 450 1250 q 521 1210 494 1229 q 555 1188 540 1196 q 586 1181 569 1181 q 631 1199 613 1181 q 649 1243 649 1217 l 676 1243 q 644 1123 676 1163 q 551 1083 611 1083 z "},"Æ":{"ha":1376,"x_min":-42,"x_max":1319,"o":"m -42 21 l 69 63 l 578 972 l 1292 972 l 1292 722 l 1250 722 q 1204 775 1224 743 q 1160 938 1160 850 l 875 938 l 875 500 l 1021 500 q 1057 599 1031 553 q 1083 639 1068 619 l 1125 639 l 1125 326 l 1083 326 q 1057 367 1068 346 q 1021 465 1031 413 l 875 465 l 875 35 l 1188 35 q 1232 197 1188 122 q 1278 250 1251 229 l 1319 250 l 1319 0 l 563 0 l 563 21 l 646 42 l 646 368 l 289 368 l 119 63 l 224 21 l 224 0 l -42 0 l -42 21 m 310 403 l 646 403 l 646 938 l 608 938 l 310 403 z "},"B":{"ha":944,"x_min":69,"x_max":903,"o":"m 69 21 l 153 42 l 153 931 l 69 951 l 69 972 l 444 972 q 755 905 656 972 q 854 729 854 838 q 811 608 854 654 q 701 540 768 563 q 549 514 631 515 l 549 507 q 725 476 650 503 q 852 399 801 451 q 903 264 903 346 q 801 70 903 140 q 472 0 700 0 l 69 0 l 69 21 m 444 528 q 530 553 490 528 q 594 626 569 579 q 618 729 618 672 q 594 838 618 790 q 530 911 569 885 q 444 938 490 938 l 382 938 l 382 528 l 444 528 m 472 35 q 613 96 558 35 q 667 264 667 157 q 613 432 667 371 q 472 493 558 493 l 382 493 l 382 35 l 472 35 z "},"C":{"ha":903,"x_min":63,"x_max":854,"o":"m 535 -21 q 188 111 313 -21 q 63 486 63 243 q 117 760 63 646 q 272 934 172 875 q 501 993 371 993 q 661 947 581 993 q 722 903 692 931 q 771 960 746 939 q 799 979 796 978 l 833 979 l 833 715 l 778 715 q 724 836 760 782 q 641 924 690 889 q 528 958 592 958 q 369 847 432 958 q 306 486 306 736 q 374 123 306 232 q 563 14 443 14 q 687 51 628 14 q 783 149 746 88 q 819 278 819 210 l 854 278 q 812 130 854 199 q 697 20 769 61 q 535 -21 624 -21 z "},"Ć":{"ha":903,"x_min":63,"x_max":854,"o":"m 535 -21 q 188 111 313 -21 q 63 486 63 243 q 117 760 63 646 q 272 934 172 875 q 501 993 371 993 q 661 947 581 993 q 722 903 692 931 q 771 960 746 939 q 799 979 796 978 l 833 979 l 833 715 l 778 715 q 724 836 760 782 q 641 924 690 889 q 528 958 592 958 q 369 847 432 958 q 306 486 306 736 q 374 123 306 232 q 563 14 443 14 q 687 51 628 14 q 783 149 746 88 q 819 278 819 210 l 854 278 q 812 130 854 199 q 697 20 769 61 q 535 -21 624 -21 m 468 1042 l 524 1250 l 704 1250 l 517 1042 l 468 1042 z "},"Č":{"ha":903,"x_min":63,"x_max":854,"o":"m 535 -21 q 188 111 313 -21 q 63 486 63 243 q 117 760 63 646 q 272 934 172 875 q 501 993 371 993 q 661 947 581 993 q 722 903 692 931 q 771 960 746 939 q 799 979 796 978 l 833 979 l 833 715 l 778 715 q 724 836 760 782 q 641 924 690 889 q 528 958 592 958 q 369 847 432 958 q 306 486 306 736 q 374 123 306 232 q 563 14 443 14 q 687 51 628 14 q 783 149 746 88 q 819 278 819 210 l 854 278 q 812 130 854 199 q 697 20 769 61 q 535 -21 624 -21 m 306 1271 l 354 1271 l 507 1174 l 660 1271 l 708 1271 l 507 1042 l 306 1271 z "},"Ç":{"ha":903,"x_min":63,"x_max":854,"o":"m 504 -278 q 450 -275 481 -278 l 426 -271 l 426 -229 q 440 -236 435 -235 q 476 -243 457 -243 q 527 -224 508 -243 q 546 -174 546 -206 q 526 -123 546 -142 q 469 -104 506 -104 l 469 -17 q 169 131 276 1 q 63 486 63 260 q 117 760 63 646 q 272 934 172 875 q 501 993 371 993 q 661 947 581 993 q 722 903 692 931 q 771 960 746 939 q 799 979 796 978 l 833 979 l 833 715 l 778 715 q 724 836 760 782 q 641 924 690 889 q 528 958 592 958 q 369 847 432 958 q 306 486 306 736 q 374 123 306 232 q 563 14 443 14 q 687 51 628 14 q 783 149 746 88 q 819 278 819 210 l 854 278 q 812 130 854 199 q 697 20 769 61 q 535 -21 624 -21 l 518 -21 l 518 -69 q 614 -100 578 -69 q 650 -174 650 -131 q 613 -248 650 -218 q 504 -278 575 -278 z "},"Ĉ":{"ha":903,"x_min":63,"x_max":854,"o":"m 535 -21 q 188 111 313 -21 q 63 486 63 243 q 117 760 63 646 q 272 934 172 875 q 501 993 371 993 q 661 947 581 993 q 722 903 692 931 q 771 960 746 939 q 799 979 796 978 l 833 979 l 833 715 l 778 715 q 724 836 760 782 q 641 924 690 889 q 528 958 592 958 q 369 847 432 958 q 306 486 306 736 q 374 123 306 232 q 563 14 443 14 q 687 51 628 14 q 783 149 746 88 q 819 278 819 210 l 854 278 q 812 130 854 199 q 697 20 769 61 q 535 -21 624 -21 m 306 1042 l 507 1271 l 708 1042 l 660 1042 l 507 1139 l 354 1042 l 306 1042 z "},"Ċ":{"ha":903,"x_min":63,"x_max":854,"o":"m 535 -21 q 188 111 313 -21 q 63 486 63 243 q 117 760 63 646 q 272 934 172 875 q 501 993 371 993 q 661 947 581 993 q 722 903 692 931 q 771 960 746 939 q 799 979 796 978 l 833 979 l 833 715 l 778 715 q 724 836 760 782 q 641 924 690 889 q 528 958 592 958 q 369 847 432 958 q 306 486 306 736 q 374 123 306 232 q 563 14 443 14 q 687 51 628 14 q 783 149 746 88 q 819 278 819 210 l 854 278 q 812 130 854 199 q 697 20 769 61 q 535 -21 624 -21 m 507 1056 q 438 1083 465 1056 q 410 1153 410 1111 q 438 1222 410 1194 q 507 1250 465 1250 q 576 1222 549 1250 q 604 1153 604 1194 q 576 1083 604 1111 q 507 1056 549 1056 z "},"D":{"ha":993,"x_min":69,"x_max":938,"o":"m 69 21 l 153 42 l 153 931 l 69 951 l 69 972 l 424 972 q 805 844 672 972 q 938 486 938 717 q 805 128 938 256 q 424 0 672 0 l 69 0 l 69 21 m 424 35 q 624 140 553 35 q 694 486 694 244 q 624 833 694 728 q 424 938 553 938 l 382 938 l 382 35 l 424 35 z "},"Ð":{"ha":993,"x_min":69,"x_max":944,"o":"m 76 21 l 160 42 l 160 472 l 69 472 l 69 514 l 160 514 l 160 931 l 76 951 l 76 972 l 431 972 q 812 844 679 972 q 944 486 944 717 q 812 128 944 256 q 431 0 679 0 l 76 0 l 76 21 m 431 35 q 631 140 560 35 q 701 486 701 244 q 631 833 701 728 q 431 938 560 938 l 389 938 l 389 514 l 556 514 l 556 472 l 389 472 l 389 35 l 431 35 z "},"Ď":{"ha":993,"x_min":69,"x_max":938,"o":"m 69 21 l 153 42 l 153 931 l 69 951 l 69 972 l 424 972 q 805 844 672 972 q 938 486 938 717 q 805 128 938 256 q 424 0 672 0 l 69 0 l 69 21 m 424 35 q 624 140 553 35 q 694 486 694 244 q 624 833 694 728 q 424 938 553 938 l 382 938 l 382 35 l 424 35 m 296 1271 l 344 1271 l 497 1174 l 650 1271 l 699 1271 l 497 1042 l 296 1271 z "},"Đ":{"ha":1000,"x_min":69,"x_max":944,"o":"m 76 21 l 160 42 l 160 472 l 69 472 l 69 514 l 160 514 l 160 931 l 76 951 l 76 972 l 431 972 q 812 844 679 972 q 944 486 944 717 q 812 128 944 256 q 431 0 679 0 l 76 0 l 76 21 m 431 35 q 631 140 560 35 q 701 486 701 244 q 631 833 701 728 q 431 938 560 938 l 389 938 l 389 514 l 556 514 l 556 472 l 389 472 l 389 35 l 431 35 z "},"E":{"ha":896,"x_min":69,"x_max":840,"o":"m 69 21 l 153 42 l 153 931 l 69 951 l 69 972 l 813 972 l 813 722 l 771 722 q 725 775 744 743 q 681 938 681 850 l 382 938 l 382 500 l 542 500 q 578 599 551 553 q 604 639 589 619 l 646 639 l 646 326 l 604 326 q 578 367 589 346 q 542 465 551 413 l 382 465 l 382 35 l 708 35 q 753 197 708 122 q 799 250 772 229 l 840 250 l 840 0 l 69 0 l 69 21 z "},"É":{"ha":896,"x_min":69,"x_max":840,"o":"m 69 21 l 153 42 l 153 931 l 69 951 l 69 972 l 813 972 l 813 722 l 771 722 q 725 775 744 743 q 681 938 681 850 l 382 938 l 382 500 l 542 500 q 578 599 551 553 q 604 639 589 619 l 646 639 l 646 326 l 604 326 q 578 367 589 346 q 542 465 551 413 l 382 465 l 382 35 l 708 35 q 753 197 708 122 q 799 250 772 229 l 840 250 l 840 0 l 69 0 l 69 21 m 465 1042 l 521 1250 l 701 1250 l 514 1042 l 465 1042 z "},"Ĕ":{"ha":896,"x_min":69,"x_max":840,"o":"m 69 21 l 153 42 l 153 931 l 69 951 l 69 972 l 813 972 l 813 722 l 771 722 q 725 775 744 743 q 681 938 681 850 l 382 938 l 382 500 l 542 500 q 578 599 551 553 q 604 639 589 619 l 646 639 l 646 326 l 604 326 q 578 367 589 346 q 542 465 551 413 l 382 465 l 382 35 l 708 35 q 753 197 708 122 q 799 250 772 229 l 840 250 l 840 0 l 69 0 l 69 21 m 504 1042 q 347 1075 397 1042 q 296 1160 296 1108 q 319 1219 296 1196 q 379 1243 343 1243 q 411 1239 382 1243 l 428 1236 l 428 1083 q 448 1076 429 1083 q 504 1069 467 1069 q 560 1076 542 1069 q 581 1083 579 1083 l 581 1236 l 597 1239 q 629 1243 626 1243 q 689 1219 665 1243 q 713 1160 713 1196 q 662 1075 713 1108 q 504 1042 611 1042 z "},"Ě":{"ha":896,"x_min":69,"x_max":840,"o":"m 69 21 l 153 42 l 153 931 l 69 951 l 69 972 l 813 972 l 813 722 l 771 722 q 725 775 744 743 q 681 938 681 850 l 382 938 l 382 500 l 542 500 q 578 599 551 553 q 604 639 589 619 l 646 639 l 646 326 l 604 326 q 578 367 589 346 q 542 465 551 413 l 382 465 l 382 35 l 708 35 q 753 197 708 122 q 799 250 772 229 l 840 250 l 840 0 l 69 0 l 69 21 m 303 1271 l 351 1271 l 504 1174 l 657 1271 l 706 1271 l 504 1042 l 303 1271 z "},"Ê":{"ha":896,"x_min":69,"x_max":840,"o":"m 69 21 l 153 42 l 153 931 l 69 951 l 69 972 l 813 972 l 813 722 l 771 722 q 725 775 744 743 q 681 938 681 850 l 382 938 l 382 500 l 542 500 q 578 599 551 553 q 604 639 589 619 l 646 639 l 646 326 l 604 326 q 578 367 589 346 q 542 465 551 413 l 382 465 l 382 35 l 708 35 q 753 197 708 122 q 799 250 772 229 l 840 250 l 840 0 l 69 0 l 69 21 m 303 1042 l 504 1271 l 706 1042 l 657 1042 l 504 1139 l 351 1042 l 303 1042 z "},"Ế":{"ha":896,"x_min":69,"x_max":915,"o":"m 69 21 l 153 42 l 153 931 l 69 951 l 69 972 l 813 972 l 813 722 l 771 722 q 725 775 744 743 q 681 938 681 850 l 382 938 l 382 500 l 542 500 q 578 599 551 553 q 604 639 589 619 l 646 639 l 646 326 l 604 326 q 578 367 589 346 q 542 465 551 413 l 382 465 l 382 35 l 708 35 q 753 197 708 122 q 799 250 772 229 l 840 250 l 840 0 l 69 0 l 69 21 m 303 1042 l 504 1271 l 706 1042 l 657 1042 l 504 1139 l 351 1042 l 303 1042 m 679 1143 l 735 1351 l 915 1351 l 728 1143 l 679 1143 z "},"Ệ":{"ha":896,"x_min":69,"x_max":840,"o":"m 69 21 l 153 42 l 153 931 l 69 951 l 69 972 l 813 972 l 813 722 l 771 722 q 725 775 744 743 q 681 938 681 850 l 382 938 l 382 500 l 542 500 q 578 599 551 553 q 604 639 589 619 l 646 639 l 646 326 l 604 326 q 578 367 589 346 q 542 465 551 413 l 382 465 l 382 35 l 708 35 q 753 197 708 122 q 799 250 772 229 l 840 250 l 840 0 l 69 0 l 69 21 m 532 -214 q 487 -195 506 -214 q 468 -150 468 -176 q 487 -104 468 -124 q 532 -85 506 -85 q 578 -104 558 -85 q 597 -150 597 -124 q 578 -195 597 -176 q 532 -214 558 -214 m 303 1042 l 504 1271 l 706 1042 l 657 1042 l 504 1139 l 351 1042 l 303 1042 z "},"Ề":{"ha":896,"x_min":69,"x_max":840,"o":"m 69 21 l 153 42 l 153 931 l 69 951 l 69 972 l 813 972 l 813 722 l 771 722 q 725 775 744 743 q 681 938 681 850 l 382 938 l 382 500 l 542 500 q 578 599 551 553 q 604 639 589 619 l 646 639 l 646 326 l 604 326 q 578 367 589 346 q 542 465 551 413 l 382 465 l 382 35 l 708 35 q 753 197 708 122 q 799 250 772 229 l 840 250 l 840 0 l 69 0 l 69 21 m 303 1042 l 504 1271 l 706 1042 l 657 1042 l 504 1139 l 351 1042 l 303 1042 m 657 1211 l 469 1419 l 650 1419 l 706 1211 l 657 1211 z "},"Ể":{"ha":896,"x_min":69,"x_max":840,"o":"m 69 21 l 153 42 l 153 931 l 69 951 l 69 972 l 813 972 l 813 722 l 771 722 q 725 775 744 743 q 681 938 681 850 l 382 938 l 382 500 l 542 500 q 578 599 551 553 q 604 639 589 619 l 646 639 l 646 326 l 604 326 q 578 367 589 346 q 542 465 551 413 l 382 465 l 382 35 l 708 35 q 753 197 708 122 q 799 250 772 229 l 840 250 l 840 0 l 69 0 l 69 21 m 303 1042 l 504 1271 l 706 1042 l 657 1042 l 504 1139 l 351 1042 l 303 1042 m 647 1226 q 692 1260 676 1238 q 708 1324 708 1282 q 692 1390 708 1369 q 640 1410 675 1410 q 613 1406 633 1410 l 601 1403 l 601 1325 l 596 1324 l 592 1324 q 521 1360 521 1324 q 650 1436 521 1436 q 819 1324 819 1436 q 785 1256 819 1283 q 690 1219 751 1229 l 688 1181 l 650 1181 l 647 1226 z "},"Ễ":{"ha":896,"x_min":69,"x_max":840,"o":"m 69 21 l 153 42 l 153 931 l 69 951 l 69 972 l 813 972 l 813 722 l 771 722 q 725 775 744 743 q 681 938 681 850 l 382 938 l 382 500 l 542 500 q 578 599 551 553 q 604 639 589 619 l 646 639 l 646 326 l 604 326 q 578 367 589 346 q 542 465 551 413 l 382 465 l 382 35 l 708 35 q 753 197 708 122 q 799 250 772 229 l 840 250 l 840 0 l 69 0 l 69 21 m 303 1042 l 504 1271 l 706 1042 l 657 1042 l 504 1139 l 351 1042 l 303 1042 m 569 1297 q 517 1308 539 1297 q 468 1338 494 1318 q 434 1360 449 1353 q 403 1367 419 1367 q 358 1349 376 1367 q 340 1304 340 1331 l 313 1304 q 345 1424 313 1385 q 438 1464 378 1464 q 490 1453 468 1464 q 539 1424 513 1443 q 573 1402 558 1410 q 604 1394 588 1394 q 649 1413 631 1394 q 667 1457 667 1431 l 694 1457 q 662 1337 694 1376 q 569 1297 629 1297 z "},"Ë":{"ha":896,"x_min":69,"x_max":840,"o":"m 69 21 l 153 42 l 153 931 l 69 951 l 69 972 l 813 972 l 813 722 l 771 722 q 725 775 744 743 q 681 938 681 850 l 382 938 l 382 500 l 542 500 q 578 599 551 553 q 604 639 589 619 l 646 639 l 646 326 l 604 326 q 578 367 589 346 q 542 465 551 413 l 382 465 l 382 35 l 708 35 q 753 197 708 122 q 799 250 772 229 l 840 250 l 840 0 l 69 0 l 69 21 m 375 1056 q 306 1083 333 1056 q 278 1153 278 1111 q 306 1222 278 1194 q 375 1250 333 1250 q 444 1222 417 1250 q 472 1153 472 1194 q 444 1083 472 1111 q 375 1056 417 1056 m 632 1056 q 563 1083 590 1056 q 535 1153 535 1111 q 563 1222 535 1194 q 632 1250 590 1250 q 701 1222 674 1250 q 729 1153 729 1194 q 701 1083 729 1111 q 632 1056 674 1056 z "},"Ė":{"ha":896,"x_min":69,"x_max":840,"o":"m 69 21 l 153 42 l 153 931 l 69 951 l 69 972 l 813 972 l 813 722 l 771 722 q 725 775 744 743 q 681 938 681 850 l 382 938 l 382 500 l 542 500 q 578 599 551 553 q 604 639 589 619 l 646 639 l 646 326 l 604 326 q 578 367 589 346 q 542 465 551 413 l 382 465 l 382 35 l 708 35 q 753 197 708 122 q 799 250 772 229 l 840 250 l 840 0 l 69 0 l 69 21 m 504 1056 q 435 1083 463 1056 q 407 1153 407 1111 q 435 1222 407 1194 q 504 1250 463 1250 q 574 1222 546 1250 q 601 1153 601 1194 q 574 1083 601 1111 q 504 1056 546 1056 z "},"Ẹ":{"ha":896,"x_min":69,"x_max":840,"o":"m 69 21 l 153 42 l 153 931 l 69 951 l 69 972 l 813 972 l 813 722 l 771 722 q 725 775 744 743 q 681 938 681 850 l 382 938 l 382 500 l 542 500 q 578 599 551 553 q 604 639 589 619 l 646 639 l 646 326 l 604 326 q 578 367 589 346 q 542 465 551 413 l 382 465 l 382 35 l 708 35 q 753 197 708 122 q 799 250 772 229 l 840 250 l 840 0 l 69 0 l 69 21 m 532 -214 q 487 -195 506 -214 q 468 -150 468 -176 q 487 -104 468 -124 q 532 -85 506 -85 q 578 -104 558 -85 q 597 -150 597 -124 q 578 -195 597 -176 q 532 -214 558 -214 z "},"È":{"ha":896,"x_min":69,"x_max":840,"o":"m 69 21 l 153 42 l 153 931 l 69 951 l 69 972 l 813 972 l 813 722 l 771 722 q 725 775 744 743 q 681 938 681 850 l 382 938 l 382 500 l 542 500 q 578 599 551 553 q 604 639 589 619 l 646 639 l 646 326 l 604 326 q 578 367 589 346 q 542 465 551 413 l 382 465 l 382 35 l 708 35 q 753 197 708 122 q 799 250 772 229 l 840 250 l 840 0 l 69 0 l 69 21 m 489 1042 l 301 1250 l 482 1250 l 538 1042 l 489 1042 z "},"Ẻ":{"ha":896,"x_min":69,"x_max":840,"o":"m 69 21 l 153 42 l 153 931 l 69 951 l 69 972 l 813 972 l 813 722 l 771 722 q 725 775 744 743 q 681 938 681 850 l 382 938 l 382 500 l 542 500 q 578 599 551 553 q 604 639 589 619 l 646 639 l 646 326 l 604 326 q 578 367 589 346 q 542 465 551 413 l 382 465 l 382 35 l 708 35 q 753 197 708 122 q 799 250 772 229 l 840 250 l 840 0 l 69 0 l 69 21 m 481 1142 q 526 1175 510 1153 q 542 1239 542 1197 q 525 1305 542 1285 q 474 1325 508 1325 q 446 1321 467 1325 l 435 1318 l 435 1240 l 429 1239 l 425 1239 q 354 1275 354 1239 q 483 1351 354 1351 q 653 1239 653 1351 q 619 1172 653 1199 q 524 1135 585 1144 l 521 1096 l 483 1096 l 481 1142 z "},"Ē":{"ha":896,"x_min":69,"x_max":840,"o":"m 69 21 l 153 42 l 153 931 l 69 951 l 69 972 l 813 972 l 813 722 l 771 722 q 725 775 744 743 q 681 938 681 850 l 382 938 l 382 500 l 542 500 q 578 599 551 553 q 604 639 589 619 l 646 639 l 646 326 l 604 326 q 578 367 589 346 q 542 465 551 413 l 382 465 l 382 35 l 708 35 q 753 197 708 122 q 799 250 772 229 l 840 250 l 840 0 l 69 0 l 69 21 m 324 1188 l 324 1250 l 685 1250 l 685 1188 l 324 1188 z "},"Ę":{"ha":896,"x_min":69,"x_max":840,"o":"m 514 -264 q 406 -234 443 -264 q 368 -160 368 -204 q 406 -74 368 -108 q 472 -29 444 -40 q 554 0 499 -18 l 69 0 l 69 21 l 153 42 l 153 931 l 69 951 l 69 972 l 813 972 l 813 722 l 771 722 q 725 775 744 743 q 681 938 681 850 l 382 938 l 382 500 l 542 500 q 578 599 551 553 q 604 639 589 619 l 646 639 l 646 326 l 604 326 q 578 367 589 346 q 542 465 551 413 l 382 465 l 382 35 l 708 35 q 753 197 708 122 q 799 250 772 229 l 840 250 l 840 0 l 618 0 q 551 -43 579 -19 q 486 -174 486 -100 q 542 -229 486 -229 q 586 -215 564 -229 q 604 -201 597 -208 l 604 -243 q 579 -254 601 -244 q 514 -264 554 -264 z "},"Ẽ":{"ha":896,"x_min":69,"x_max":840,"o":"m 69 21 l 153 42 l 153 931 l 69 951 l 69 972 l 813 972 l 813 722 l 771 722 q 725 775 744 743 q 681 938 681 850 l 382 938 l 382 500 l 542 500 q 578 599 551 553 q 604 639 589 619 l 646 639 l 646 326 l 604 326 q 578 367 589 346 q 542 465 551 413 l 382 465 l 382 35 l 708 35 q 753 197 708 122 q 799 250 772 229 l 840 250 l 840 0 l 69 0 l 69 21 m 569 1083 q 517 1094 539 1083 q 468 1124 494 1104 q 434 1146 449 1139 q 403 1153 419 1153 q 358 1135 376 1153 q 340 1090 340 1117 l 313 1090 q 345 1210 313 1171 q 438 1250 378 1250 q 490 1240 468 1250 q 539 1210 513 1229 q 573 1188 558 1196 q 604 1181 588 1181 q 649 1199 631 1181 q 667 1243 667 1217 l 694 1243 q 662 1123 694 1163 q 569 1083 629 1083 z "},"F":{"ha":847,"x_min":69,"x_max":813,"o":"m 69 21 l 153 42 l 153 931 l 69 951 l 69 972 l 813 972 l 813 722 l 771 722 q 725 775 744 743 q 681 938 681 850 l 382 938 l 382 500 l 542 500 q 578 599 551 553 q 604 639 589 619 l 646 639 l 646 326 l 604 326 q 578 367 589 346 q 542 465 551 413 l 382 465 l 382 42 l 465 21 l 465 0 l 69 0 l 69 21 z "},"G":{"ha":972,"x_min":63,"x_max":944,"o":"m 451 -21 q 257 39 346 -21 q 115 213 168 99 q 63 486 63 328 q 117 760 63 646 q 272 934 172 875 q 501 993 371 993 q 661 947 581 993 q 722 903 692 931 q 771 960 746 939 q 799 979 796 978 l 833 979 l 833 715 l 778 715 q 724 836 760 782 q 641 924 690 889 q 528 958 592 958 q 369 847 432 958 q 306 486 306 736 q 362 132 306 236 q 507 28 418 28 q 600 83 558 28 q 632 139 615 104 l 632 458 l 549 479 l 549 500 l 944 500 l 944 479 l 861 458 l 861 -7 l 840 -7 q 686 49 739 -7 q 653 104 663 74 q 607 42 633 69 q 451 -21 544 -21 z "},"Ğ":{"ha":972,"x_min":63,"x_max":944,"o":"m 451 -21 q 257 39 346 -21 q 115 213 168 99 q 63 486 63 328 q 117 760 63 646 q 272 934 172 875 q 501 993 371 993 q 661 947 581 993 q 722 903 692 931 q 771 960 746 939 q 799 979 796 978 l 833 979 l 833 715 l 778 715 q 724 836 760 782 q 641 924 690 889 q 528 958 592 958 q 369 847 432 958 q 306 486 306 736 q 362 132 306 236 q 507 28 418 28 q 600 83 558 28 q 632 139 615 104 l 632 458 l 549 479 l 549 500 l 944 500 l 944 479 l 861 458 l 861 -7 l 840 -7 q 686 49 739 -7 q 653 104 663 74 q 607 42 633 69 q 451 -21 544 -21 m 514 1042 q 356 1075 407 1042 q 306 1160 306 1108 q 329 1219 306 1196 q 389 1243 353 1243 q 421 1239 392 1243 l 438 1236 l 438 1083 q 458 1076 439 1083 q 514 1069 476 1069 q 570 1076 551 1069 q 590 1083 589 1083 l 590 1236 l 607 1239 q 639 1243 636 1243 q 699 1219 675 1243 q 722 1160 722 1196 q 672 1075 722 1108 q 514 1042 621 1042 z "},"Ĝ":{"ha":972,"x_min":63,"x_max":944,"o":"m 451 -21 q 257 39 346 -21 q 115 213 168 99 q 63 486 63 328 q 117 760 63 646 q 272 934 172 875 q 501 993 371 993 q 661 947 581 993 q 722 903 692 931 q 771 960 746 939 q 799 979 796 978 l 833 979 l 833 715 l 778 715 q 724 836 760 782 q 641 924 690 889 q 528 958 592 958 q 369 847 432 958 q 306 486 306 736 q 362 132 306 236 q 507 28 418 28 q 600 83 558 28 q 632 139 615 104 l 632 458 l 549 479 l 549 500 l 944 500 l 944 479 l 861 458 l 861 -7 l 840 -7 q 686 49 739 -7 q 653 104 663 74 q 607 42 633 69 q 451 -21 544 -21 m 313 1042 l 514 1271 l 715 1042 l 667 1042 l 514 1139 l 361 1042 l 313 1042 z "},"Ģ":{"ha":972,"x_min":63,"x_max":944,"o":"m 451 -21 q 257 39 346 -21 q 115 213 168 99 q 63 486 63 328 q 117 760 63 646 q 272 934 172 875 q 501 993 371 993 q 661 947 581 993 q 722 903 692 931 q 771 960 746 939 q 799 979 796 978 l 833 979 l 833 715 l 778 715 q 724 836 760 782 q 641 924 690 889 q 528 958 592 958 q 369 847 432 958 q 306 486 306 736 q 362 132 306 236 q 507 28 418 28 q 600 83 558 28 q 632 139 615 104 l 632 458 l 549 479 l 549 500 l 944 500 l 944 479 l 861 458 l 861 -7 l 840 -7 q 686 49 739 -7 q 653 104 663 74 q 607 42 633 69 q 451 -21 544 -21 m 378 -403 q 429 -372 404 -393 q 496 -257 482 -328 q 488 -263 492 -261 q 481 -268 483 -265 q 440 -278 468 -278 q 371 -250 399 -278 q 343 -181 343 -222 q 371 -111 343 -139 q 440 -83 399 -83 q 517 -114 489 -83 q 544 -201 544 -144 q 523 -309 544 -264 q 468 -383 501 -354 q 392 -431 433 -414 l 378 -403 z "},"Ġ":{"ha":972,"x_min":63,"x_max":944,"o":"m 451 -21 q 257 39 346 -21 q 115 213 168 99 q 63 486 63 328 q 117 760 63 646 q 272 934 172 875 q 501 993 371 993 q 661 947 581 993 q 722 903 692 931 q 771 960 746 939 q 799 979 796 978 l 833 979 l 833 715 l 778 715 q 724 836 760 782 q 641 924 690 889 q 528 958 592 958 q 369 847 432 958 q 306 486 306 736 q 362 132 306 236 q 507 28 418 28 q 600 83 558 28 q 632 139 615 104 l 632 458 l 549 479 l 549 500 l 944 500 l 944 479 l 861 458 l 861 -7 l 840 -7 q 686 49 739 -7 q 653 104 663 74 q 607 42 633 69 q 451 -21 544 -21 m 514 1056 q 444 1083 472 1056 q 417 1153 417 1111 q 444 1222 417 1194 q 514 1250 472 1250 q 583 1222 556 1250 q 611 1153 611 1194 q 583 1083 611 1111 q 514 1056 556 1056 z "},"H":{"ha":1063,"x_min":69,"x_max":993,"o":"m 69 0 l 69 21 l 153 42 l 153 931 l 69 951 l 69 972 l 465 972 l 465 951 l 382 931 l 382 500 l 681 500 l 681 931 l 597 951 l 597 972 l 993 972 l 993 951 l 910 931 l 910 42 l 993 21 l 993 0 l 597 0 l 597 21 l 681 42 l 681 465 l 382 465 l 382 42 l 465 21 l 465 0 l 69 0 z "},"Ĥ":{"ha":1063,"x_min":69,"x_max":993,"o":"m 69 0 l 69 21 l 153 42 l 153 931 l 69 951 l 69 972 l 465 972 l 465 951 l 382 931 l 382 500 l 681 500 l 681 931 l 597 951 l 597 972 l 993 972 l 993 951 l 910 931 l 910 42 l 993 21 l 993 0 l 597 0 l 597 21 l 681 42 l 681 465 l 382 465 l 382 42 l 465 21 l 465 0 l 69 0 m 331 1042 l 532 1271 l 733 1042 l 685 1042 l 532 1139 l 379 1042 l 331 1042 z "},"I":{"ha":535,"x_min":69,"x_max":465,"o":"m 69 0 l 69 21 l 153 42 l 153 931 l 69 951 l 69 972 l 465 972 l 465 951 l 382 931 l 382 42 l 465 21 l 465 0 l 69 0 z "},"Í":{"ha":535,"x_min":69,"x_max":465,"o":"m 69 0 l 69 21 l 153 42 l 153 931 l 69 951 l 69 972 l 465 972 l 465 951 l 382 931 l 382 42 l 465 21 l 465 0 l 69 0 m 229 1042 l 285 1250 l 465 1250 l 278 1042 l 229 1042 z "},"Ĭ":{"ha":535,"x_min":60,"x_max":476,"o":"m 69 0 l 69 21 l 153 42 l 153 931 l 69 951 l 69 972 l 465 972 l 465 951 l 382 931 l 382 42 l 465 21 l 465 0 l 69 0 m 268 1042 q 110 1075 161 1042 q 60 1160 60 1108 q 83 1219 60 1196 q 143 1243 107 1243 q 175 1239 146 1243 l 192 1236 l 192 1083 q 212 1076 193 1083 q 268 1069 231 1069 q 324 1076 306 1069 q 344 1083 343 1083 l 344 1236 l 361 1239 q 393 1243 390 1243 q 453 1219 429 1243 q 476 1160 476 1196 q 426 1075 476 1108 q 268 1042 375 1042 z "},"Î":{"ha":535,"x_min":67,"x_max":469,"o":"m 69 0 l 69 21 l 153 42 l 153 931 l 69 951 l 69 972 l 465 972 l 465 951 l 382 931 l 382 42 l 465 21 l 465 0 l 69 0 m 67 1042 l 268 1271 l 469 1042 l 421 1042 l 268 1139 l 115 1042 l 67 1042 z "},"Ï":{"ha":535,"x_min":42,"x_max":493,"o":"m 69 0 l 69 21 l 153 42 l 153 931 l 69 951 l 69 972 l 465 972 l 465 951 l 382 931 l 382 42 l 465 21 l 465 0 l 69 0 m 139 1056 q 69 1083 97 1056 q 42 1153 42 1111 q 69 1222 42 1194 q 139 1250 97 1250 q 208 1222 181 1250 q 236 1153 236 1194 q 208 1083 236 1111 q 139 1056 181 1056 m 396 1056 q 326 1083 354 1056 q 299 1153 299 1111 q 326 1222 299 1194 q 396 1250 354 1250 q 465 1222 438 1250 q 493 1153 493 1194 q 465 1083 493 1111 q 396 1056 438 1056 z "},"İ":{"ha":535,"x_min":69,"x_max":465,"o":"m 69 0 l 69 21 l 153 42 l 153 931 l 69 951 l 69 972 l 465 972 l 465 951 l 382 931 l 382 42 l 465 21 l 465 0 l 69 0 m 268 1056 q 199 1083 226 1056 q 171 1153 171 1111 q 199 1222 171 1194 q 268 1250 226 1250 q 338 1222 310 1250 q 365 1153 365 1194 q 338 1083 365 1111 q 268 1056 310 1056 z "},"Ị":{"ha":535,"x_min":69,"x_max":465,"o":"m 69 0 l 69 21 l 153 42 l 153 931 l 69 951 l 69 972 l 465 972 l 465 951 l 382 931 l 382 42 l 465 21 l 465 0 l 69 0 m 268 -214 q 223 -195 242 -214 q 204 -150 204 -176 q 223 -104 204 -124 q 268 -85 242 -85 q 314 -104 294 -85 q 333 -150 333 -124 q 314 -195 333 -176 q 268 -214 294 -214 z "},"Ì":{"ha":535,"x_min":65,"x_max":465,"o":"m 69 0 l 69 21 l 153 42 l 153 931 l 69 951 l 69 972 l 465 972 l 465 951 l 382 931 l 382 42 l 465 21 l 465 0 l 69 0 m 253 1042 l 65 1250 l 246 1250 l 301 1042 l 253 1042 z "},"Ỉ":{"ha":535,"x_min":69,"x_max":465,"o":"m 69 0 l 69 21 l 153 42 l 153 931 l 69 951 l 69 972 l 465 972 l 465 951 l 382 931 l 382 42 l 465 21 l 465 0 l 69 0 m 244 1142 q 290 1175 274 1153 q 306 1239 306 1197 q 289 1305 306 1285 q 238 1325 272 1325 q 210 1321 231 1325 l 199 1318 l 199 1240 l 193 1239 l 189 1239 q 118 1275 118 1239 q 247 1351 118 1351 q 417 1239 417 1351 q 383 1172 417 1199 q 288 1135 349 1144 l 285 1096 l 247 1096 l 244 1142 z "},"Ī":{"ha":535,"x_min":69,"x_max":465,"o":"m 69 0 l 69 21 l 153 42 l 153 931 l 69 951 l 69 972 l 465 972 l 465 951 l 382 931 l 382 42 l 465 21 l 465 0 l 69 0 m 88 1188 l 88 1250 l 449 1250 l 449 1188 l 88 1188 z "},"Į":{"ha":535,"x_min":69,"x_max":465,"o":"m 278 -264 q 169 -234 207 -264 q 132 -160 132 -204 q 170 -74 132 -108 q 235 -29 208 -40 q 318 0 263 -18 l 69 0 l 69 21 l 153 42 l 153 931 l 69 951 l 69 972 l 465 972 l 465 951 l 382 931 l 382 42 l 465 21 l 465 0 l 382 0 q 315 -43 343 -19 q 250 -174 250 -100 q 306 -229 250 -229 q 350 -215 328 -229 q 368 -201 361 -208 l 368 -243 q 343 -254 365 -244 q 278 -264 318 -264 z "},"Ĩ":{"ha":535,"x_min":69,"x_max":465,"o":"m 69 0 l 69 21 l 153 42 l 153 931 l 69 951 l 69 972 l 465 972 l 465 951 l 382 931 l 382 42 l 465 21 l 465 0 l 69 0 m 333 1083 q 281 1094 303 1083 q 232 1124 258 1104 q 198 1146 213 1139 q 167 1153 183 1153 q 122 1135 140 1153 q 104 1090 104 1117 l 76 1090 q 109 1210 76 1171 q 201 1250 142 1250 q 254 1240 232 1250 q 303 1210 276 1229 q 337 1188 322 1196 q 368 1181 351 1181 q 413 1199 394 1181 q 431 1243 431 1217 l 458 1243 q 426 1123 458 1163 q 333 1083 393 1083 z "},"J":{"ha":764,"x_min":0,"x_max":708,"o":"m 257 -21 q 65 24 129 -21 q 0 132 0 68 q 28 208 0 179 q 104 236 57 236 q 126 234 115 236 q 142 232 138 232 l 160 229 l 160 21 q 179 14 169 15 q 229 7 203 7 q 396 278 396 7 l 396 931 l 313 951 l 313 972 l 708 972 l 708 951 l 625 931 l 625 278 q 535 56 625 133 q 257 -21 444 -21 z "},"Ĵ":{"ha":764,"x_min":0,"x_max":708,"o":"m 257 -21 q 65 24 129 -21 q 0 132 0 68 q 28 208 0 179 q 104 236 57 236 q 126 234 115 236 q 142 232 138 232 l 160 229 l 160 21 q 179 14 169 15 q 229 7 203 7 q 396 278 396 7 l 396 931 l 313 951 l 313 972 l 708 972 l 708 951 l 625 931 l 625 278 q 535 56 625 133 q 257 -21 444 -21 m 306 1042 l 507 1271 l 708 1042 l 660 1042 l 507 1139 l 354 1042 l 306 1042 z "},"K":{"ha":958,"x_min":69,"x_max":972,"o":"m 69 21 l 153 42 l 153 931 l 69 951 l 69 972 l 465 972 l 465 951 l 382 931 l 382 494 l 722 910 l 618 951 l 618 972 l 882 972 l 882 951 l 771 910 l 528 611 l 903 42 l 972 21 l 972 0 l 778 0 q 672 31 715 0 q 590 118 628 63 l 382 438 l 382 42 l 465 21 l 465 0 l 69 0 l 69 21 z "},"Ķ":{"ha":958,"x_min":69,"x_max":972,"o":"m 69 21 l 153 42 l 153 931 l 69 951 l 69 972 l 465 972 l 465 951 l 382 931 l 382 494 l 722 910 l 618 951 l 618 972 l 882 972 l 882 951 l 771 910 l 528 611 l 903 42 l 972 21 l 972 0 l 778 0 q 672 31 715 0 q 590 118 628 63 l 382 438 l 382 42 l 465 21 l 465 0 l 69 0 l 69 21 m 454 -403 q 506 -372 481 -393 q 572 -257 558 -328 q 564 -263 568 -261 q 557 -268 560 -265 q 517 -278 544 -278 q 447 -250 475 -278 q 419 -181 419 -222 q 447 -111 419 -139 q 517 -83 475 -83 q 593 -114 565 -83 q 621 -201 621 -144 q 599 -309 621 -264 q 544 -383 578 -354 q 468 -431 510 -414 l 454 -403 z "},"L":{"ha":847,"x_min":69,"x_max":813,"o":"m 69 21 l 153 42 l 153 931 l 69 951 l 69 972 l 465 972 l 465 951 l 382 931 l 382 35 l 681 35 q 725 197 681 122 q 771 250 744 229 l 813 250 l 813 0 l 69 0 l 69 21 z "},"Ĺ":{"ha":847,"x_min":69,"x_max":813,"o":"m 69 21 l 153 42 l 153 931 l 69 951 l 69 972 l 465 972 l 465 951 l 382 931 l 382 35 l 681 35 q 725 197 681 122 q 771 250 744 229 l 813 250 l 813 0 l 69 0 l 69 21 m 385 1042 l 440 1250 l 621 1250 l 433 1042 l 385 1042 z "},"Ľ":{"ha":847,"x_min":69,"x_max":813,"o":"m 69 21 l 153 42 l 153 931 l 69 951 l 69 972 l 465 972 l 465 951 l 382 931 l 382 35 l 681 35 q 725 197 681 122 q 771 250 744 229 l 813 250 l 813 0 l 69 0 l 69 21 m 222 1271 l 271 1271 l 424 1174 l 576 1271 l 625 1271 l 424 1042 l 222 1271 z "},"Ļ":{"ha":847,"x_min":69,"x_max":813,"o":"m 69 21 l 153 42 l 153 931 l 69 951 l 69 972 l 465 972 l 465 951 l 382 931 l 382 35 l 681 35 q 725 197 681 122 q 771 250 744 229 l 813 250 l 813 0 l 69 0 l 69 21 m 357 -403 q 408 -372 383 -393 q 475 -257 461 -328 q 467 -263 471 -261 q 460 -268 463 -265 q 419 -278 447 -278 q 350 -250 378 -278 q 322 -181 322 -222 q 350 -111 322 -139 q 419 -83 378 -83 q 496 -114 468 -83 q 524 -201 524 -144 q 502 -309 524 -264 q 447 -383 481 -354 q 371 -431 413 -414 l 357 -403 z "},"Ŀ":{"ha":847,"x_min":69,"x_max":813,"o":"m 69 21 l 153 42 l 153 931 l 69 951 l 69 972 l 465 972 l 465 951 l 382 931 l 382 35 l 681 35 q 725 197 681 122 q 771 250 744 229 l 813 250 l 813 0 l 69 0 l 69 21 m 650 375 q 577 408 608 375 q 546 486 546 440 q 577 565 546 532 q 650 597 608 597 q 723 565 692 597 q 754 486 754 532 q 723 408 754 440 q 650 375 692 375 z "},"Ł":{"ha":861,"x_min":49,"x_max":826,"o":"m 83 21 l 167 42 l 167 439 l 49 368 l 49 417 l 167 488 l 167 931 l 83 951 l 83 972 l 479 972 l 479 951 l 396 931 l 396 626 l 507 694 l 507 646 l 396 578 l 396 35 l 694 35 q 739 197 694 122 q 785 250 758 229 l 826 250 l 826 0 l 83 0 l 83 21 z "},"M":{"ha":1368,"x_min":42,"x_max":1299,"o":"m 194 799 l 194 63 l 306 21 l 306 0 l 42 0 l 42 21 l 153 63 l 153 931 l 69 951 l 69 972 l 243 972 q 358 942 315 972 q 431 854 400 913 l 733 275 l 965 854 q 1029 944 989 915 q 1153 972 1069 972 l 1299 972 l 1299 951 l 1215 931 l 1215 42 l 1299 21 l 1299 0 l 903 0 l 903 21 l 986 42 l 986 799 l 660 -14 l 618 -14 l 194 799 z "},"N":{"ha":1028,"x_min":42,"x_max":993,"o":"m 194 736 l 194 63 l 306 21 l 306 0 l 42 0 l 42 21 l 153 63 l 153 924 l 56 951 l 56 972 l 201 972 q 317 946 275 972 q 396 875 358 919 l 840 354 l 840 910 l 729 951 l 729 972 l 993 972 l 993 951 l 882 910 l 882 -21 l 840 -21 l 194 736 z "},"Ń":{"ha":1028,"x_min":42,"x_max":993,"o":"m 194 736 l 194 63 l 306 21 l 306 0 l 42 0 l 42 21 l 153 63 l 153 924 l 56 951 l 56 972 l 201 972 q 317 946 275 972 q 396 875 358 919 l 840 354 l 840 910 l 729 951 l 729 972 l 993 972 l 993 951 l 882 910 l 882 -21 l 840 -21 l 194 736 m 475 1042 l 531 1250 l 711 1250 l 524 1042 l 475 1042 z "},"Ň":{"ha":1028,"x_min":42,"x_max":993,"o":"m 194 736 l 194 63 l 306 21 l 306 0 l 42 0 l 42 21 l 153 63 l 153 924 l 56 951 l 56 972 l 201 972 q 317 946 275 972 q 396 875 358 919 l 840 354 l 840 910 l 729 951 l 729 972 l 993 972 l 993 951 l 882 910 l 882 -21 l 840 -21 l 194 736 m 313 1271 l 361 1271 l 514 1174 l 667 1271 l 715 1271 l 514 1042 l 313 1271 z "},"Ņ":{"ha":1028,"x_min":42,"x_max":993,"o":"m 194 736 l 194 63 l 306 21 l 306 0 l 42 0 l 42 21 l 153 63 l 153 924 l 56 951 l 56 972 l 201 972 q 317 946 275 972 q 396 875 358 919 l 840 354 l 840 910 l 729 951 l 729 972 l 993 972 l 993 951 l 882 910 l 882 -21 l 840 -21 l 194 736 m 447 -403 q 499 -372 474 -393 q 565 -257 551 -328 q 557 -263 561 -261 q 550 -268 553 -265 q 510 -278 538 -278 q 440 -250 468 -278 q 413 -181 413 -222 q 440 -111 413 -139 q 510 -83 468 -83 q 586 -114 558 -83 q 614 -201 614 -144 q 592 -309 614 -264 q 538 -383 571 -354 q 461 -431 503 -414 l 447 -403 z "},"Ñ":{"ha":1028,"x_min":42,"x_max":993,"o":"m 194 736 l 194 63 l 306 21 l 306 0 l 42 0 l 42 21 l 153 63 l 153 924 l 56 951 l 56 972 l 201 972 q 317 946 275 972 q 396 875 358 919 l 840 354 l 840 910 l 729 951 l 729 972 l 993 972 l 993 951 l 882 910 l 882 -21 l 840 -21 l 194 736 m 579 1083 q 526 1094 549 1083 q 478 1124 504 1104 q 444 1146 458 1139 q 413 1153 429 1153 q 368 1135 386 1153 q 350 1090 350 1117 l 322 1090 q 355 1210 322 1171 q 447 1250 388 1250 q 500 1240 478 1250 q 549 1210 522 1229 q 583 1188 568 1196 q 614 1181 597 1181 q 658 1199 640 1181 q 676 1243 676 1217 l 704 1243 q 672 1123 704 1163 q 579 1083 639 1083 z "},"O":{"ha":1028,"x_min":63,"x_max":965,"o":"m 514 -21 q 276 38 378 -21 q 118 211 174 97 q 63 486 63 325 q 118 761 63 647 q 276 934 174 875 q 514 993 378 993 q 752 934 650 993 q 910 761 854 875 q 965 486 965 647 q 910 211 965 325 q 752 38 854 97 q 514 -21 650 -21 m 514 7 q 615 53 568 7 q 692 206 661 99 q 722 486 722 313 q 692 767 722 660 q 615 919 661 874 q 514 965 568 965 q 413 919 460 965 q 336 767 367 874 q 306 486 306 660 q 336 206 306 313 q 413 53 367 99 q 514 7 460 7 z "},"Ó":{"ha":1028,"x_min":63,"x_max":965,"o":"m 514 -21 q 276 38 378 -21 q 118 211 174 97 q 63 486 63 325 q 118 761 63 647 q 276 934 174 875 q 514 993 378 993 q 752 934 650 993 q 910 761 854 875 q 965 486 965 647 q 910 211 965 325 q 752 38 854 97 q 514 -21 650 -21 m 514 7 q 615 53 568 7 q 692 206 661 99 q 722 486 722 313 q 692 767 722 660 q 615 919 661 874 q 514 965 568 965 q 413 919 460 965 q 336 767 367 874 q 306 486 306 660 q 336 206 306 313 q 413 53 367 99 q 514 7 460 7 m 475 1042 l 531 1250 l 711 1250 l 524 1042 l 475 1042 z "},"Ŏ":{"ha":1028,"x_min":63,"x_max":965,"o":"m 514 -21 q 276 38 378 -21 q 118 211 174 97 q 63 486 63 325 q 118 761 63 647 q 276 934 174 875 q 514 993 378 993 q 752 934 650 993 q 910 761 854 875 q 965 486 965 647 q 910 211 965 325 q 752 38 854 97 q 514 -21 650 -21 m 514 7 q 615 53 568 7 q 692 206 661 99 q 722 486 722 313 q 692 767 722 660 q 615 919 661 874 q 514 965 568 965 q 413 919 460 965 q 336 767 367 874 q 306 486 306 660 q 336 206 306 313 q 413 53 367 99 q 514 7 460 7 m 514 1042 q 356 1075 407 1042 q 306 1160 306 1108 q 329 1219 306 1196 q 389 1243 353 1243 q 421 1239 392 1243 l 438 1236 l 438 1083 q 458 1076 439 1083 q 514 1069 476 1069 q 570 1076 551 1069 q 590 1083 589 1083 l 590 1236 l 607 1239 q 639 1243 636 1243 q 699 1219 675 1243 q 722 1160 722 1196 q 672 1075 722 1108 q 514 1042 621 1042 z "},"Ô":{"ha":1028,"x_min":63,"x_max":965,"o":"m 514 -21 q 276 38 378 -21 q 118 211 174 97 q 63 486 63 325 q 118 761 63 647 q 276 934 174 875 q 514 993 378 993 q 752 934 650 993 q 910 761 854 875 q 965 486 965 647 q 910 211 965 325 q 752 38 854 97 q 514 -21 650 -21 m 514 7 q 615 53 568 7 q 692 206 661 99 q 722 486 722 313 q 692 767 722 660 q 615 919 661 874 q 514 965 568 965 q 413 919 460 965 q 336 767 367 874 q 306 486 306 660 q 336 206 306 313 q 413 53 367 99 q 514 7 460 7 m 313 1042 l 514 1271 l 715 1042 l 667 1042 l 514 1139 l 361 1042 l 313 1042 z "},"Ố":{"ha":1028,"x_min":63,"x_max":965,"o":"m 514 -21 q 276 38 378 -21 q 118 211 174 97 q 63 486 63 325 q 118 761 63 647 q 276 934 174 875 q 514 993 378 993 q 752 934 650 993 q 910 761 854 875 q 965 486 965 647 q 910 211 965 325 q 752 38 854 97 q 514 -21 650 -21 m 514 7 q 615 53 568 7 q 692 206 661 99 q 722 486 722 313 q 692 767 722 660 q 615 919 661 874 q 514 965 568 965 q 413 919 460 965 q 336 767 367 874 q 306 486 306 660 q 336 206 306 313 q 413 53 367 99 q 514 7 460 7 m 313 1042 l 514 1271 l 715 1042 l 667 1042 l 514 1139 l 361 1042 l 313 1042 m 689 1143 l 744 1351 l 925 1351 l 738 1143 l 689 1143 z "},"Ộ":{"ha":1028,"x_min":63,"x_max":965,"o":"m 514 -21 q 276 38 378 -21 q 118 211 174 97 q 63 486 63 325 q 118 761 63 647 q 276 934 174 875 q 514 993 378 993 q 752 934 650 993 q 910 761 854 875 q 965 486 965 647 q 910 211 965 325 q 752 38 854 97 q 514 -21 650 -21 m 514 7 q 615 53 568 7 q 692 206 661 99 q 722 486 722 313 q 692 767 722 660 q 615 919 661 874 q 514 965 568 965 q 413 919 460 965 q 336 767 367 874 q 306 486 306 660 q 336 206 306 313 q 413 53 367 99 q 514 7 460 7 m 514 -214 q 469 -195 488 -214 q 450 -150 450 -176 q 469 -104 450 -124 q 514 -85 488 -85 q 560 -104 540 -85 q 579 -150 579 -124 q 560 -195 579 -176 q 514 -214 540 -214 m 313 1042 l 514 1271 l 715 1042 l 667 1042 l 514 1139 l 361 1042 l 313 1042 z "},"Ồ":{"ha":1028,"x_min":63,"x_max":965,"o":"m 514 -21 q 276 38 378 -21 q 118 211 174 97 q 63 486 63 325 q 118 761 63 647 q 276 934 174 875 q 514 993 378 993 q 752 934 650 993 q 910 761 854 875 q 965 486 965 647 q 910 211 965 325 q 752 38 854 97 q 514 -21 650 -21 m 514 7 q 615 53 568 7 q 692 206 661 99 q 722 486 722 313 q 692 767 722 660 q 615 919 661 874 q 514 965 568 965 q 413 919 460 965 q 336 767 367 874 q 306 486 306 660 q 336 206 306 313 q 413 53 367 99 q 514 7 460 7 m 313 1042 l 514 1271 l 715 1042 l 667 1042 l 514 1139 l 361 1042 l 313 1042 m 667 1211 l 479 1419 l 660 1419 l 715 1211 l 667 1211 z "},"Ổ":{"ha":1028,"x_min":63,"x_max":965,"o":"m 514 -21 q 276 38 378 -21 q 118 211 174 97 q 63 486 63 325 q 118 761 63 647 q 276 934 174 875 q 514 993 378 993 q 752 934 650 993 q 910 761 854 875 q 965 486 965 647 q 910 211 965 325 q 752 38 854 97 q 514 -21 650 -21 m 514 7 q 615 53 568 7 q 692 206 661 99 q 722 486 722 313 q 692 767 722 660 q 615 919 661 874 q 514 965 568 965 q 413 919 460 965 q 336 767 367 874 q 306 486 306 660 q 336 206 306 313 q 413 53 367 99 q 514 7 460 7 m 313 1042 l 514 1271 l 715 1042 l 667 1042 l 514 1139 l 361 1042 l 313 1042 m 657 1226 q 702 1260 686 1238 q 718 1324 718 1282 q 701 1390 718 1369 q 650 1410 685 1410 q 622 1406 643 1410 l 611 1403 l 611 1325 l 606 1324 l 601 1324 q 531 1360 531 1324 q 660 1436 531 1436 q 829 1324 829 1436 q 795 1256 829 1283 q 700 1219 761 1229 l 697 1181 l 660 1181 l 657 1226 z "},"Ỗ":{"ha":1028,"x_min":63,"x_max":965,"o":"m 514 -21 q 276 38 378 -21 q 118 211 174 97 q 63 486 63 325 q 118 761 63 647 q 276 934 174 875 q 514 993 378 993 q 752 934 650 993 q 910 761 854 875 q 965 486 965 647 q 910 211 965 325 q 752 38 854 97 q 514 -21 650 -21 m 514 7 q 615 53 568 7 q 692 206 661 99 q 722 486 722 313 q 692 767 722 660 q 615 919 661 874 q 514 965 568 965 q 413 919 460 965 q 336 767 367 874 q 306 486 306 660 q 336 206 306 313 q 413 53 367 99 q 514 7 460 7 m 313 1042 l 514 1271 l 715 1042 l 667 1042 l 514 1139 l 361 1042 l 313 1042 m 579 1297 q 526 1308 549 1297 q 478 1338 504 1318 q 444 1360 458 1353 q 413 1367 429 1367 q 368 1349 386 1367 q 350 1304 350 1331 l 322 1304 q 355 1424 322 1385 q 447 1464 388 1464 q 500 1453 478 1464 q 549 1424 522 1443 q 583 1402 568 1410 q 614 1394 597 1394 q 658 1413 640 1394 q 676 1457 676 1431 l 704 1457 q 672 1337 704 1376 q 579 1297 639 1297 z "},"Ö":{"ha":1028,"x_min":63,"x_max":965,"o":"m 514 -21 q 276 38 378 -21 q 118 211 174 97 q 63 486 63 325 q 118 761 63 647 q 276 934 174 875 q 514 993 378 993 q 752 934 650 993 q 910 761 854 875 q 965 486 965 647 q 910 211 965 325 q 752 38 854 97 q 514 -21 650 -21 m 514 7 q 615 53 568 7 q 692 206 661 99 q 722 486 722 313 q 692 767 722 660 q 615 919 661 874 q 514 965 568 965 q 413 919 460 965 q 336 767 367 874 q 306 486 306 660 q 336 206 306 313 q 413 53 367 99 q 514 7 460 7 m 385 1056 q 315 1083 343 1056 q 288 1153 288 1111 q 315 1222 288 1194 q 385 1250 343 1250 q 454 1222 426 1250 q 482 1153 482 1194 q 454 1083 482 1111 q 385 1056 426 1056 m 642 1056 q 572 1083 600 1056 q 544 1153 544 1111 q 572 1222 544 1194 q 642 1250 600 1250 q 711 1222 683 1250 q 739 1153 739 1194 q 711 1083 739 1111 q 642 1056 683 1056 z "},"Ọ":{"ha":1028,"x_min":63,"x_max":965,"o":"m 514 -21 q 276 38 378 -21 q 118 211 174 97 q 63 486 63 325 q 118 761 63 647 q 276 934 174 875 q 514 993 378 993 q 752 934 650 993 q 910 761 854 875 q 965 486 965 647 q 910 211 965 325 q 752 38 854 97 q 514 -21 650 -21 m 514 7 q 615 53 568 7 q 692 206 661 99 q 722 486 722 313 q 692 767 722 660 q 615 919 661 874 q 514 965 568 965 q 413 919 460 965 q 336 767 367 874 q 306 486 306 660 q 336 206 306 313 q 413 53 367 99 q 514 7 460 7 m 514 -214 q 469 -195 488 -214 q 450 -150 450 -176 q 469 -104 450 -124 q 514 -85 488 -85 q 560 -104 540 -85 q 579 -150 579 -124 q 560 -195 579 -176 q 514 -214 540 -214 z "},"Ò":{"ha":1028,"x_min":63,"x_max":965,"o":"m 514 -21 q 276 38 378 -21 q 118 211 174 97 q 63 486 63 325 q 118 761 63 647 q 276 934 174 875 q 514 993 378 993 q 752 934 650 993 q 910 761 854 875 q 965 486 965 647 q 910 211 965 325 q 752 38 854 97 q 514 -21 650 -21 m 514 7 q 615 53 568 7 q 692 206 661 99 q 722 486 722 313 q 692 767 722 660 q 615 919 661 874 q 514 965 568 965 q 413 919 460 965 q 336 767 367 874 q 306 486 306 660 q 336 206 306 313 q 413 53 367 99 q 514 7 460 7 m 499 1042 l 311 1250 l 492 1250 l 547 1042 l 499 1042 z "},"Ỏ":{"ha":1028,"x_min":63,"x_max":965,"o":"m 514 -21 q 276 38 378 -21 q 118 211 174 97 q 63 486 63 325 q 118 761 63 647 q 276 934 174 875 q 514 993 378 993 q 752 934 650 993 q 910 761 854 875 q 965 486 965 647 q 910 211 965 325 q 752 38 854 97 q 514 -21 650 -21 m 514 7 q 615 53 568 7 q 692 206 661 99 q 722 486 722 313 q 692 767 722 660 q 615 919 661 874 q 514 965 568 965 q 413 919 460 965 q 336 767 367 874 q 306 486 306 660 q 336 206 306 313 q 413 53 367 99 q 514 7 460 7 m 490 1142 q 535 1175 519 1153 q 551 1239 551 1197 q 535 1305 551 1285 q 483 1325 518 1325 q 456 1321 476 1325 l 444 1318 l 444 1240 l 439 1239 l 435 1239 q 364 1275 364 1239 q 493 1351 364 1351 q 663 1239 663 1351 q 628 1172 663 1199 q 533 1135 594 1144 l 531 1096 l 493 1096 l 490 1142 z "},"Ơ":{"ha":1028,"x_min":63,"x_max":965,"o":"m 735 943 q 905 769 844 886 q 965 486 965 653 q 910 211 965 325 q 752 38 854 97 q 514 -21 650 -21 q 276 38 378 -21 q 118 211 174 97 q 63 486 63 325 q 118 761 63 647 q 276 934 174 875 q 514 993 378 993 q 674 969 599 993 q 736 975 722 972 l 776 981 l 776 1157 l 793 1161 q 832 1164 803 1164 q 876 1136 860 1164 q 893 1061 893 1108 q 857 981 893 1011 q 735 943 821 951 m 514 7 q 615 53 568 7 q 692 206 661 99 q 722 486 722 313 q 692 767 722 660 q 615 919 661 874 q 514 965 568 965 q 413 919 460 965 q 336 767 367 874 q 306 486 306 660 q 336 206 306 313 q 413 53 367 99 q 514 7 460 7 z "},"Ớ":{"ha":1028,"x_min":63,"x_max":965,"o":"m 735 943 q 905 769 844 886 q 965 486 965 653 q 910 211 965 325 q 752 38 854 97 q 514 -21 650 -21 q 276 38 378 -21 q 118 211 174 97 q 63 486 63 325 q 118 761 63 647 q 276 934 174 875 q 514 993 378 993 q 674 969 599 993 q 736 975 722 972 l 776 981 l 776 1157 l 793 1161 q 832 1164 803 1164 q 876 1136 860 1164 q 893 1061 893 1108 q 857 981 893 1011 q 735 943 821 951 m 514 7 q 615 53 568 7 q 692 206 661 99 q 722 486 722 313 q 692 767 722 660 q 615 919 661 874 q 514 965 568 965 q 413 919 460 965 q 336 767 367 874 q 306 486 306 660 q 336 206 306 313 q 413 53 367 99 q 514 7 460 7 m 475 1042 l 531 1250 l 711 1250 l 524 1042 l 475 1042 z "},"Ợ":{"ha":1028,"x_min":63,"x_max":965,"o":"m 735 943 q 905 769 844 886 q 965 486 965 653 q 910 211 965 325 q 752 38 854 97 q 514 -21 650 -21 q 276 38 378 -21 q 118 211 174 97 q 63 486 63 325 q 118 761 63 647 q 276 934 174 875 q 514 993 378 993 q 674 969 599 993 q 736 975 722 972 l 776 981 l 776 1157 l 793 1161 q 832 1164 803 1164 q 876 1136 860 1164 q 893 1061 893 1108 q 857 981 893 1011 q 735 943 821 951 m 514 7 q 615 53 568 7 q 692 206 661 99 q 722 486 722 313 q 692 767 722 660 q 615 919 661 874 q 514 965 568 965 q 413 919 460 965 q 336 767 367 874 q 306 486 306 660 q 336 206 306 313 q 413 53 367 99 q 514 7 460 7 m 514 -214 q 469 -195 488 -214 q 450 -150 450 -176 q 469 -104 450 -124 q 514 -85 488 -85 q 560 -104 540 -85 q 579 -150 579 -124 q 560 -195 579 -176 q 514 -214 540 -214 z "},"Ờ":{"ha":1028,"x_min":63,"x_max":965,"o":"m 735 943 q 905 769 844 886 q 965 486 965 653 q 910 211 965 325 q 752 38 854 97 q 514 -21 650 -21 q 276 38 378 -21 q 118 211 174 97 q 63 486 63 325 q 118 761 63 647 q 276 934 174 875 q 514 993 378 993 q 674 969 599 993 q 736 975 722 972 l 776 981 l 776 1157 l 793 1161 q 832 1164 803 1164 q 876 1136 860 1164 q 893 1061 893 1108 q 857 981 893 1011 q 735 943 821 951 m 514 7 q 615 53 568 7 q 692 206 661 99 q 722 486 722 313 q 692 767 722 660 q 615 919 661 874 q 514 965 568 965 q 413 919 460 965 q 336 767 367 874 q 306 486 306 660 q 336 206 306 313 q 413 53 367 99 q 514 7 460 7 m 499 1042 l 311 1250 l 492 1250 l 547 1042 l 499 1042 z "},"Ở":{"ha":1028,"x_min":63,"x_max":965,"o":"m 735 943 q 905 769 844 886 q 965 486 965 653 q 910 211 965 325 q 752 38 854 97 q 514 -21 650 -21 q 276 38 378 -21 q 118 211 174 97 q 63 486 63 325 q 118 761 63 647 q 276 934 174 875 q 514 993 378 993 q 674 969 599 993 q 736 975 722 972 l 776 981 l 776 1157 l 793 1161 q 832 1164 803 1164 q 876 1136 860 1164 q 893 1061 893 1108 q 857 981 893 1011 q 735 943 821 951 m 514 7 q 615 53 568 7 q 692 206 661 99 q 722 486 722 313 q 692 767 722 660 q 615 919 661 874 q 514 965 568 965 q 413 919 460 965 q 336 767 367 874 q 306 486 306 660 q 336 206 306 313 q 413 53 367 99 q 514 7 460 7 m 490 1142 q 535 1175 519 1153 q 551 1239 551 1197 q 535 1305 551 1285 q 483 1325 518 1325 q 456 1321 476 1325 l 444 1318 l 444 1240 l 439 1239 l 435 1239 q 364 1275 364 1239 q 493 1351 364 1351 q 663 1239 663 1351 q 628 1172 663 1199 q 533 1135 594 1144 l 531 1096 l 493 1096 l 490 1142 z "},"Ỡ":{"ha":1028,"x_min":63,"x_max":965,"o":"m 735 943 q 905 769 844 886 q 965 486 965 653 q 910 211 965 325 q 752 38 854 97 q 514 -21 650 -21 q 276 38 378 -21 q 118 211 174 97 q 63 486 63 325 q 118 761 63 647 q 276 934 174 875 q 514 993 378 993 q 674 969 599 993 q 736 975 722 972 l 776 981 l 776 1157 l 793 1161 q 832 1164 803 1164 q 876 1136 860 1164 q 893 1061 893 1108 q 857 981 893 1011 q 735 943 821 951 m 514 7 q 615 53 568 7 q 692 206 661 99 q 722 486 722 313 q 692 767 722 660 q 615 919 661 874 q 514 965 568 965 q 413 919 460 965 q 336 767 367 874 q 306 486 306 660 q 336 206 306 313 q 413 53 367 99 q 514 7 460 7 m 579 1083 q 526 1094 549 1083 q 478 1124 504 1104 q 444 1146 458 1139 q 413 1153 429 1153 q 368 1135 386 1153 q 350 1090 350 1117 l 322 1090 q 355 1210 322 1171 q 447 1250 388 1250 q 500 1240 478 1250 q 549 1210 522 1229 q 583 1188 568 1196 q 614 1181 597 1181 q 658 1199 640 1181 q 676 1243 676 1217 l 704 1243 q 672 1123 704 1163 q 579 1083 639 1083 z "},"Ő":{"ha":1028,"x_min":63,"x_max":965,"o":"m 514 -21 q 276 38 378 -21 q 118 211 174 97 q 63 486 63 325 q 118 761 63 647 q 276 934 174 875 q 514 993 378 993 q 752 934 650 993 q 910 761 854 875 q 965 486 965 647 q 910 211 965 325 q 752 38 854 97 q 514 -21 650 -21 m 514 7 q 615 53 568 7 q 692 206 661 99 q 722 486 722 313 q 692 767 722 660 q 615 919 661 874 q 514 965 568 965 q 413 919 460 965 q 336 767 367 874 q 306 486 306 660 q 336 206 306 313 q 413 53 367 99 q 514 7 460 7 m 394 1042 l 457 1250 l 596 1250 l 443 1042 l 394 1042 m 575 1042 l 638 1250 l 776 1250 l 624 1042 l 575 1042 z "},"Ō":{"ha":1028,"x_min":63,"x_max":965,"o":"m 514 -21 q 276 38 378 -21 q 118 211 174 97 q 63 486 63 325 q 118 761 63 647 q 276 934 174 875 q 514 993 378 993 q 752 934 650 993 q 910 761 854 875 q 965 486 965 647 q 910 211 965 325 q 752 38 854 97 q 514 -21 650 -21 m 514 7 q 615 53 568 7 q 692 206 661 99 q 722 486 722 313 q 692 767 722 660 q 615 919 661 874 q 514 965 568 965 q 413 919 460 965 q 336 767 367 874 q 306 486 306 660 q 336 206 306 313 q 413 53 367 99 q 514 7 460 7 m 333 1188 l 333 1250 l 694 1250 l 694 1188 l 333 1188 z "},"Ø":{"ha":1028,"x_min":63,"x_max":965,"o":"m 514 -21 q 226 78 342 -21 l 167 0 l 118 0 l 197 104 q 98 268 133 172 q 63 486 63 364 q 118 761 63 647 q 276 934 174 875 q 514 993 378 993 q 801 894 686 993 l 861 972 l 910 972 l 829 867 q 965 486 965 724 q 910 211 965 325 q 752 38 854 97 q 514 -21 650 -21 m 694 754 q 618 915 667 864 q 514 965 569 965 q 413 919 460 965 q 336 767 367 874 q 306 486 306 660 q 322 267 306 357 l 694 754 m 514 7 q 615 53 568 7 q 692 206 661 99 q 722 486 722 313 q 706 704 722 601 l 332 217 q 408 57 358 107 q 514 7 457 7 z "},"Ǿ":{"ha":1028,"x_min":63,"x_max":965,"o":"m 514 -21 q 226 78 342 -21 l 167 0 l 118 0 l 197 104 q 98 268 133 172 q 63 486 63 364 q 118 761 63 647 q 276 934 174 875 q 514 993 378 993 q 801 894 686 993 l 861 972 l 910 972 l 829 867 q 965 486 965 724 q 910 211 965 325 q 752 38 854 97 q 514 -21 650 -21 m 694 754 q 618 915 667 864 q 514 965 569 965 q 413 919 460 965 q 336 767 367 874 q 306 486 306 660 q 322 267 306 357 l 694 754 m 514 7 q 615 53 568 7 q 692 206 661 99 q 722 486 722 313 q 706 704 722 601 l 332 217 q 408 57 358 107 q 514 7 457 7 m 475 1042 l 531 1250 l 711 1250 l 524 1042 l 475 1042 z "},"Õ":{"ha":1028,"x_min":63,"x_max":965,"o":"m 514 -21 q 276 38 378 -21 q 118 211 174 97 q 63 486 63 325 q 118 761 63 647 q 276 934 174 875 q 514 993 378 993 q 752 934 650 993 q 910 761 854 875 q 965 486 965 647 q 910 211 965 325 q 752 38 854 97 q 514 -21 650 -21 m 514 7 q 615 53 568 7 q 692 206 661 99 q 722 486 722 313 q 692 767 722 660 q 615 919 661 874 q 514 965 568 965 q 413 919 460 965 q 336 767 367 874 q 306 486 306 660 q 336 206 306 313 q 413 53 367 99 q 514 7 460 7 m 579 1083 q 526 1094 549 1083 q 478 1124 504 1104 q 444 1146 458 1139 q 413 1153 429 1153 q 368 1135 386 1153 q 350 1090 350 1117 l 322 1090 q 355 1210 322 1171 q 447 1250 388 1250 q 500 1240 478 1250 q 549 1210 522 1229 q 583 1188 568 1196 q 614 1181 597 1181 q 658 1199 640 1181 q 676 1243 676 1217 l 704 1243 q 672 1123 704 1163 q 579 1083 639 1083 z "},"Œ":{"ha":1368,"x_min":63,"x_max":1313,"o":"m 576 0 q 195 128 328 0 q 63 486 63 256 q 195 844 63 717 q 576 972 328 972 l 1285 972 l 1285 722 l 1243 722 q 1197 775 1217 743 q 1153 938 1153 850 l 868 938 l 868 500 l 1014 500 q 1050 599 1024 553 q 1076 639 1061 619 l 1118 639 l 1118 326 l 1076 326 q 1050 367 1061 346 q 1014 465 1024 413 l 868 465 l 868 35 l 1181 35 q 1225 197 1181 122 q 1271 250 1244 229 l 1313 250 l 1313 0 l 576 0 m 639 35 l 639 938 l 576 938 q 376 833 447 938 q 306 486 306 728 q 376 140 306 244 q 576 35 447 35 l 639 35 z "},"P":{"ha":938,"x_min":69,"x_max":889,"o":"m 69 21 l 153 42 l 153 931 l 69 951 l 69 972 l 458 972 q 789 897 689 972 q 889 674 889 821 q 789 451 889 526 q 458 375 689 375 l 382 375 l 382 42 l 465 21 l 465 0 l 69 0 l 69 21 m 458 410 q 599 476 546 410 q 653 674 653 543 q 599 870 653 803 q 458 938 546 938 l 382 938 l 382 410 l 458 410 z "},"Þ":{"ha":972,"x_min":69,"x_max":931,"o":"m 69 21 l 153 42 l 153 931 l 69 951 l 69 972 l 465 972 l 465 951 l 382 931 l 382 847 l 444 847 q 716 801 607 847 q 878 674 825 756 q 931 486 931 593 q 878 298 931 379 q 716 171 825 217 q 444 125 607 125 l 382 125 l 382 42 l 465 21 l 465 0 l 69 0 l 69 21 m 444 160 q 567 197 513 160 q 655 308 622 235 q 688 486 688 382 q 655 664 688 590 q 567 775 622 738 q 444 813 513 813 l 382 813 l 382 160 l 444 160 z "},"Q":{"ha":1028,"x_min":63,"x_max":965,"o":"m 653 -236 q 521 -206 578 -236 q 433 -124 464 -176 q 403 -7 403 -72 q 153 153 243 26 q 63 486 63 281 q 118 761 63 647 q 276 934 174 875 q 514 993 378 993 q 752 934 650 993 q 910 761 854 875 q 965 486 965 647 q 875 153 965 281 q 625 -7 785 26 q 694 -194 625 -194 q 725 -187 714 -194 q 736 -181 726 -187 l 750 -215 q 728 -226 744 -219 q 653 -236 703 -236 m 514 7 q 615 53 568 7 q 692 206 661 99 q 722 486 722 313 q 692 767 722 660 q 615 919 661 874 q 514 965 568 965 q 413 919 460 965 q 336 767 367 874 q 306 486 306 660 q 336 206 306 313 q 413 53 367 99 q 514 7 460 7 z "},"R":{"ha":972,"x_min":69,"x_max":972,"o":"m 69 21 l 153 42 l 153 931 l 69 951 l 69 972 l 438 972 q 778 901 674 972 q 882 701 882 829 q 836 562 882 615 q 718 482 790 508 q 556 451 642 453 l 556 444 q 646 429 607 442 q 778 319 743 399 l 903 42 l 972 21 l 972 0 l 778 0 q 611 118 664 0 l 472 431 l 382 431 l 382 42 l 479 21 l 479 0 l 69 0 l 69 21 m 438 465 q 590 526 535 465 q 646 701 646 588 q 590 876 646 815 q 438 938 535 938 l 382 938 l 382 465 l 438 465 z "},"Ŕ":{"ha":972,"x_min":69,"x_max":972,"o":"m 69 21 l 153 42 l 153 931 l 69 951 l 69 972 l 438 972 q 778 901 674 972 q 882 701 882 829 q 836 562 882 615 q 718 482 790 508 q 556 451 642 453 l 556 444 q 646 429 607 442 q 778 319 743 399 l 903 42 l 972 21 l 972 0 l 778 0 q 611 118 664 0 l 472 431 l 382 431 l 382 42 l 479 21 l 479 0 l 69 0 l 69 21 m 438 465 q 590 526 535 465 q 646 701 646 588 q 590 876 646 815 q 438 938 535 938 l 382 938 l 382 465 l 438 465 m 447 1042 l 503 1250 l 683 1250 l 496 1042 l 447 1042 z "},"Ř":{"ha":972,"x_min":69,"x_max":972,"o":"m 69 21 l 153 42 l 153 931 l 69 951 l 69 972 l 438 972 q 778 901 674 972 q 882 701 882 829 q 836 562 882 615 q 718 482 790 508 q 556 451 642 453 l 556 444 q 646 429 607 442 q 778 319 743 399 l 903 42 l 972 21 l 972 0 l 778 0 q 611 118 664 0 l 472 431 l 382 431 l 382 42 l 479 21 l 479 0 l 69 0 l 69 21 m 438 465 q 590 526 535 465 q 646 701 646 588 q 590 876 646 815 q 438 938 535 938 l 382 938 l 382 465 l 438 465 m 285 1271 l 333 1271 l 486 1174 l 639 1271 l 688 1271 l 486 1042 l 285 1271 z "},"Ŗ":{"ha":972,"x_min":69,"x_max":972,"o":"m 69 21 l 153 42 l 153 931 l 69 951 l 69 972 l 438 972 q 778 901 674 972 q 882 701 882 829 q 836 562 882 615 q 718 482 790 508 q 556 451 642 453 l 556 444 q 646 429 607 442 q 778 319 743 399 l 903 42 l 972 21 l 972 0 l 778 0 q 611 118 664 0 l 472 431 l 382 431 l 382 42 l 479 21 l 479 0 l 69 0 l 69 21 m 438 465 q 590 526 535 465 q 646 701 646 588 q 590 876 646 815 q 438 938 535 938 l 382 938 l 382 465 l 438 465 m 419 -403 q 471 -372 446 -393 q 538 -257 524 -328 q 529 -263 533 -261 q 522 -268 525 -265 q 482 -278 510 -278 q 413 -250 440 -278 q 385 -181 385 -222 q 413 -111 385 -139 q 482 -83 440 -83 q 558 -114 531 -83 q 586 -201 586 -144 q 565 -309 586 -264 q 510 -383 543 -354 q 433 -431 475 -414 l 419 -403 z "},"S":{"ha":826,"x_min":49,"x_max":792,"o":"m 410 -21 q 225 24 311 -21 q 160 69 186 43 q 111 13 140 38 q 83 -7 86 -6 l 49 -7 l 49 257 l 104 257 q 163 135 125 189 q 382 14 247 14 q 508 61 461 14 q 556 188 556 108 q 528 269 556 233 q 461 333 501 306 q 349 403 421 361 q 200 496 257 454 q 103 601 143 538 q 63 750 63 664 q 101 873 63 818 q 215 960 139 928 q 403 993 292 993 q 564 947 483 993 q 625 903 594 931 q 674 960 649 939 q 701 979 699 978 l 736 979 l 736 715 l 681 715 q 626 836 663 782 q 544 924 593 889 q 431 958 494 958 q 338 915 376 958 q 299 806 299 872 q 328 713 299 754 q 402 642 358 672 q 521 568 446 611 q 663 479 608 518 q 754 383 717 440 q 792 250 792 325 q 749 113 792 175 q 619 15 706 51 q 410 -21 533 -21 z "},"Ś":{"ha":826,"x_min":49,"x_max":792,"o":"m 410 -21 q 225 24 311 -21 q 160 69 186 43 q 111 13 140 38 q 83 -7 86 -6 l 49 -7 l 49 257 l 104 257 q 163 135 125 189 q 382 14 247 14 q 508 61 461 14 q 556 188 556 108 q 528 269 556 233 q 461 333 501 306 q 349 403 421 361 q 200 496 257 454 q 103 601 143 538 q 63 750 63 664 q 101 873 63 818 q 215 960 139 928 q 403 993 292 993 q 564 947 483 993 q 625 903 594 931 q 674 960 649 939 q 701 979 699 978 l 736 979 l 736 715 l 681 715 q 626 836 663 782 q 544 924 593 889 q 431 958 494 958 q 338 915 376 958 q 299 806 299 872 q 328 713 299 754 q 402 642 358 672 q 521 568 446 611 q 663 479 608 518 q 754 383 717 440 q 792 250 792 325 q 749 113 792 175 q 619 15 706 51 q 410 -21 533 -21 m 375 1042 l 431 1250 l 611 1250 l 424 1042 l 375 1042 z "},"Š":{"ha":826,"x_min":49,"x_max":792,"o":"m 410 -21 q 225 24 311 -21 q 160 69 186 43 q 111 13 140 38 q 83 -7 86 -6 l 49 -7 l 49 257 l 104 257 q 163 135 125 189 q 382 14 247 14 q 508 61 461 14 q 556 188 556 108 q 528 269 556 233 q 461 333 501 306 q 349 403 421 361 q 200 496 257 454 q 103 601 143 538 q 63 750 63 664 q 101 873 63 818 q 215 960 139 928 q 403 993 292 993 q 564 947 483 993 q 625 903 594 931 q 674 960 649 939 q 701 979 699 978 l 736 979 l 736 715 l 681 715 q 626 836 663 782 q 544 924 593 889 q 431 958 494 958 q 338 915 376 958 q 299 806 299 872 q 328 713 299 754 q 402 642 358 672 q 521 568 446 611 q 663 479 608 518 q 754 383 717 440 q 792 250 792 325 q 749 113 792 175 q 619 15 706 51 q 410 -21 533 -21 m 213 1271 l 261 1271 l 414 1174 l 567 1271 l 615 1271 l 414 1042 l 213 1271 z "},"Ş":{"ha":826,"x_min":49,"x_max":792,"o":"m 792 250 q 751 117 792 178 q 631 20 711 57 q 435 -21 551 -17 l 435 -69 q 531 -100 494 -69 q 567 -174 567 -131 q 529 -248 567 -218 q 421 -278 492 -278 q 367 -275 397 -278 l 343 -271 l 343 -229 q 357 -236 351 -235 q 393 -243 374 -243 q 444 -224 425 -243 q 463 -174 463 -206 q 442 -123 463 -142 q 386 -104 422 -104 l 386 -21 q 225 24 304 -15 q 160 69 186 43 q 111 13 140 38 q 83 -7 86 -6 l 49 -7 l 49 257 l 104 257 q 163 135 125 189 q 382 14 247 14 q 508 61 461 14 q 556 188 556 108 q 528 269 556 233 q 461 333 501 306 q 349 403 421 361 q 200 496 257 454 q 103 601 143 538 q 63 750 63 664 q 101 873 63 818 q 215 960 139 928 q 403 993 292 993 q 564 947 483 993 q 625 903 594 931 q 674 960 649 939 q 701 979 699 978 l 736 979 l 736 715 l 681 715 q 626 836 663 782 q 544 924 593 889 q 431 958 494 958 q 338 915 376 958 q 299 806 299 872 q 328 713 299 754 q 402 642 358 672 q 521 568 446 611 q 663 479 608 518 q 754 383 717 440 q 792 250 792 325 z "},"Ŝ":{"ha":826,"x_min":49,"x_max":792,"o":"m 410 -21 q 225 24 311 -21 q 160 69 186 43 q 111 13 140 38 q 83 -7 86 -6 l 49 -7 l 49 257 l 104 257 q 163 135 125 189 q 382 14 247 14 q 508 61 461 14 q 556 188 556 108 q 528 269 556 233 q 461 333 501 306 q 349 403 421 361 q 200 496 257 454 q 103 601 143 538 q 63 750 63 664 q 101 873 63 818 q 215 960 139 928 q 403 993 292 993 q 564 947 483 993 q 625 903 594 931 q 674 960 649 939 q 701 979 699 978 l 736 979 l 736 715 l 681 715 q 626 836 663 782 q 544 924 593 889 q 431 958 494 958 q 338 915 376 958 q 299 806 299 872 q 328 713 299 754 q 402 642 358 672 q 521 568 446 611 q 663 479 608 518 q 754 383 717 440 q 792 250 792 325 q 749 113 792 175 q 619 15 706 51 q 410 -21 533 -21 m 213 1042 l 414 1271 l 615 1042 l 567 1042 l 414 1139 l 261 1042 l 213 1042 z "},"Ș":{"ha":826,"x_min":49,"x_max":792,"o":"m 410 -21 q 225 24 311 -21 q 160 69 186 43 q 111 13 140 38 q 83 -7 86 -6 l 49 -7 l 49 257 l 104 257 q 163 135 125 189 q 382 14 247 14 q 508 61 461 14 q 556 188 556 108 q 528 269 556 233 q 461 333 501 306 q 349 403 421 361 q 200 496 257 454 q 103 601 143 538 q 63 750 63 664 q 101 873 63 818 q 215 960 139 928 q 403 993 292 993 q 564 947 483 993 q 625 903 594 931 q 674 960 649 939 q 701 979 699 978 l 736 979 l 736 715 l 681 715 q 626 836 663 782 q 544 924 593 889 q 431 958 494 958 q 338 915 376 958 q 299 806 299 872 q 328 713 299 754 q 402 642 358 672 q 521 568 446 611 q 663 479 608 518 q 754 383 717 440 q 792 250 792 325 q 749 113 792 175 q 619 15 706 51 q 410 -21 533 -21 m 347 -403 q 399 -372 374 -393 q 465 -257 451 -328 q 457 -263 461 -261 q 450 -268 453 -265 q 410 -278 438 -278 q 340 -250 368 -278 q 313 -181 313 -222 q 340 -111 313 -139 q 410 -83 368 -83 q 486 -114 458 -83 q 514 -201 514 -144 q 492 -309 514 -264 q 438 -383 471 -354 q 361 -431 403 -414 l 347 -403 z "},"T":{"ha":882,"x_min":35,"x_max":847,"o":"m 243 21 l 326 42 l 326 938 l 167 938 q 121 775 167 853 q 76 722 101 743 l 35 722 l 35 972 l 847 972 l 847 722 l 806 722 q 760 775 779 743 q 715 938 715 850 l 556 938 l 556 42 l 639 21 l 639 0 l 243 0 l 243 21 z "},"Ť":{"ha":882,"x_min":35,"x_max":847,"o":"m 243 21 l 326 42 l 326 938 l 167 938 q 121 775 167 853 q 76 722 101 743 l 35 722 l 35 972 l 847 972 l 847 722 l 806 722 q 760 775 779 743 q 715 938 715 850 l 556 938 l 556 42 l 639 21 l 639 0 l 243 0 l 243 21 m 240 1271 l 289 1271 l 442 1174 l 594 1271 l 643 1271 l 442 1042 l 240 1271 z "},"Ț":{"ha":882,"x_min":35,"x_max":847,"o":"m 243 21 l 326 42 l 326 938 l 167 938 q 121 775 167 853 q 76 722 101 743 l 35 722 l 35 972 l 847 972 l 847 722 l 806 722 q 760 775 779 743 q 715 938 715 850 l 556 938 l 556 42 l 639 21 l 639 0 l 243 0 l 243 21 m 375 -403 q 426 -372 401 -393 q 493 -257 479 -328 q 485 -263 489 -261 q 478 -268 481 -265 q 438 -278 465 -278 q 368 -250 396 -278 q 340 -181 340 -222 q 368 -111 340 -139 q 438 -83 396 -83 q 514 -114 486 -83 q 542 -201 542 -144 q 520 -309 542 -264 q 465 -383 499 -354 q 389 -431 431 -414 l 375 -403 z "},"U":{"ha":986,"x_min":49,"x_max":979,"o":"m 549 -21 q 238 76 343 -21 q 132 347 132 172 l 132 931 l 49 951 l 49 972 l 444 972 l 444 951 l 361 931 l 361 347 q 417 91 361 168 q 576 14 472 14 q 698 55 640 14 q 791 172 756 96 q 826 347 826 247 l 826 910 l 715 951 l 715 972 l 979 972 l 979 951 l 868 910 l 868 347 q 826 151 868 235 q 713 24 785 68 q 549 -21 640 -21 z "},"Ú":{"ha":986,"x_min":49,"x_max":979,"o":"m 549 -21 q 238 76 343 -21 q 132 347 132 172 l 132 931 l 49 951 l 49 972 l 444 972 l 444 951 l 361 931 l 361 347 q 417 91 361 168 q 576 14 472 14 q 698 55 640 14 q 791 172 756 96 q 826 347 826 247 l 826 910 l 715 951 l 715 972 l 979 972 l 979 951 l 868 910 l 868 347 q 826 151 868 235 q 713 24 785 68 q 549 -21 640 -21 m 538 1042 l 593 1250 l 774 1250 l 586 1042 l 538 1042 z "},"Ŭ":{"ha":986,"x_min":49,"x_max":979,"o":"m 549 -21 q 238 76 343 -21 q 132 347 132 172 l 132 931 l 49 951 l 49 972 l 444 972 l 444 951 l 361 931 l 361 347 q 417 91 361 168 q 576 14 472 14 q 698 55 640 14 q 791 172 756 96 q 826 347 826 247 l 826 910 l 715 951 l 715 972 l 979 972 l 979 951 l 868 910 l 868 347 q 826 151 868 235 q 713 24 785 68 q 549 -21 640 -21 m 576 1042 q 419 1075 469 1042 q 368 1160 368 1108 q 392 1219 368 1196 q 451 1243 415 1243 q 483 1239 454 1243 l 500 1236 l 500 1083 q 520 1076 501 1083 q 576 1069 539 1069 q 633 1076 614 1069 q 653 1083 651 1083 l 653 1236 l 669 1239 q 701 1243 699 1243 q 761 1219 738 1243 q 785 1160 785 1196 q 734 1075 785 1108 q 576 1042 683 1042 z "},"Û":{"ha":986,"x_min":49,"x_max":979,"o":"m 549 -21 q 238 76 343 -21 q 132 347 132 172 l 132 931 l 49 951 l 49 972 l 444 972 l 444 951 l 361 931 l 361 347 q 417 91 361 168 q 576 14 472 14 q 698 55 640 14 q 791 172 756 96 q 826 347 826 247 l 826 910 l 715 951 l 715 972 l 979 972 l 979 951 l 868 910 l 868 347 q 826 151 868 235 q 713 24 785 68 q 549 -21 640 -21 m 375 1042 l 576 1271 l 778 1042 l 729 1042 l 576 1139 l 424 1042 l 375 1042 z "},"Ü":{"ha":986,"x_min":49,"x_max":979,"o":"m 549 -21 q 238 76 343 -21 q 132 347 132 172 l 132 931 l 49 951 l 49 972 l 444 972 l 444 951 l 361 931 l 361 347 q 417 91 361 168 q 576 14 472 14 q 698 55 640 14 q 791 172 756 96 q 826 347 826 247 l 826 910 l 715 951 l 715 972 l 979 972 l 979 951 l 868 910 l 868 347 q 826 151 868 235 q 713 24 785 68 q 549 -21 640 -21 m 447 1056 q 378 1083 406 1056 q 350 1153 350 1111 q 378 1222 350 1194 q 447 1250 406 1250 q 517 1222 489 1250 q 544 1153 544 1194 q 517 1083 544 1111 q 447 1056 489 1056 m 704 1056 q 635 1083 663 1056 q 607 1153 607 1111 q 635 1222 607 1194 q 704 1250 663 1250 q 774 1222 746 1250 q 801 1153 801 1194 q 774 1083 801 1111 q 704 1056 746 1056 z "},"Ụ":{"ha":986,"x_min":49,"x_max":979,"o":"m 549 -21 q 238 76 343 -21 q 132 347 132 172 l 132 931 l 49 951 l 49 972 l 444 972 l 444 951 l 361 931 l 361 347 q 417 91 361 168 q 576 14 472 14 q 698 55 640 14 q 791 172 756 96 q 826 347 826 247 l 826 910 l 715 951 l 715 972 l 979 972 l 979 951 l 868 910 l 868 347 q 826 151 868 235 q 713 24 785 68 q 549 -21 640 -21 m 549 -214 q 503 -195 522 -214 q 485 -150 485 -176 q 503 -104 485 -124 q 549 -85 522 -85 q 594 -104 575 -85 q 614 -150 614 -124 q 594 -195 614 -176 q 549 -214 575 -214 z "},"Ù":{"ha":986,"x_min":49,"x_max":979,"o":"m 549 -21 q 238 76 343 -21 q 132 347 132 172 l 132 931 l 49 951 l 49 972 l 444 972 l 444 951 l 361 931 l 361 347 q 417 91 361 168 q 576 14 472 14 q 698 55 640 14 q 791 172 756 96 q 826 347 826 247 l 826 910 l 715 951 l 715 972 l 979 972 l 979 951 l 868 910 l 868 347 q 826 151 868 235 q 713 24 785 68 q 549 -21 640 -21 m 561 1042 l 374 1250 l 554 1250 l 610 1042 l 561 1042 z "},"Ủ":{"ha":986,"x_min":49,"x_max":979,"o":"m 549 -21 q 238 76 343 -21 q 132 347 132 172 l 132 931 l 49 951 l 49 972 l 444 972 l 444 951 l 361 931 l 361 347 q 417 91 361 168 q 576 14 472 14 q 698 55 640 14 q 791 172 756 96 q 826 347 826 247 l 826 910 l 715 951 l 715 972 l 979 972 l 979 951 l 868 910 l 868 347 q 826 151 868 235 q 713 24 785 68 q 549 -21 640 -21 m 553 1142 q 598 1175 582 1153 q 614 1239 614 1197 q 597 1305 614 1285 q 546 1325 581 1325 q 518 1321 539 1325 l 507 1318 l 507 1240 l 501 1239 l 497 1239 q 426 1275 426 1239 q 556 1351 426 1351 q 725 1239 725 1351 q 691 1172 725 1199 q 596 1135 657 1144 l 593 1096 l 556 1096 l 553 1142 z "},"Ư":{"ha":986,"x_min":49,"x_max":1076,"o":"m 1076 1061 q 1029 974 1076 1004 q 868 940 982 943 l 868 347 q 826 151 868 235 q 713 24 785 68 q 549 -21 640 -21 q 238 76 343 -21 q 132 347 132 172 l 132 931 l 49 951 l 49 972 l 444 972 l 444 951 l 361 931 l 361 347 q 417 91 361 168 q 576 14 472 14 q 698 55 640 14 q 791 172 756 96 q 826 347 826 247 l 826 910 l 715 951 l 715 972 l 868 972 l 868 969 q 919 975 904 972 l 960 981 l 960 1157 l 976 1161 q 1015 1164 986 1164 q 1060 1136 1043 1164 q 1076 1061 1076 1108 z "},"Ứ":{"ha":986,"x_min":49,"x_max":1076,"o":"m 1076 1061 q 1029 974 1076 1004 q 868 940 982 943 l 868 347 q 826 151 868 235 q 713 24 785 68 q 549 -21 640 -21 q 238 76 343 -21 q 132 347 132 172 l 132 931 l 49 951 l 49 972 l 444 972 l 444 951 l 361 931 l 361 347 q 417 91 361 168 q 576 14 472 14 q 698 55 640 14 q 791 172 756 96 q 826 347 826 247 l 826 910 l 715 951 l 715 972 l 868 972 l 868 969 q 919 975 904 972 l 960 981 l 960 1157 l 976 1161 q 1015 1164 986 1164 q 1060 1136 1043 1164 q 1076 1061 1076 1108 m 538 1042 l 593 1250 l 774 1250 l 586 1042 l 538 1042 z "},"Ự":{"ha":986,"x_min":49,"x_max":1076,"o":"m 1076 1061 q 1029 974 1076 1004 q 868 940 982 943 l 868 347 q 826 151 868 235 q 713 24 785 68 q 549 -21 640 -21 q 238 76 343 -21 q 132 347 132 172 l 132 931 l 49 951 l 49 972 l 444 972 l 444 951 l 361 931 l 361 347 q 417 91 361 168 q 576 14 472 14 q 698 55 640 14 q 791 172 756 96 q 826 347 826 247 l 826 910 l 715 951 l 715 972 l 868 972 l 868 969 q 919 975 904 972 l 960 981 l 960 1157 l 976 1161 q 1015 1164 986 1164 q 1060 1136 1043 1164 q 1076 1061 1076 1108 m 549 -214 q 503 -195 522 -214 q 485 -150 485 -176 q 503 -104 485 -124 q 549 -85 522 -85 q 594 -104 575 -85 q 614 -150 614 -124 q 594 -195 614 -176 q 549 -214 575 -214 z "},"Ừ":{"ha":986,"x_min":49,"x_max":1076,"o":"m 1076 1061 q 1029 974 1076 1004 q 868 940 982 943 l 868 347 q 826 151 868 235 q 713 24 785 68 q 549 -21 640 -21 q 238 76 343 -21 q 132 347 132 172 l 132 931 l 49 951 l 49 972 l 444 972 l 444 951 l 361 931 l 361 347 q 417 91 361 168 q 576 14 472 14 q 698 55 640 14 q 791 172 756 96 q 826 347 826 247 l 826 910 l 715 951 l 715 972 l 868 972 l 868 969 q 919 975 904 972 l 960 981 l 960 1157 l 976 1161 q 1015 1164 986 1164 q 1060 1136 1043 1164 q 1076 1061 1076 1108 m 561 1042 l 374 1250 l 554 1250 l 610 1042 l 561 1042 z "},"Ử":{"ha":986,"x_min":49,"x_max":1076,"o":"m 1076 1061 q 1029 974 1076 1004 q 868 940 982 943 l 868 347 q 826 151 868 235 q 713 24 785 68 q 549 -21 640 -21 q 238 76 343 -21 q 132 347 132 172 l 132 931 l 49 951 l 49 972 l 444 972 l 444 951 l 361 931 l 361 347 q 417 91 361 168 q 576 14 472 14 q 698 55 640 14 q 791 172 756 96 q 826 347 826 247 l 826 910 l 715 951 l 715 972 l 868 972 l 868 969 q 919 975 904 972 l 960 981 l 960 1157 l 976 1161 q 1015 1164 986 1164 q 1060 1136 1043 1164 q 1076 1061 1076 1108 m 553 1142 q 598 1175 582 1153 q 614 1239 614 1197 q 597 1305 614 1285 q 546 1325 581 1325 q 518 1321 539 1325 l 507 1318 l 507 1240 l 501 1239 l 497 1239 q 426 1275 426 1239 q 556 1351 426 1351 q 725 1239 725 1351 q 691 1172 725 1199 q 596 1135 657 1144 l 593 1096 l 556 1096 l 553 1142 z "},"Ữ":{"ha":986,"x_min":49,"x_max":1076,"o":"m 1076 1061 q 1029 974 1076 1004 q 868 940 982 943 l 868 347 q 826 151 868 235 q 713 24 785 68 q 549 -21 640 -21 q 238 76 343 -21 q 132 347 132 172 l 132 931 l 49 951 l 49 972 l 444 972 l 444 951 l 361 931 l 361 347 q 417 91 361 168 q 576 14 472 14 q 698 55 640 14 q 791 172 756 96 q 826 347 826 247 l 826 910 l 715 951 l 715 972 l 868 972 l 868 969 q 919 975 904 972 l 960 981 l 960 1157 l 976 1161 q 1015 1164 986 1164 q 1060 1136 1043 1164 q 1076 1061 1076 1108 m 642 1083 q 589 1094 611 1083 q 540 1124 567 1104 q 506 1146 521 1139 q 475 1153 492 1153 q 431 1135 449 1153 q 413 1090 413 1117 l 385 1090 q 417 1210 385 1171 q 510 1250 450 1250 q 563 1240 540 1250 q 611 1210 585 1229 q 645 1188 631 1196 q 676 1181 660 1181 q 721 1199 703 1181 q 739 1243 739 1217 l 767 1243 q 734 1123 767 1163 q 642 1083 701 1083 z "},"Ű":{"ha":986,"x_min":49,"x_max":979,"o":"m 549 -21 q 238 76 343 -21 q 132 347 132 172 l 132 931 l 49 951 l 49 972 l 444 972 l 444 951 l 361 931 l 361 347 q 417 91 361 168 q 576 14 472 14 q 698 55 640 14 q 791 172 756 96 q 826 347 826 247 l 826 910 l 715 951 l 715 972 l 979 972 l 979 951 l 868 910 l 868 347 q 826 151 868 235 q 713 24 785 68 q 549 -21 640 -21 m 457 1042 l 519 1250 l 658 1250 l 506 1042 l 457 1042 m 638 1042 l 700 1250 l 839 1250 l 686 1042 l 638 1042 z "},"Ū":{"ha":986,"x_min":49,"x_max":979,"o":"m 549 -21 q 238 76 343 -21 q 132 347 132 172 l 132 931 l 49 951 l 49 972 l 444 972 l 444 951 l 361 931 l 361 347 q 417 91 361 168 q 576 14 472 14 q 698 55 640 14 q 791 172 756 96 q 826 347 826 247 l 826 910 l 715 951 l 715 972 l 979 972 l 979 951 l 868 910 l 868 347 q 826 151 868 235 q 713 24 785 68 q 549 -21 640 -21 m 396 1188 l 396 1250 l 757 1250 l 757 1188 l 396 1188 z "},"Ų":{"ha":986,"x_min":49,"x_max":979,"o":"m 979 972 l 979 951 l 868 910 l 868 347 q 818 135 868 224 q 682 7 768 47 q 628 -29 656 -7 q 563 -160 563 -86 q 618 -215 563 -215 q 663 -201 640 -215 q 681 -187 674 -194 l 681 -229 q 656 -240 678 -231 q 590 -250 631 -250 q 482 -220 519 -250 q 444 -146 444 -190 q 538 -22 444 -72 l 540 -21 q 235 78 339 -19 q 132 347 132 175 l 132 931 l 49 951 l 49 972 l 444 972 l 444 951 l 361 931 l 361 347 q 417 91 361 168 q 576 14 472 14 q 698 55 640 14 q 791 172 756 96 q 826 347 826 247 l 826 910 l 715 951 l 715 972 l 979 972 z "},"Ů":{"ha":986,"x_min":49,"x_max":979,"o":"m 549 -21 q 238 76 343 -21 q 132 347 132 172 l 132 931 l 49 951 l 49 972 l 444 972 l 444 951 l 361 931 l 361 347 q 417 91 361 168 q 576 14 472 14 q 698 55 640 14 q 791 172 756 96 q 826 347 826 247 l 826 910 l 715 951 l 715 972 l 979 972 l 979 951 l 868 910 l 868 347 q 826 151 868 235 q 713 24 785 68 q 549 -21 640 -21 m 576 1042 q 472 1082 514 1042 q 431 1181 431 1122 q 472 1279 431 1239 q 576 1319 514 1319 q 681 1279 639 1319 q 722 1181 722 1239 q 681 1082 722 1122 q 576 1042 639 1042 m 576 1090 q 631 1115 610 1090 q 653 1181 653 1140 q 631 1246 653 1221 q 576 1271 610 1271 q 522 1246 543 1271 q 500 1181 500 1221 q 522 1115 500 1140 q 576 1090 543 1090 z "},"Ũ":{"ha":986,"x_min":49,"x_max":979,"o":"m 549 -21 q 238 76 343 -21 q 132 347 132 172 l 132 931 l 49 951 l 49 972 l 444 972 l 444 951 l 361 931 l 361 347 q 417 91 361 168 q 576 14 472 14 q 698 55 640 14 q 791 172 756 96 q 826 347 826 247 l 826 910 l 715 951 l 715 972 l 979 972 l 979 951 l 868 910 l 868 347 q 826 151 868 235 q 713 24 785 68 q 549 -21 640 -21 m 642 1083 q 589 1094 611 1083 q 540 1124 567 1104 q 506 1146 521 1139 q 475 1153 492 1153 q 431 1135 449 1153 q 413 1090 413 1117 l 385 1090 q 417 1210 385 1171 q 510 1250 450 1250 q 563 1240 540 1250 q 611 1210 585 1229 q 645 1188 631 1196 q 676 1181 660 1181 q 721 1199 703 1181 q 739 1243 739 1217 l 767 1243 q 734 1123 767 1163 q 642 1083 701 1083 z "},"V":{"ha":924,"x_min":-28,"x_max":951,"o":"m 42 931 l -28 951 l -28 972 l 139 972 q 257 940 211 972 q 326 854 303 907 l 572 294 l 799 910 l 694 951 l 694 972 l 951 972 l 951 951 l 840 910 l 500 -14 l 458 -14 l 42 931 z "},"W":{"ha":1368,"x_min":-28,"x_max":1396,"o":"m 49 938 l -28 951 l -28 972 l 139 972 q 260 939 213 972 q 326 854 307 906 l 536 319 l 658 678 l 556 938 l 479 951 l 479 972 l 646 972 q 765 940 719 972 q 833 854 811 907 l 1043 319 l 1243 910 l 1139 951 l 1139 972 l 1396 972 l 1396 951 l 1285 910 l 972 -14 l 931 -14 l 681 621 l 465 -14 l 424 -14 l 49 938 z "},"Ẃ":{"ha":1368,"x_min":-28,"x_max":1396,"o":"m 49 938 l -28 951 l -28 972 l 139 972 q 260 939 213 972 q 326 854 307 906 l 536 319 l 658 678 l 556 938 l 479 951 l 479 972 l 646 972 q 765 940 719 972 q 833 854 811 907 l 1043 319 l 1243 910 l 1139 951 l 1139 972 l 1396 972 l 1396 951 l 1285 910 l 972 -14 l 931 -14 l 681 621 l 465 -14 l 424 -14 l 49 938 m 646 1042 l 701 1250 l 882 1250 l 694 1042 l 646 1042 z "},"Ŵ":{"ha":1368,"x_min":-28,"x_max":1396,"o":"m 49 938 l -28 951 l -28 972 l 139 972 q 260 939 213 972 q 326 854 307 906 l 536 319 l 658 678 l 556 938 l 479 951 l 479 972 l 646 972 q 765 940 719 972 q 833 854 811 907 l 1043 319 l 1243 910 l 1139 951 l 1139 972 l 1396 972 l 1396 951 l 1285 910 l 972 -14 l 931 -14 l 681 621 l 465 -14 l 424 -14 l 49 938 m 483 1042 l 685 1271 l 886 1042 l 838 1042 l 685 1139 l 532 1042 l 483 1042 z "},"Ẅ":{"ha":1368,"x_min":-28,"x_max":1396,"o":"m 49 938 l -28 951 l -28 972 l 139 972 q 260 939 213 972 q 326 854 307 906 l 536 319 l 658 678 l 556 938 l 479 951 l 479 972 l 646 972 q 765 940 719 972 q 833 854 811 907 l 1043 319 l 1243 910 l 1139 951 l 1139 972 l 1396 972 l 1396 951 l 1285 910 l 972 -14 l 931 -14 l 681 621 l 465 -14 l 424 -14 l 49 938 m 556 1056 q 486 1083 514 1056 q 458 1153 458 1111 q 486 1222 458 1194 q 556 1250 514 1250 q 625 1222 597 1250 q 653 1153 653 1194 q 625 1083 653 1111 q 556 1056 597 1056 m 813 1056 q 743 1083 771 1056 q 715 1153 715 1111 q 743 1222 715 1194 q 813 1250 771 1250 q 882 1222 854 1250 q 910 1153 910 1194 q 882 1083 910 1111 q 813 1056 854 1056 z "},"Ẁ":{"ha":1368,"x_min":-28,"x_max":1396,"o":"m 49 938 l -28 951 l -28 972 l 139 972 q 260 939 213 972 q 326 854 307 906 l 536 319 l 658 678 l 556 938 l 479 951 l 479 972 l 646 972 q 765 940 719 972 q 833 854 811 907 l 1043 319 l 1243 910 l 1139 951 l 1139 972 l 1396 972 l 1396 951 l 1285 910 l 972 -14 l 931 -14 l 681 621 l 465 -14 l 424 -14 l 49 938 m 669 1042 l 482 1250 l 663 1250 l 718 1042 l 669 1042 z "},"X":{"ha":924,"x_min":-7,"x_max":931,"o":"m 21 21 l 132 63 l 368 411 l 63 931 l -7 951 l -7 972 l 194 972 q 305 943 264 972 q 382 854 346 914 l 515 626 l 708 910 l 604 951 l 604 972 l 868 972 l 868 951 l 757 910 l 539 589 l 861 42 l 931 21 l 931 0 l 729 0 q 619 29 661 0 q 542 118 578 58 l 392 372 l 181 63 l 285 21 l 285 0 l 21 0 l 21 21 z "},"Y":{"ha":924,"x_min":0,"x_max":938,"o":"m 271 21 l 354 42 l 354 361 l 69 931 l 0 951 l 0 972 l 174 972 q 290 942 246 972 q 361 854 333 911 l 567 444 l 778 910 l 674 951 l 674 972 l 938 972 l 938 951 l 826 910 l 583 375 l 583 42 l 667 21 l 667 0 l 271 0 l 271 21 z "},"Ý":{"ha":924,"x_min":0,"x_max":938,"o":"m 271 21 l 354 42 l 354 361 l 69 931 l 0 951 l 0 972 l 174 972 q 290 942 246 972 q 361 854 333 911 l 567 444 l 778 910 l 674 951 l 674 972 l 938 972 l 938 951 l 826 910 l 583 375 l 583 42 l 667 21 l 667 0 l 271 0 l 271 21 m 424 1042 l 479 1250 l 660 1250 l 472 1042 l 424 1042 z "},"Ŷ":{"ha":924,"x_min":0,"x_max":938,"o":"m 271 21 l 354 42 l 354 361 l 69 931 l 0 951 l 0 972 l 174 972 q 290 942 246 972 q 361 854 333 911 l 567 444 l 778 910 l 674 951 l 674 972 l 938 972 l 938 951 l 826 910 l 583 375 l 583 42 l 667 21 l 667 0 l 271 0 l 271 21 m 261 1042 l 463 1271 l 664 1042 l 615 1042 l 463 1139 l 310 1042 l 261 1042 z "},"Ÿ":{"ha":924,"x_min":0,"x_max":938,"o":"m 271 21 l 354 42 l 354 361 l 69 931 l 0 951 l 0 972 l 174 972 q 290 942 246 972 q 361 854 333 911 l 567 444 l 778 910 l 674 951 l 674 972 l 938 972 l 938 951 l 826 910 l 583 375 l 583 42 l 667 21 l 667 0 l 271 0 l 271 21 m 333 1056 q 264 1083 292 1056 q 236 1153 236 1111 q 264 1222 236 1194 q 333 1250 292 1250 q 403 1222 375 1250 q 431 1153 431 1194 q 403 1083 431 1111 q 333 1056 375 1056 m 590 1056 q 521 1083 549 1056 q 493 1153 493 1111 q 521 1222 493 1194 q 590 1250 549 1250 q 660 1222 632 1250 q 688 1153 688 1194 q 660 1083 688 1111 q 590 1056 632 1056 z "},"Ỵ":{"ha":924,"x_min":0,"x_max":938,"o":"m 271 21 l 354 42 l 354 361 l 69 931 l 0 951 l 0 972 l 174 972 q 290 942 246 972 q 361 854 333 911 l 567 444 l 778 910 l 674 951 l 674 972 l 938 972 l 938 951 l 826 910 l 583 375 l 583 42 l 667 21 l 667 0 l 271 0 l 271 21 m 463 -214 q 417 -195 436 -214 q 399 -150 399 -176 q 417 -104 399 -124 q 463 -85 436 -85 q 508 -104 489 -85 q 528 -150 528 -124 q 508 -195 528 -176 q 463 -214 489 -214 z "},"Ỳ":{"ha":924,"x_min":0,"x_max":938,"o":"m 271 21 l 354 42 l 354 361 l 69 931 l 0 951 l 0 972 l 174 972 q 290 942 246 972 q 361 854 333 911 l 567 444 l 778 910 l 674 951 l 674 972 l 938 972 l 938 951 l 826 910 l 583 375 l 583 42 l 667 21 l 667 0 l 271 0 l 271 21 m 447 1042 l 260 1250 l 440 1250 l 496 1042 l 447 1042 z "},"Ỷ":{"ha":924,"x_min":0,"x_max":938,"o":"m 271 21 l 354 42 l 354 361 l 69 931 l 0 951 l 0 972 l 174 972 q 290 942 246 972 q 361 854 333 911 l 567 444 l 778 910 l 674 951 l 674 972 l 938 972 l 938 951 l 826 910 l 583 375 l 583 42 l 667 21 l 667 0 l 271 0 l 271 21 m 439 1142 q 484 1175 468 1153 q 500 1239 500 1197 q 483 1305 500 1285 q 432 1325 467 1325 q 404 1321 425 1325 l 393 1318 l 393 1240 l 388 1239 l 383 1239 q 313 1275 313 1239 q 442 1351 313 1351 q 611 1239 611 1351 q 577 1172 611 1199 q 482 1135 543 1144 l 479 1096 l 442 1096 l 439 1142 z "},"Ỹ":{"ha":924,"x_min":0,"x_max":938,"o":"m 271 21 l 354 42 l 354 361 l 69 931 l 0 951 l 0 972 l 174 972 q 290 942 246 972 q 361 854 333 911 l 567 444 l 778 910 l 674 951 l 674 972 l 938 972 l 938 951 l 826 910 l 583 375 l 583 42 l 667 21 l 667 0 l 271 0 l 271 21 m 528 1083 q 475 1094 497 1083 q 426 1124 453 1104 q 392 1146 407 1139 q 361 1153 378 1153 q 317 1135 335 1153 q 299 1090 299 1117 l 271 1090 q 303 1210 271 1171 q 396 1250 336 1250 q 449 1240 426 1250 q 497 1210 471 1229 q 531 1188 517 1196 q 563 1181 546 1181 q 607 1199 589 1181 q 625 1243 625 1217 l 653 1243 q 620 1123 653 1163 q 528 1083 588 1083 z "},"Z":{"ha":882,"x_min":56,"x_max":826,"o":"m 56 35 l 571 938 l 208 938 q 163 775 208 853 q 118 722 143 743 l 76 722 l 76 972 l 826 972 l 826 938 l 313 35 l 688 35 q 732 197 688 122 q 778 250 751 229 l 819 250 l 819 0 l 56 0 l 56 35 z "},"Ź":{"ha":882,"x_min":56,"x_max":826,"o":"m 56 35 l 571 938 l 208 938 q 163 775 208 853 q 118 722 143 743 l 76 722 l 76 972 l 826 972 l 826 938 l 313 35 l 688 35 q 732 197 688 122 q 778 250 751 229 l 819 250 l 819 0 l 56 0 l 56 35 m 403 1042 l 458 1250 l 639 1250 l 451 1042 l 403 1042 z "},"Ž":{"ha":882,"x_min":56,"x_max":826,"o":"m 56 35 l 571 938 l 208 938 q 163 775 208 853 q 118 722 143 743 l 76 722 l 76 972 l 826 972 l 826 938 l 313 35 l 688 35 q 732 197 688 122 q 778 250 751 229 l 819 250 l 819 0 l 56 0 l 56 35 m 240 1271 l 289 1271 l 442 1174 l 594 1271 l 643 1271 l 442 1042 l 240 1271 z "},"Ż":{"ha":882,"x_min":56,"x_max":826,"o":"m 56 35 l 571 938 l 208 938 q 163 775 208 853 q 118 722 143 743 l 76 722 l 76 972 l 826 972 l 826 938 l 313 35 l 688 35 q 732 197 688 122 q 778 250 751 229 l 819 250 l 819 0 l 56 0 l 56 35 m 442 1056 q 372 1083 400 1056 q 344 1153 344 1111 q 372 1222 344 1194 q 442 1250 400 1250 q 511 1222 483 1250 q 539 1153 539 1194 q 511 1083 539 1111 q 442 1056 483 1056 z "},"a":{"ha":840,"x_min":69,"x_max":813,"o":"m 326 -21 q 136 32 203 -21 q 69 167 69 85 q 93 274 69 221 q 118 319 103 299 q 242 344 175 333 q 507 375 392 369 l 507 417 q 469 629 507 571 q 354 688 432 688 q 304 681 325 688 l 285 674 l 285 465 l 267 461 q 229 458 244 458 q 153 487 182 458 q 125 563 125 515 q 190 671 125 626 q 382 715 254 715 q 569 677 490 715 q 688 572 647 639 q 729 417 729 504 l 729 42 l 813 21 l 813 0 l 688 0 q 558 51 604 0 q 528 104 539 72 q 482 42 508 69 q 326 -21 419 -21 m 382 28 q 475 83 433 28 q 507 139 490 104 l 507 340 q 385 333 443 340 q 326 326 342 328 q 313 285 319 311 q 299 181 299 232 q 322 65 299 103 q 382 28 346 28 z "},"á":{"ha":840,"x_min":69,"x_max":813,"o":"m 326 -21 q 136 32 203 -21 q 69 167 69 85 q 93 274 69 221 q 118 319 103 299 q 242 344 175 333 q 507 375 392 369 l 507 417 q 469 629 507 571 q 354 688 432 688 q 304 681 325 688 l 285 674 l 285 465 l 267 461 q 229 458 244 458 q 153 487 182 458 q 125 563 125 515 q 190 671 125 626 q 382 715 254 715 q 569 677 490 715 q 688 572 647 639 q 729 417 729 504 l 729 42 l 813 21 l 813 0 l 688 0 q 558 51 604 0 q 528 104 539 72 q 482 42 508 69 q 326 -21 419 -21 m 382 28 q 475 83 433 28 q 507 139 490 104 l 507 340 q 385 333 443 340 q 326 326 342 328 q 313 285 319 311 q 299 181 299 232 q 322 65 299 103 q 382 28 346 28 m 382 764 l 438 972 l 618 972 l 431 764 l 382 764 z "},"ă":{"ha":840,"x_min":69,"x_max":813,"o":"m 326 -21 q 136 32 203 -21 q 69 167 69 85 q 93 274 69 221 q 118 319 103 299 q 242 344 175 333 q 507 375 392 369 l 507 417 q 469 629 507 571 q 354 688 432 688 q 304 681 325 688 l 285 674 l 285 465 l 267 461 q 229 458 244 458 q 153 487 182 458 q 125 563 125 515 q 190 671 125 626 q 382 715 254 715 q 569 677 490 715 q 688 572 647 639 q 729 417 729 504 l 729 42 l 813 21 l 813 0 l 688 0 q 558 51 604 0 q 528 104 539 72 q 482 42 508 69 q 326 -21 419 -21 m 382 28 q 475 83 433 28 q 507 139 490 104 l 507 340 q 385 333 443 340 q 326 326 342 328 q 313 285 319 311 q 299 181 299 232 q 322 65 299 103 q 382 28 346 28 m 421 764 q 263 797 314 764 q 213 882 213 831 q 236 942 213 918 q 296 965 260 965 q 328 961 299 965 l 344 958 l 344 806 q 365 799 346 806 q 421 792 383 792 q 477 799 458 792 q 497 806 496 806 l 497 958 l 514 961 q 546 965 543 965 q 606 942 582 965 q 629 882 629 918 q 578 797 629 831 q 421 764 528 764 z "},"ắ":{"ha":840,"x_min":69,"x_max":813,"o":"m 326 -21 q 136 32 203 -21 q 69 167 69 85 q 93 274 69 221 q 118 319 103 299 q 242 344 175 333 q 507 375 392 369 l 507 417 q 469 629 507 571 q 354 688 432 688 q 304 681 325 688 l 285 674 l 285 465 l 267 461 q 229 458 244 458 q 153 487 182 458 q 125 563 125 515 q 190 671 125 626 q 382 715 254 715 q 569 677 490 715 q 688 572 647 639 q 729 417 729 504 l 729 42 l 813 21 l 813 0 l 688 0 q 558 51 604 0 q 528 104 539 72 q 482 42 508 69 q 326 -21 419 -21 m 382 28 q 475 83 433 28 q 507 139 490 104 l 507 340 q 385 333 443 340 q 326 326 342 328 q 313 285 319 311 q 299 181 299 232 q 322 65 299 103 q 382 28 346 28 m 421 764 q 263 797 314 764 q 213 882 213 831 q 236 942 213 918 q 296 965 260 965 q 328 961 299 965 l 344 958 l 344 806 q 365 799 346 806 q 421 792 383 792 q 477 799 458 792 q 497 806 496 806 l 497 958 l 514 961 q 546 965 543 965 q 606 942 582 965 q 629 882 629 918 q 578 797 629 831 q 421 764 528 764 m 390 972 l 446 1181 l 626 1181 l 439 972 l 390 972 z "},"ặ":{"ha":840,"x_min":69,"x_max":813,"o":"m 326 -21 q 136 32 203 -21 q 69 167 69 85 q 93 274 69 221 q 118 319 103 299 q 242 344 175 333 q 507 375 392 369 l 507 417 q 469 629 507 571 q 354 688 432 688 q 304 681 325 688 l 285 674 l 285 465 l 267 461 q 229 458 244 458 q 153 487 182 458 q 125 563 125 515 q 190 671 125 626 q 382 715 254 715 q 569 677 490 715 q 688 572 647 639 q 729 417 729 504 l 729 42 l 813 21 l 813 0 l 688 0 q 558 51 604 0 q 528 104 539 72 q 482 42 508 69 q 326 -21 419 -21 m 382 28 q 475 83 433 28 q 507 139 490 104 l 507 340 q 385 333 443 340 q 326 326 342 328 q 313 285 319 311 q 299 181 299 232 q 322 65 299 103 q 382 28 346 28 m 393 -214 q 348 -195 367 -214 q 329 -150 329 -176 q 348 -104 329 -124 q 393 -85 367 -85 q 439 -104 419 -85 q 458 -150 458 -124 q 439 -195 458 -176 q 393 -214 419 -214 m 421 764 q 263 797 314 764 q 213 882 213 831 q 236 942 213 918 q 296 965 260 965 q 328 961 299 965 l 344 958 l 344 806 q 365 799 346 806 q 421 792 383 792 q 477 799 458 792 q 497 806 496 806 l 497 958 l 514 961 q 546 965 543 965 q 606 942 582 965 q 629 882 629 918 q 578 797 629 831 q 421 764 528 764 z "},"ằ":{"ha":840,"x_min":69,"x_max":813,"o":"m 326 -21 q 136 32 203 -21 q 69 167 69 85 q 93 274 69 221 q 118 319 103 299 q 242 344 175 333 q 507 375 392 369 l 507 417 q 469 629 507 571 q 354 688 432 688 q 304 681 325 688 l 285 674 l 285 465 l 267 461 q 229 458 244 458 q 153 487 182 458 q 125 563 125 515 q 190 671 125 626 q 382 715 254 715 q 569 677 490 715 q 688 572 647 639 q 729 417 729 504 l 729 42 l 813 21 l 813 0 l 688 0 q 558 51 604 0 q 528 104 539 72 q 482 42 508 69 q 326 -21 419 -21 m 382 28 q 475 83 433 28 q 507 139 490 104 l 507 340 q 385 333 443 340 q 326 326 342 328 q 313 285 319 311 q 299 181 299 232 q 322 65 299 103 q 382 28 346 28 m 421 764 q 263 797 314 764 q 213 882 213 831 q 236 942 213 918 q 296 965 260 965 q 328 961 299 965 l 344 958 l 344 806 q 365 799 346 806 q 421 792 383 792 q 477 799 458 792 q 497 806 496 806 l 497 958 l 514 961 q 546 965 543 965 q 606 942 582 965 q 629 882 629 918 q 578 797 629 831 q 421 764 528 764 m 394 976 l 207 1185 l 388 1185 l 443 976 l 394 976 z "},"ẳ":{"ha":840,"x_min":69,"x_max":813,"o":"m 326 -21 q 136 32 203 -21 q 69 167 69 85 q 93 274 69 221 q 118 319 103 299 q 242 344 175 333 q 507 375 392 369 l 507 417 q 469 629 507 571 q 354 688 432 688 q 304 681 325 688 l 285 674 l 285 465 l 267 461 q 229 458 244 458 q 153 487 182 458 q 125 563 125 515 q 190 671 125 626 q 382 715 254 715 q 569 677 490 715 q 688 572 647 639 q 729 417 729 504 l 729 42 l 813 21 l 813 0 l 688 0 q 558 51 604 0 q 528 104 539 72 q 482 42 508 69 q 326 -21 419 -21 m 382 28 q 475 83 433 28 q 507 139 490 104 l 507 340 q 385 333 443 340 q 326 326 342 328 q 313 285 319 311 q 299 181 299 232 q 322 65 299 103 q 382 28 346 28 m 421 764 q 263 797 314 764 q 213 882 213 831 q 236 942 213 918 q 296 965 260 965 q 328 961 299 965 l 344 958 l 344 806 q 365 799 346 806 q 421 792 383 792 q 477 799 458 792 q 497 806 496 806 l 497 958 l 514 961 q 546 965 543 965 q 606 942 582 965 q 629 882 629 918 q 578 797 629 831 q 421 764 528 764 m 397 1011 q 442 1044 426 1022 q 458 1108 458 1067 q 442 1174 458 1154 q 390 1194 425 1194 q 363 1190 383 1194 l 351 1188 l 351 1110 l 346 1108 l 342 1108 q 271 1144 271 1108 q 400 1221 271 1221 q 569 1108 569 1221 q 535 1041 569 1068 q 440 1004 501 1014 l 438 965 l 400 965 l 397 1011 z "},"ẵ":{"ha":840,"x_min":69,"x_max":813,"o":"m 326 -21 q 136 32 203 -21 q 69 167 69 85 q 93 274 69 221 q 118 319 103 299 q 242 344 175 333 q 507 375 392 369 l 507 417 q 469 629 507 571 q 354 688 432 688 q 304 681 325 688 l 285 674 l 285 465 l 267 461 q 229 458 244 458 q 153 487 182 458 q 125 563 125 515 q 190 671 125 626 q 382 715 254 715 q 569 677 490 715 q 688 572 647 639 q 729 417 729 504 l 729 42 l 813 21 l 813 0 l 688 0 q 558 51 604 0 q 528 104 539 72 q 482 42 508 69 q 326 -21 419 -21 m 382 28 q 475 83 433 28 q 507 139 490 104 l 507 340 q 385 333 443 340 q 326 326 342 328 q 313 285 319 311 q 299 181 299 232 q 322 65 299 103 q 382 28 346 28 m 421 764 q 263 797 314 764 q 213 882 213 831 q 236 942 213 918 q 296 965 260 965 q 328 961 299 965 l 344 958 l 344 806 q 365 799 346 806 q 421 792 383 792 q 477 799 458 792 q 497 806 496 806 l 497 958 l 514 961 q 546 965 543 965 q 606 942 582 965 q 629 882 629 918 q 578 797 629 831 q 421 764 528 764 m 486 1015 q 433 1026 456 1015 q 385 1056 411 1036 q 351 1078 365 1071 q 319 1085 336 1085 q 275 1067 293 1085 q 257 1022 257 1049 l 229 1022 q 262 1142 229 1103 q 354 1182 294 1182 q 407 1172 385 1182 q 456 1142 429 1161 q 490 1120 475 1128 q 521 1113 504 1113 q 565 1131 547 1113 q 583 1175 583 1149 l 611 1175 q 578 1055 611 1094 q 486 1015 546 1015 z "},"â":{"ha":840,"x_min":69,"x_max":813,"o":"m 326 -21 q 136 32 203 -21 q 69 167 69 85 q 93 274 69 221 q 118 319 103 299 q 242 344 175 333 q 507 375 392 369 l 507 417 q 469 629 507 571 q 354 688 432 688 q 304 681 325 688 l 285 674 l 285 465 l 267 461 q 229 458 244 458 q 153 487 182 458 q 125 563 125 515 q 190 671 125 626 q 382 715 254 715 q 569 677 490 715 q 688 572 647 639 q 729 417 729 504 l 729 42 l 813 21 l 813 0 l 688 0 q 558 51 604 0 q 528 104 539 72 q 482 42 508 69 q 326 -21 419 -21 m 382 28 q 475 83 433 28 q 507 139 490 104 l 507 340 q 385 333 443 340 q 326 326 342 328 q 313 285 319 311 q 299 181 299 232 q 322 65 299 103 q 382 28 346 28 m 219 764 l 421 993 l 622 764 l 574 764 l 421 861 l 268 764 l 219 764 z "},"ấ":{"ha":840,"x_min":69,"x_max":832,"o":"m 326 -21 q 136 32 203 -21 q 69 167 69 85 q 93 274 69 221 q 118 319 103 299 q 242 344 175 333 q 507 375 392 369 l 507 417 q 469 629 507 571 q 354 688 432 688 q 304 681 325 688 l 285 674 l 285 465 l 267 461 q 229 458 244 458 q 153 487 182 458 q 125 563 125 515 q 190 671 125 626 q 382 715 254 715 q 569 677 490 715 q 688 572 647 639 q 729 417 729 504 l 729 42 l 813 21 l 813 0 l 688 0 q 558 51 604 0 q 528 104 539 72 q 482 42 508 69 q 326 -21 419 -21 m 382 28 q 475 83 433 28 q 507 139 490 104 l 507 340 q 385 333 443 340 q 326 326 342 328 q 313 285 319 311 q 299 181 299 232 q 322 65 299 103 q 382 28 346 28 m 219 764 l 421 993 l 622 764 l 574 764 l 421 861 l 268 764 l 219 764 m 596 865 l 651 1074 l 832 1074 l 644 865 l 596 865 z "},"ậ":{"ha":840,"x_min":69,"x_max":813,"o":"m 326 -21 q 136 32 203 -21 q 69 167 69 85 q 93 274 69 221 q 118 319 103 299 q 242 344 175 333 q 507 375 392 369 l 507 417 q 469 629 507 571 q 354 688 432 688 q 304 681 325 688 l 285 674 l 285 465 l 267 461 q 229 458 244 458 q 153 487 182 458 q 125 563 125 515 q 190 671 125 626 q 382 715 254 715 q 569 677 490 715 q 688 572 647 639 q 729 417 729 504 l 729 42 l 813 21 l 813 0 l 688 0 q 558 51 604 0 q 528 104 539 72 q 482 42 508 69 q 326 -21 419 -21 m 382 28 q 475 83 433 28 q 507 139 490 104 l 507 340 q 385 333 443 340 q 326 326 342 328 q 313 285 319 311 q 299 181 299 232 q 322 65 299 103 q 382 28 346 28 m 393 -214 q 348 -195 367 -214 q 329 -150 329 -176 q 348 -104 329 -124 q 393 -85 367 -85 q 439 -104 419 -85 q 458 -150 458 -124 q 439 -195 458 -176 q 393 -214 419 -214 m 219 764 l 421 993 l 622 764 l 574 764 l 421 861 l 268 764 l 219 764 z "},"ầ":{"ha":840,"x_min":69,"x_max":813,"o":"m 326 -21 q 136 32 203 -21 q 69 167 69 85 q 93 274 69 221 q 118 319 103 299 q 242 344 175 333 q 507 375 392 369 l 507 417 q 469 629 507 571 q 354 688 432 688 q 304 681 325 688 l 285 674 l 285 465 l 267 461 q 229 458 244 458 q 153 487 182 458 q 125 563 125 515 q 190 671 125 626 q 382 715 254 715 q 569 677 490 715 q 688 572 647 639 q 729 417 729 504 l 729 42 l 813 21 l 813 0 l 688 0 q 558 51 604 0 q 528 104 539 72 q 482 42 508 69 q 326 -21 419 -21 m 382 28 q 475 83 433 28 q 507 139 490 104 l 507 340 q 385 333 443 340 q 326 326 342 328 q 313 285 319 311 q 299 181 299 232 q 322 65 299 103 q 382 28 346 28 m 219 764 l 421 993 l 622 764 l 574 764 l 421 861 l 268 764 l 219 764 m 574 933 l 386 1142 l 567 1142 l 622 933 l 574 933 z "},"ẩ":{"ha":840,"x_min":69,"x_max":813,"o":"m 326 -21 q 136 32 203 -21 q 69 167 69 85 q 93 274 69 221 q 118 319 103 299 q 242 344 175 333 q 507 375 392 369 l 507 417 q 469 629 507 571 q 354 688 432 688 q 304 681 325 688 l 285 674 l 285 465 l 267 461 q 229 458 244 458 q 153 487 182 458 q 125 563 125 515 q 190 671 125 626 q 382 715 254 715 q 569 677 490 715 q 688 572 647 639 q 729 417 729 504 l 729 42 l 813 21 l 813 0 l 688 0 q 558 51 604 0 q 528 104 539 72 q 482 42 508 69 q 326 -21 419 -21 m 382 28 q 475 83 433 28 q 507 139 490 104 l 507 340 q 385 333 443 340 q 326 326 342 328 q 313 285 319 311 q 299 181 299 232 q 322 65 299 103 q 382 28 346 28 m 219 764 l 421 993 l 622 764 l 574 764 l 421 861 l 268 764 l 219 764 m 564 949 q 609 982 593 960 q 625 1046 625 1004 q 608 1112 625 1092 q 557 1132 592 1132 q 529 1128 550 1132 l 518 1125 l 518 1047 l 513 1046 l 508 1046 q 438 1082 438 1046 q 567 1158 438 1158 q 736 1046 736 1158 q 702 978 736 1006 q 607 942 668 951 l 604 903 l 567 903 l 564 949 z "},"ẫ":{"ha":840,"x_min":69,"x_max":813,"o":"m 326 -21 q 136 32 203 -21 q 69 167 69 85 q 93 274 69 221 q 118 319 103 299 q 242 344 175 333 q 507 375 392 369 l 507 417 q 469 629 507 571 q 354 688 432 688 q 304 681 325 688 l 285 674 l 285 465 l 267 461 q 229 458 244 458 q 153 487 182 458 q 125 563 125 515 q 190 671 125 626 q 382 715 254 715 q 569 677 490 715 q 688 572 647 639 q 729 417 729 504 l 729 42 l 813 21 l 813 0 l 688 0 q 558 51 604 0 q 528 104 539 72 q 482 42 508 69 q 326 -21 419 -21 m 382 28 q 475 83 433 28 q 507 139 490 104 l 507 340 q 385 333 443 340 q 326 326 342 328 q 313 285 319 311 q 299 181 299 232 q 322 65 299 103 q 382 28 346 28 m 219 764 l 421 993 l 622 764 l 574 764 l 421 861 l 268 764 l 219 764 m 486 1019 q 433 1030 456 1019 q 385 1060 411 1040 q 351 1082 365 1075 q 319 1089 336 1089 q 275 1071 293 1089 q 257 1026 257 1053 l 229 1026 q 262 1147 229 1107 q 354 1186 294 1186 q 407 1176 385 1186 q 456 1146 429 1165 q 490 1124 475 1132 q 521 1117 504 1117 q 565 1135 547 1117 q 583 1179 583 1153 l 611 1179 q 578 1059 611 1099 q 486 1019 546 1019 z "},"ä":{"ha":840,"x_min":69,"x_max":813,"o":"m 326 -21 q 136 32 203 -21 q 69 167 69 85 q 93 274 69 221 q 118 319 103 299 q 242 344 175 333 q 507 375 392 369 l 507 417 q 469 629 507 571 q 354 688 432 688 q 304 681 325 688 l 285 674 l 285 465 l 267 461 q 229 458 244 458 q 153 487 182 458 q 125 563 125 515 q 190 671 125 626 q 382 715 254 715 q 569 677 490 715 q 688 572 647 639 q 729 417 729 504 l 729 42 l 813 21 l 813 0 l 688 0 q 558 51 604 0 q 528 104 539 72 q 482 42 508 69 q 326 -21 419 -21 m 382 28 q 475 83 433 28 q 507 139 490 104 l 507 340 q 385 333 443 340 q 326 326 342 328 q 313 285 319 311 q 299 181 299 232 q 322 65 299 103 q 382 28 346 28 m 292 778 q 222 806 250 778 q 194 875 194 833 q 222 944 194 917 q 292 972 250 972 q 361 944 333 972 q 389 875 389 917 q 361 806 389 833 q 292 778 333 778 m 549 778 q 479 806 507 778 q 451 875 451 833 q 479 944 451 917 q 549 972 507 972 q 618 944 590 972 q 646 875 646 917 q 618 806 646 833 q 549 778 590 778 z "},"ạ":{"ha":840,"x_min":69,"x_max":813,"o":"m 326 -21 q 136 32 203 -21 q 69 167 69 85 q 93 274 69 221 q 118 319 103 299 q 242 344 175 333 q 507 375 392 369 l 507 417 q 469 629 507 571 q 354 688 432 688 q 304 681 325 688 l 285 674 l 285 465 l 267 461 q 229 458 244 458 q 153 487 182 458 q 125 563 125 515 q 190 671 125 626 q 382 715 254 715 q 569 677 490 715 q 688 572 647 639 q 729 417 729 504 l 729 42 l 813 21 l 813 0 l 688 0 q 558 51 604 0 q 528 104 539 72 q 482 42 508 69 q 326 -21 419 -21 m 382 28 q 475 83 433 28 q 507 139 490 104 l 507 340 q 385 333 443 340 q 326 326 342 328 q 313 285 319 311 q 299 181 299 232 q 322 65 299 103 q 382 28 346 28 m 393 -214 q 348 -195 367 -214 q 329 -150 329 -176 q 348 -104 329 -124 q 393 -85 367 -85 q 439 -104 419 -85 q 458 -150 458 -124 q 439 -195 458 -176 q 393 -214 419 -214 z "},"à":{"ha":840,"x_min":69,"x_max":813,"o":"m 326 -21 q 136 32 203 -21 q 69 167 69 85 q 93 274 69 221 q 118 319 103 299 q 242 344 175 333 q 507 375 392 369 l 507 417 q 469 629 507 571 q 354 688 432 688 q 304 681 325 688 l 285 674 l 285 465 l 267 461 q 229 458 244 458 q 153 487 182 458 q 125 563 125 515 q 190 671 125 626 q 382 715 254 715 q 569 677 490 715 q 688 572 647 639 q 729 417 729 504 l 729 42 l 813 21 l 813 0 l 688 0 q 558 51 604 0 q 528 104 539 72 q 482 42 508 69 q 326 -21 419 -21 m 382 28 q 475 83 433 28 q 507 139 490 104 l 507 340 q 385 333 443 340 q 326 326 342 328 q 313 285 319 311 q 299 181 299 232 q 322 65 299 103 q 382 28 346 28 m 406 764 l 218 972 l 399 972 l 454 764 l 406 764 z "},"ả":{"ha":840,"x_min":69,"x_max":813,"o":"m 326 -21 q 136 32 203 -21 q 69 167 69 85 q 93 274 69 221 q 118 319 103 299 q 242 344 175 333 q 507 375 392 369 l 507 417 q 469 629 507 571 q 354 688 432 688 q 304 681 325 688 l 285 674 l 285 465 l 267 461 q 229 458 244 458 q 153 487 182 458 q 125 563 125 515 q 190 671 125 626 q 382 715 254 715 q 569 677 490 715 q 688 572 647 639 q 729 417 729 504 l 729 42 l 813 21 l 813 0 l 688 0 q 558 51 604 0 q 528 104 539 72 q 482 42 508 69 q 326 -21 419 -21 m 382 28 q 475 83 433 28 q 507 139 490 104 l 507 340 q 385 333 443 340 q 326 326 342 328 q 313 285 319 311 q 299 181 299 232 q 322 65 299 103 q 382 28 346 28 m 397 864 q 442 897 426 875 q 458 961 458 919 q 442 1027 458 1007 q 390 1047 425 1047 q 363 1043 383 1047 l 351 1040 l 351 963 l 346 961 l 342 961 q 271 997 271 961 q 400 1074 271 1074 q 569 961 569 1074 q 535 894 569 921 q 440 857 501 867 l 438 818 l 400 818 l 397 864 z "},"ā":{"ha":840,"x_min":69,"x_max":813,"o":"m 326 -21 q 136 32 203 -21 q 69 167 69 85 q 93 274 69 221 q 118 319 103 299 q 242 344 175 333 q 507 375 392 369 l 507 417 q 469 629 507 571 q 354 688 432 688 q 304 681 325 688 l 285 674 l 285 465 l 267 461 q 229 458 244 458 q 153 487 182 458 q 125 563 125 515 q 190 671 125 626 q 382 715 254 715 q 569 677 490 715 q 688 572 647 639 q 729 417 729 504 l 729 42 l 813 21 l 813 0 l 688 0 q 558 51 604 0 q 528 104 539 72 q 482 42 508 69 q 326 -21 419 -21 m 382 28 q 475 83 433 28 q 507 139 490 104 l 507 340 q 385 333 443 340 q 326 326 342 328 q 313 285 319 311 q 299 181 299 232 q 322 65 299 103 q 382 28 346 28 m 240 910 l 240 972 l 601 972 l 601 910 l 240 910 z "},"ą":{"ha":840,"x_min":69,"x_max":813,"o":"m 708 -264 q 600 -234 638 -264 q 563 -160 563 -204 q 601 -74 563 -108 q 666 -29 639 -40 q 749 0 693 -18 l 688 0 q 572 37 608 0 q 528 103 536 74 q 503 65 528 96 q 434 6 479 33 q 326 -21 389 -21 q 136 32 203 -21 q 69 167 69 85 q 93 274 69 221 q 118 319 103 299 q 242 344 175 333 q 507 375 392 369 l 507 417 q 469 629 507 571 q 354 688 432 688 q 304 681 325 688 l 285 674 l 285 465 l 267 461 q 229 458 244 458 q 153 487 182 458 q 125 563 125 515 q 190 671 125 626 q 382 715 254 715 q 569 677 490 715 q 688 572 647 639 q 729 417 729 504 l 729 42 l 813 21 l 813 0 q 746 -43 774 -19 q 681 -174 681 -100 q 736 -229 681 -229 q 781 -215 758 -229 q 799 -201 792 -208 l 799 -243 q 774 -254 796 -244 q 708 -264 749 -264 m 382 28 q 475 83 433 28 q 507 139 490 104 l 507 340 q 385 333 443 340 q 326 326 342 328 q 313 285 319 311 q 299 181 299 232 q 322 65 299 103 q 382 28 346 28 z "},"å":{"ha":840,"x_min":69,"x_max":813,"o":"m 326 -21 q 136 32 203 -21 q 69 167 69 85 q 93 274 69 221 q 118 319 103 299 q 242 344 175 333 q 507 375 392 369 l 507 417 q 469 629 507 571 q 354 688 432 688 q 304 681 325 688 l 285 674 l 285 465 l 267 461 q 229 458 244 458 q 153 487 182 458 q 125 563 125 515 q 190 671 125 626 q 382 715 254 715 q 569 677 490 715 q 688 572 647 639 q 729 417 729 504 l 729 42 l 813 21 l 813 0 l 688 0 q 558 51 604 0 q 528 104 539 72 q 482 42 508 69 q 326 -21 419 -21 m 382 28 q 475 83 433 28 q 507 139 490 104 l 507 340 q 385 333 443 340 q 326 326 342 328 q 313 285 319 311 q 299 181 299 232 q 322 65 299 103 q 382 28 346 28 m 421 764 q 317 804 358 764 q 275 903 275 844 q 317 1001 275 961 q 421 1042 358 1042 q 525 1001 483 1042 q 567 903 567 961 q 525 804 567 844 q 421 764 483 764 m 421 813 q 476 838 454 813 q 497 903 497 863 q 476 968 497 943 q 421 993 454 993 q 366 968 388 993 q 344 903 344 943 q 366 838 344 863 q 421 813 388 813 z "},"ã":{"ha":840,"x_min":69,"x_max":813,"o":"m 326 -21 q 136 32 203 -21 q 69 167 69 85 q 93 274 69 221 q 118 319 103 299 q 242 344 175 333 q 507 375 392 369 l 507 417 q 469 629 507 571 q 354 688 432 688 q 304 681 325 688 l 285 674 l 285 465 l 267 461 q 229 458 244 458 q 153 487 182 458 q 125 563 125 515 q 190 671 125 626 q 382 715 254 715 q 569 677 490 715 q 688 572 647 639 q 729 417 729 504 l 729 42 l 813 21 l 813 0 l 688 0 q 558 51 604 0 q 528 104 539 72 q 482 42 508 69 q 326 -21 419 -21 m 382 28 q 475 83 433 28 q 507 139 490 104 l 507 340 q 385 333 443 340 q 326 326 342 328 q 313 285 319 311 q 299 181 299 232 q 322 65 299 103 q 382 28 346 28 m 486 806 q 433 816 456 806 q 385 846 411 826 q 351 868 365 861 q 319 875 336 875 q 275 857 293 875 q 257 813 257 839 l 229 813 q 262 933 229 893 q 354 972 294 972 q 407 962 385 972 q 456 932 429 951 q 490 910 475 918 q 521 903 504 903 q 565 921 547 903 q 583 965 583 939 l 611 965 q 578 845 611 885 q 486 806 546 806 z "},"æ":{"ha":1222,"x_min":69,"x_max":1174,"o":"m 354 -21 q 140 31 211 -21 q 69 167 69 83 q 93 267 69 217 q 118 306 103 286 q 242 331 175 319 q 507 361 392 356 l 507 417 q 469 629 507 571 q 354 688 432 688 q 304 681 325 688 l 285 674 l 285 465 l 267 461 q 229 458 244 458 q 153 487 182 458 q 125 563 125 515 q 190 671 125 626 q 382 715 254 715 q 571 653 494 715 q 625 590 604 625 q 676 653 643 624 q 854 715 750 715 q 1021 678 949 715 q 1133 577 1093 640 q 1174 438 1174 514 q 1167 388 1174 408 l 1160 368 q 1031 347 1100 356 q 736 326 885 326 l 736 296 q 782 78 739 142 q 903 14 825 14 q 1003 40 957 14 q 1077 108 1050 65 q 1104 194 1104 150 l 1139 194 q 1106 89 1139 139 q 1013 9 1072 39 q 875 -21 953 -21 q 679 44 756 -21 q 625 111 643 74 q 557 44 594 72 q 354 -21 467 -21 m 736 361 q 881 368 825 361 q 931 375 904 369 q 938 404 932 385 q 944 465 944 432 q 914 634 944 581 q 840 688 883 688 q 767 619 796 688 q 736 368 739 550 l 736 361 m 382 14 q 481 79 440 14 q 507 146 496 106 l 507 326 q 385 319 443 326 q 326 313 342 314 q 313 271 319 297 q 299 167 299 218 q 322 51 299 89 q 382 14 346 14 z "},"b":{"ha":854,"x_min":28,"x_max":799,"o":"m 514 -21 q 358 42 421 -21 q 313 104 332 69 q 279 49 303 74 q 125 -7 226 -7 l 111 -7 l 111 931 l 28 951 l 28 972 l 208 972 q 333 847 333 972 l 333 660 q 376 688 356 678 q 493 715 426 715 q 716 620 633 715 q 799 347 799 525 q 761 147 799 229 q 660 22 724 64 q 514 -21 596 -21 m 458 28 q 533 98 503 28 q 563 347 563 168 q 530 604 563 535 q 438 674 497 674 q 364 646 401 674 q 333 618 353 638 l 333 139 q 364 83 346 107 q 458 28 406 28 z "},"c":{"ha":736,"x_min":56,"x_max":694,"o":"m 431 -21 q 154 77 253 -21 q 56 347 56 175 q 154 617 56 519 q 431 715 253 715 q 623 671 558 715 q 688 563 688 626 q 659 487 688 515 q 583 458 631 458 q 544 461 564 458 l 528 465 l 528 674 l 508 681 q 458 688 488 688 q 335 613 379 688 q 292 347 292 538 q 335 88 292 163 q 458 14 379 14 q 559 40 513 14 q 633 108 606 65 q 660 194 660 150 l 694 194 q 661 89 694 139 q 568 9 628 39 q 431 -21 508 -21 z "},"ć":{"ha":736,"x_min":56,"x_max":694,"o":"m 431 -21 q 154 77 253 -21 q 56 347 56 175 q 154 617 56 519 q 431 715 253 715 q 623 671 558 715 q 688 563 688 626 q 659 487 688 515 q 583 458 631 458 q 544 461 564 458 l 528 465 l 528 674 l 508 681 q 458 688 488 688 q 335 613 379 688 q 292 347 292 538 q 335 88 292 163 q 458 14 379 14 q 559 40 513 14 q 633 108 606 65 q 660 194 660 150 l 694 194 q 661 89 694 139 q 568 9 628 39 q 431 -21 508 -21 m 399 764 l 454 972 l 635 972 l 447 764 l 399 764 z "},"č":{"ha":736,"x_min":56,"x_max":694,"o":"m 431 -21 q 154 77 253 -21 q 56 347 56 175 q 154 617 56 519 q 431 715 253 715 q 623 671 558 715 q 688 563 688 626 q 659 487 688 515 q 583 458 631 458 q 544 461 564 458 l 528 465 l 528 674 l 508 681 q 458 688 488 688 q 335 613 379 688 q 292 347 292 538 q 335 88 292 163 q 458 14 379 14 q 559 40 513 14 q 633 108 606 65 q 660 194 660 150 l 694 194 q 661 89 694 139 q 568 9 628 39 q 431 -21 508 -21 m 236 993 l 285 993 l 438 896 l 590 993 l 639 993 l 438 764 l 236 993 z "},"ç":{"ha":736,"x_min":56,"x_max":694,"o":"m 410 -278 q 356 -275 386 -278 l 332 -271 l 332 -229 q 346 -236 340 -235 q 382 -243 363 -243 q 433 -224 414 -243 q 451 -174 451 -206 q 431 -123 451 -142 q 375 -104 411 -104 l 375 -18 q 140 92 224 -4 q 56 347 56 189 q 154 617 56 519 q 431 715 253 715 q 623 671 558 715 q 688 563 688 626 q 659 487 688 515 q 583 458 631 458 q 544 461 564 458 l 528 465 l 528 674 l 508 681 q 458 688 488 688 q 335 613 379 688 q 292 347 292 538 q 335 88 292 163 q 458 14 379 14 q 559 40 513 14 q 633 108 606 65 q 660 194 660 150 l 694 194 q 661 89 694 139 q 568 9 628 39 q 431 -21 508 -21 l 424 -21 l 424 -69 q 519 -100 483 -69 q 556 -174 556 -131 q 518 -248 556 -218 q 410 -278 481 -278 z "},"ĉ":{"ha":736,"x_min":56,"x_max":694,"o":"m 431 -21 q 154 77 253 -21 q 56 347 56 175 q 154 617 56 519 q 431 715 253 715 q 623 671 558 715 q 688 563 688 626 q 659 487 688 515 q 583 458 631 458 q 544 461 564 458 l 528 465 l 528 674 l 508 681 q 458 688 488 688 q 335 613 379 688 q 292 347 292 538 q 335 88 292 163 q 458 14 379 14 q 559 40 513 14 q 633 108 606 65 q 660 194 660 150 l 694 194 q 661 89 694 139 q 568 9 628 39 q 431 -21 508 -21 m 236 764 l 438 993 l 639 764 l 590 764 l 438 861 l 285 764 l 236 764 z "},"ċ":{"ha":736,"x_min":56,"x_max":694,"o":"m 431 -21 q 154 77 253 -21 q 56 347 56 175 q 154 617 56 519 q 431 715 253 715 q 623 671 558 715 q 688 563 688 626 q 659 487 688 515 q 583 458 631 458 q 544 461 564 458 l 528 465 l 528 674 l 508 681 q 458 688 488 688 q 335 613 379 688 q 292 347 292 538 q 335 88 292 163 q 458 14 379 14 q 559 40 513 14 q 633 108 606 65 q 660 194 660 150 l 694 194 q 661 89 694 139 q 568 9 628 39 q 431 -21 508 -21 m 438 778 q 368 806 396 778 q 340 875 340 833 q 368 944 340 917 q 438 972 396 972 q 507 944 479 972 q 535 875 535 917 q 507 806 535 833 q 438 778 479 778 z "},"d":{"ha":861,"x_min":56,"x_max":826,"o":"m 340 -21 q 194 22 258 -21 q 93 147 131 64 q 56 347 56 229 q 138 620 56 525 q 361 715 221 715 q 478 688 428 715 q 521 660 499 678 l 521 931 l 438 951 l 438 972 l 618 972 q 743 847 743 972 l 743 42 l 826 21 l 826 0 l 701 0 q 572 51 618 0 q 542 104 553 72 q 496 42 524 69 q 340 -21 433 -21 m 396 28 q 489 83 447 28 q 521 139 504 104 l 521 618 q 489 646 506 633 q 417 674 451 674 q 324 604 357 674 q 292 347 292 535 q 322 98 292 168 q 396 28 351 28 z "},"ð":{"ha":840,"x_min":49,"x_max":785,"o":"m 415 -21 q 220 22 303 -21 q 93 142 138 65 q 49 319 49 219 q 90 497 49 419 q 207 617 132 574 q 375 660 282 660 q 518 607 454 660 q 563 556 539 589 q 527 715 557 647 q 444 840 497 783 l 388 736 l 358 754 l 419 865 q 190 944 324 944 l 190 972 q 454 929 333 972 l 510 1031 l 539 1013 l 486 915 q 708 716 631 851 q 785 375 785 581 q 688 81 785 183 q 415 -21 590 -21 m 415 7 q 510 80 471 7 q 549 319 549 153 l 549 333 q 508 560 549 489 q 401 632 467 632 q 348 602 375 632 q 303 502 321 572 q 285 319 285 432 q 323 80 285 153 q 415 7 361 7 z "},"ď":{"ha":968,"x_min":56,"x_max":996,"o":"m 340 -21 q 194 22 258 -21 q 93 147 131 64 q 56 347 56 229 q 138 620 56 525 q 361 715 221 715 q 478 688 428 715 q 521 660 499 678 l 521 931 l 438 951 l 438 972 l 618 972 q 743 847 743 972 l 743 42 l 826 21 l 826 0 l 701 0 q 572 51 618 0 q 542 104 553 72 q 496 42 524 69 q 340 -21 433 -21 m 396 28 q 489 83 447 28 q 521 139 504 104 l 521 618 q 489 646 506 633 q 417 674 451 674 q 324 604 357 674 q 292 347 292 535 q 322 98 292 168 q 396 28 351 28 m 815 715 q 874 747 844 725 q 947 868 933 792 l 929 857 q 885 847 911 847 q 812 878 843 847 q 781 951 781 910 q 812 1024 781 993 q 885 1056 843 1056 q 965 1022 933 1056 q 996 931 996 988 q 913 731 996 803 q 829 681 876 697 l 815 715 z "},"đ":{"ha":868,"x_min":56,"x_max":833,"o":"m 340 -21 q 195 21 260 -21 q 93 142 131 63 q 56 333 56 222 q 139 594 56 501 q 361 688 222 688 q 478 660 428 688 q 521 632 499 650 l 521 778 l 347 778 l 347 819 l 521 819 l 521 931 l 438 951 l 438 972 l 618 972 q 743 847 743 972 l 743 819 l 833 819 l 833 778 l 743 778 l 743 42 l 826 21 l 826 0 l 701 0 q 572 51 618 0 q 542 104 553 72 q 496 42 524 69 q 340 -21 433 -21 m 396 28 q 489 83 447 28 q 521 139 504 104 l 521 590 q 492 617 519 590 q 417 646 464 644 q 324 579 357 646 q 292 333 292 513 q 322 96 292 164 q 396 28 351 28 z "},"e":{"ha":778,"x_min":56,"x_max":729,"o":"m 431 -21 q 154 77 253 -21 q 56 347 56 175 q 99 543 56 460 q 219 671 142 626 q 396 715 296 715 q 572 678 496 715 q 688 577 647 640 q 729 438 729 514 q 722 378 729 403 l 715 354 q 586 333 656 342 q 292 313 440 313 q 336 83 292 151 q 458 14 381 14 q 559 40 513 14 q 633 108 606 65 q 660 194 660 150 l 694 194 q 661 89 694 139 q 568 9 628 39 q 431 -21 508 -21 m 292 347 q 436 354 381 347 q 486 361 460 356 q 493 392 488 368 q 500 465 500 426 q 469 634 500 581 q 396 688 439 688 q 292 347 292 688 z "},"é":{"ha":778,"x_min":56,"x_max":729,"o":"m 431 -21 q 154 77 253 -21 q 56 347 56 175 q 99 543 56 460 q 219 671 142 626 q 396 715 296 715 q 572 678 496 715 q 688 577 647 640 q 729 438 729 514 q 722 378 729 403 l 715 354 q 586 333 656 342 q 292 313 440 313 q 336 83 292 151 q 458 14 381 14 q 559 40 513 14 q 633 108 606 65 q 660 194 660 150 l 694 194 q 661 89 694 139 q 568 9 628 39 q 431 -21 508 -21 m 292 347 q 436 354 381 347 q 486 361 460 356 q 493 392 488 368 q 500 465 500 426 q 469 634 500 581 q 396 688 439 688 q 292 347 292 688 m 350 764 l 406 972 l 586 972 l 399 764 l 350 764 z "},"ĕ":{"ha":778,"x_min":56,"x_max":729,"o":"m 431 -21 q 154 77 253 -21 q 56 347 56 175 q 99 543 56 460 q 219 671 142 626 q 396 715 296 715 q 572 678 496 715 q 688 577 647 640 q 729 438 729 514 q 722 378 729 403 l 715 354 q 586 333 656 342 q 292 313 440 313 q 336 83 292 151 q 458 14 381 14 q 559 40 513 14 q 633 108 606 65 q 660 194 660 150 l 694 194 q 661 89 694 139 q 568 9 628 39 q 431 -21 508 -21 m 292 347 q 436 354 381 347 q 486 361 460 356 q 493 392 488 368 q 500 465 500 426 q 469 634 500 581 q 396 688 439 688 q 292 347 292 688 m 389 764 q 231 797 282 764 q 181 882 181 831 q 204 942 181 918 q 264 965 228 965 q 296 961 267 965 l 313 958 l 313 806 q 333 799 314 806 q 389 792 351 792 q 445 799 426 792 q 465 806 464 806 l 465 958 l 482 961 q 514 965 511 965 q 574 942 550 965 q 597 882 597 918 q 547 797 597 831 q 389 764 496 764 z "},"ě":{"ha":778,"x_min":56,"x_max":729,"o":"m 431 -21 q 154 77 253 -21 q 56 347 56 175 q 99 543 56 460 q 219 671 142 626 q 396 715 296 715 q 572 678 496 715 q 688 577 647 640 q 729 438 729 514 q 722 378 729 403 l 715 354 q 586 333 656 342 q 292 313 440 313 q 336 83 292 151 q 458 14 381 14 q 559 40 513 14 q 633 108 606 65 q 660 194 660 150 l 694 194 q 661 89 694 139 q 568 9 628 39 q 431 -21 508 -21 m 292 347 q 436 354 381 347 q 486 361 460 356 q 493 392 488 368 q 500 465 500 426 q 469 634 500 581 q 396 688 439 688 q 292 347 292 688 m 188 993 l 236 993 l 389 896 l 542 993 l 590 993 l 389 764 l 188 993 z "},"ê":{"ha":778,"x_min":56,"x_max":729,"o":"m 431 -21 q 154 77 253 -21 q 56 347 56 175 q 99 543 56 460 q 219 671 142 626 q 396 715 296 715 q 572 678 496 715 q 688 577 647 640 q 729 438 729 514 q 722 378 729 403 l 715 354 q 586 333 656 342 q 292 313 440 313 q 336 83 292 151 q 458 14 381 14 q 559 40 513 14 q 633 108 606 65 q 660 194 660 150 l 694 194 q 661 89 694 139 q 568 9 628 39 q 431 -21 508 -21 m 292 347 q 436 354 381 347 q 486 361 460 356 q 493 392 488 368 q 500 465 500 426 q 469 634 500 581 q 396 688 439 688 q 292 347 292 688 m 188 764 l 389 993 l 590 764 l 542 764 l 389 861 l 236 764 l 188 764 z "},"ế":{"ha":778,"x_min":56,"x_max":800,"o":"m 431 -21 q 154 77 253 -21 q 56 347 56 175 q 99 543 56 460 q 219 671 142 626 q 396 715 296 715 q 572 678 496 715 q 688 577 647 640 q 729 438 729 514 q 722 378 729 403 l 715 354 q 586 333 656 342 q 292 313 440 313 q 336 83 292 151 q 458 14 381 14 q 559 40 513 14 q 633 108 606 65 q 660 194 660 150 l 694 194 q 661 89 694 139 q 568 9 628 39 q 431 -21 508 -21 m 292 347 q 436 354 381 347 q 486 361 460 356 q 493 392 488 368 q 500 465 500 426 q 469 634 500 581 q 396 688 439 688 q 292 347 292 688 m 188 764 l 389 993 l 590 764 l 542 764 l 389 861 l 236 764 l 188 764 m 564 865 l 619 1074 l 800 1074 l 613 865 l 564 865 z "},"ệ":{"ha":778,"x_min":56,"x_max":729,"o":"m 431 -21 q 154 77 253 -21 q 56 347 56 175 q 99 543 56 460 q 219 671 142 626 q 396 715 296 715 q 572 678 496 715 q 688 577 647 640 q 729 438 729 514 q 722 378 729 403 l 715 354 q 586 333 656 342 q 292 313 440 313 q 336 83 292 151 q 458 14 381 14 q 559 40 513 14 q 633 108 606 65 q 660 194 660 150 l 694 194 q 661 89 694 139 q 568 9 628 39 q 431 -21 508 -21 m 292 347 q 436 354 381 347 q 486 361 460 356 q 493 392 488 368 q 500 465 500 426 q 469 634 500 581 q 396 688 439 688 q 292 347 292 688 m 389 -214 q 344 -195 363 -214 q 325 -150 325 -176 q 344 -104 325 -124 q 389 -85 363 -85 q 435 -104 415 -85 q 454 -150 454 -124 q 435 -195 454 -176 q 389 -214 415 -214 m 188 764 l 389 993 l 590 764 l 542 764 l 389 861 l 236 764 l 188 764 z "},"ề":{"ha":778,"x_min":56,"x_max":729,"o":"m 431 -21 q 154 77 253 -21 q 56 347 56 175 q 99 543 56 460 q 219 671 142 626 q 396 715 296 715 q 572 678 496 715 q 688 577 647 640 q 729 438 729 514 q 722 378 729 403 l 715 354 q 586 333 656 342 q 292 313 440 313 q 336 83 292 151 q 458 14 381 14 q 559 40 513 14 q 633 108 606 65 q 660 194 660 150 l 694 194 q 661 89 694 139 q 568 9 628 39 q 431 -21 508 -21 m 292 347 q 436 354 381 347 q 486 361 460 356 q 493 392 488 368 q 500 465 500 426 q 469 634 500 581 q 396 688 439 688 q 292 347 292 688 m 188 764 l 389 993 l 590 764 l 542 764 l 389 861 l 236 764 l 188 764 m 542 933 l 354 1142 l 535 1142 l 590 933 l 542 933 z "},"ể":{"ha":778,"x_min":56,"x_max":729,"o":"m 431 -21 q 154 77 253 -21 q 56 347 56 175 q 99 543 56 460 q 219 671 142 626 q 396 715 296 715 q 572 678 496 715 q 688 577 647 640 q 729 438 729 514 q 722 378 729 403 l 715 354 q 586 333 656 342 q 292 313 440 313 q 336 83 292 151 q 458 14 381 14 q 559 40 513 14 q 633 108 606 65 q 660 194 660 150 l 694 194 q 661 89 694 139 q 568 9 628 39 q 431 -21 508 -21 m 292 347 q 436 354 381 347 q 486 361 460 356 q 493 392 488 368 q 500 465 500 426 q 469 634 500 581 q 396 688 439 688 q 292 347 292 688 m 188 764 l 389 993 l 590 764 l 542 764 l 389 861 l 236 764 l 188 764 m 532 949 q 577 982 561 960 q 593 1046 593 1004 q 576 1112 593 1092 q 525 1132 560 1132 q 497 1128 518 1132 l 486 1125 l 486 1047 l 481 1046 l 476 1046 q 406 1082 406 1046 q 535 1158 406 1158 q 704 1046 704 1158 q 670 978 704 1006 q 575 942 636 951 l 572 903 l 535 903 l 532 949 z "},"ễ":{"ha":778,"x_min":56,"x_max":729,"o":"m 431 -21 q 154 77 253 -21 q 56 347 56 175 q 99 543 56 460 q 219 671 142 626 q 396 715 296 715 q 572 678 496 715 q 688 577 647 640 q 729 438 729 514 q 722 378 729 403 l 715 354 q 586 333 656 342 q 292 313 440 313 q 336 83 292 151 q 458 14 381 14 q 559 40 513 14 q 633 108 606 65 q 660 194 660 150 l 694 194 q 661 89 694 139 q 568 9 628 39 q 431 -21 508 -21 m 292 347 q 436 354 381 347 q 486 361 460 356 q 493 392 488 368 q 500 465 500 426 q 469 634 500 581 q 396 688 439 688 q 292 347 292 688 m 188 764 l 389 993 l 590 764 l 542 764 l 389 861 l 236 764 l 188 764 m 454 1019 q 401 1030 424 1019 q 353 1060 379 1040 q 319 1082 333 1075 q 288 1089 304 1089 q 243 1071 261 1089 q 225 1026 225 1053 l 197 1026 q 230 1147 197 1107 q 322 1186 263 1186 q 375 1176 353 1186 q 424 1146 397 1165 q 458 1124 443 1132 q 489 1117 472 1117 q 533 1135 515 1117 q 551 1179 551 1153 l 579 1179 q 547 1059 579 1099 q 454 1019 514 1019 z "},"ë":{"ha":778,"x_min":56,"x_max":729,"o":"m 431 -21 q 154 77 253 -21 q 56 347 56 175 q 99 543 56 460 q 219 671 142 626 q 396 715 296 715 q 572 678 496 715 q 688 577 647 640 q 729 438 729 514 q 722 378 729 403 l 715 354 q 586 333 656 342 q 292 313 440 313 q 336 83 292 151 q 458 14 381 14 q 559 40 513 14 q 633 108 606 65 q 660 194 660 150 l 694 194 q 661 89 694 139 q 568 9 628 39 q 431 -21 508 -21 m 292 347 q 436 354 381 347 q 486 361 460 356 q 493 392 488 368 q 500 465 500 426 q 469 634 500 581 q 396 688 439 688 q 292 347 292 688 m 260 778 q 190 806 218 778 q 163 875 163 833 q 190 944 163 917 q 260 972 218 972 q 329 944 301 972 q 357 875 357 917 q 329 806 357 833 q 260 778 301 778 m 517 778 q 447 806 475 778 q 419 875 419 833 q 447 944 419 917 q 517 972 475 972 q 586 944 558 972 q 614 875 614 917 q 586 806 614 833 q 517 778 558 778 z "},"ė":{"ha":778,"x_min":56,"x_max":729,"o":"m 431 -21 q 154 77 253 -21 q 56 347 56 175 q 99 543 56 460 q 219 671 142 626 q 396 715 296 715 q 572 678 496 715 q 688 577 647 640 q 729 438 729 514 q 722 378 729 403 l 715 354 q 586 333 656 342 q 292 313 440 313 q 336 83 292 151 q 458 14 381 14 q 559 40 513 14 q 633 108 606 65 q 660 194 660 150 l 694 194 q 661 89 694 139 q 568 9 628 39 q 431 -21 508 -21 m 292 347 q 436 354 381 347 q 486 361 460 356 q 493 392 488 368 q 500 465 500 426 q 469 634 500 581 q 396 688 439 688 q 292 347 292 688 m 389 778 q 319 806 347 778 q 292 875 292 833 q 319 944 292 917 q 389 972 347 972 q 458 944 431 972 q 486 875 486 917 q 458 806 486 833 q 389 778 431 778 z "},"ẹ":{"ha":778,"x_min":56,"x_max":729,"o":"m 431 -21 q 154 77 253 -21 q 56 347 56 175 q 99 543 56 460 q 219 671 142 626 q 396 715 296 715 q 572 678 496 715 q 688 577 647 640 q 729 438 729 514 q 722 378 729 403 l 715 354 q 586 333 656 342 q 292 313 440 313 q 336 83 292 151 q 458 14 381 14 q 559 40 513 14 q 633 108 606 65 q 660 194 660 150 l 694 194 q 661 89 694 139 q 568 9 628 39 q 431 -21 508 -21 m 292 347 q 436 354 381 347 q 486 361 460 356 q 493 392 488 368 q 500 465 500 426 q 469 634 500 581 q 396 688 439 688 q 292 347 292 688 m 389 -214 q 344 -195 363 -214 q 325 -150 325 -176 q 344 -104 325 -124 q 389 -85 363 -85 q 435 -104 415 -85 q 454 -150 454 -124 q 435 -195 454 -176 q 389 -214 415 -214 z "},"è":{"ha":778,"x_min":56,"x_max":729,"o":"m 431 -21 q 154 77 253 -21 q 56 347 56 175 q 99 543 56 460 q 219 671 142 626 q 396 715 296 715 q 572 678 496 715 q 688 577 647 640 q 729 438 729 514 q 722 378 729 403 l 715 354 q 586 333 656 342 q 292 313 440 313 q 336 83 292 151 q 458 14 381 14 q 559 40 513 14 q 633 108 606 65 q 660 194 660 150 l 694 194 q 661 89 694 139 q 568 9 628 39 q 431 -21 508 -21 m 292 347 q 436 354 381 347 q 486 361 460 356 q 493 392 488 368 q 500 465 500 426 q 469 634 500 581 q 396 688 439 688 q 292 347 292 688 m 374 764 l 186 972 l 367 972 l 422 764 l 374 764 z "},"ẻ":{"ha":778,"x_min":56,"x_max":729,"o":"m 431 -21 q 154 77 253 -21 q 56 347 56 175 q 99 543 56 460 q 219 671 142 626 q 396 715 296 715 q 572 678 496 715 q 688 577 647 640 q 729 438 729 514 q 722 378 729 403 l 715 354 q 586 333 656 342 q 292 313 440 313 q 336 83 292 151 q 458 14 381 14 q 559 40 513 14 q 633 108 606 65 q 660 194 660 150 l 694 194 q 661 89 694 139 q 568 9 628 39 q 431 -21 508 -21 m 292 347 q 436 354 381 347 q 486 361 460 356 q 493 392 488 368 q 500 465 500 426 q 469 634 500 581 q 396 688 439 688 q 292 347 292 688 m 365 864 q 410 897 394 875 q 426 961 426 919 q 410 1027 426 1007 q 358 1047 393 1047 q 331 1043 351 1047 l 319 1040 l 319 963 l 314 961 l 310 961 q 239 997 239 961 q 368 1074 239 1074 q 538 961 538 1074 q 503 894 538 921 q 408 857 469 867 l 406 818 l 368 818 l 365 864 z "},"ē":{"ha":778,"x_min":56,"x_max":729,"o":"m 431 -21 q 154 77 253 -21 q 56 347 56 175 q 99 543 56 460 q 219 671 142 626 q 396 715 296 715 q 572 678 496 715 q 688 577 647 640 q 729 438 729 514 q 722 378 729 403 l 715 354 q 586 333 656 342 q 292 313 440 313 q 336 83 292 151 q 458 14 381 14 q 559 40 513 14 q 633 108 606 65 q 660 194 660 150 l 694 194 q 661 89 694 139 q 568 9 628 39 q 431 -21 508 -21 m 292 347 q 436 354 381 347 q 486 361 460 356 q 493 392 488 368 q 500 465 500 426 q 469 634 500 581 q 396 688 439 688 q 292 347 292 688 m 208 910 l 208 972 l 569 972 l 569 910 l 208 910 z "},"ę":{"ha":778,"x_min":56,"x_max":729,"o":"m 396 715 q 572 678 496 715 q 688 577 647 640 q 729 438 729 514 q 722 378 729 403 l 715 354 q 586 333 656 342 q 292 313 440 313 q 336 83 292 151 q 458 14 381 14 q 559 40 513 14 q 633 108 606 65 q 660 194 660 150 l 694 194 q 660 86 694 136 q 564 7 625 36 q 510 -29 533 -10 q 444 -160 444 -86 q 500 -215 444 -215 q 544 -201 522 -215 q 563 -187 556 -194 l 563 -229 q 538 -240 560 -231 q 472 -250 513 -250 q 364 -220 401 -250 q 326 -146 326 -190 q 419 -22 326 -72 l 422 -21 q 152 78 249 -19 q 56 347 56 176 q 99 543 56 460 q 219 671 142 626 q 396 715 296 715 m 493 392 q 500 465 500 426 q 469 634 500 581 q 396 688 439 688 q 292 347 292 688 q 436 354 381 347 q 486 361 460 356 q 493 392 488 368 z "},"ẽ":{"ha":778,"x_min":56,"x_max":729,"o":"m 431 -21 q 154 77 253 -21 q 56 347 56 175 q 99 543 56 460 q 219 671 142 626 q 396 715 296 715 q 572 678 496 715 q 688 577 647 640 q 729 438 729 514 q 722 378 729 403 l 715 354 q 586 333 656 342 q 292 313 440 313 q 336 83 292 151 q 458 14 381 14 q 559 40 513 14 q 633 108 606 65 q 660 194 660 150 l 694 194 q 661 89 694 139 q 568 9 628 39 q 431 -21 508 -21 m 292 347 q 436 354 381 347 q 486 361 460 356 q 493 392 488 368 q 500 465 500 426 q 469 634 500 581 q 396 688 439 688 q 292 347 292 688 m 454 806 q 401 816 424 806 q 353 846 379 826 q 319 868 333 861 q 288 875 304 875 q 243 857 261 875 q 225 813 225 839 l 197 813 q 230 933 197 893 q 322 972 263 972 q 375 962 353 972 q 424 932 397 951 q 458 910 443 918 q 489 903 472 903 q 533 921 515 903 q 551 965 551 939 l 579 965 q 547 845 579 885 q 454 806 514 806 z "},"f":{"ha":590,"x_min":35,"x_max":653,"o":"m 49 21 l 132 42 l 132 632 l 35 632 l 35 667 l 132 667 l 132 736 q 167 868 132 810 q 269 960 203 926 q 424 993 335 993 q 548 972 496 993 q 626 915 600 950 q 653 840 653 879 q 624 765 653 793 q 549 736 596 736 q 510 739 529 736 l 493 743 l 493 958 l 481 961 q 468 964 475 963 q 451 965 461 965 q 379 916 404 965 q 354 736 354 867 l 354 667 l 576 667 l 576 632 l 354 632 l 354 42 l 438 21 l 438 0 l 49 0 l 49 21 z "},"g":{"ha":840,"x_min":35,"x_max":840,"o":"m 382 -299 q 181 -276 258 -299 q 69 -219 103 -254 q 35 -146 35 -185 q 63 -70 35 -99 q 139 -42 92 -42 q 179 -46 150 -42 l 194 -49 l 194 -243 q 247 -257 211 -249 q 368 -271 311 -271 q 616 -223 538 -271 q 694 -104 694 -175 q 528 -14 694 -14 l 264 -14 q 104 29 160 -14 q 49 139 49 72 q 114 257 49 206 q 181 292 140 276 q 106 367 129 324 q 83 472 83 411 q 161 638 83 575 q 389 701 239 701 q 509 688 454 701 q 597 653 564 675 q 626 694 608 676 q 729 736 668 736 q 808 703 776 736 q 840 618 840 671 q 819 553 840 578 q 764 528 797 528 q 729 531 749 528 l 715 535 l 715 701 q 647 667 679 701 q 625 632 635 654 q 694 472 694 571 q 617 306 694 369 q 389 243 539 243 q 208 278 289 243 l 181 264 q 160 248 167 256 q 153 229 153 240 q 177 193 153 206 q 264 181 201 181 l 528 181 q 691 120 632 181 q 750 -49 750 60 q 658 -229 750 -160 q 382 -299 565 -299 m 389 271 q 460 315 435 271 q 486 472 486 360 q 460 629 486 585 q 389 674 435 674 q 317 629 343 674 q 292 472 292 585 q 317 315 292 360 q 389 271 343 271 z "},"ğ":{"ha":840,"x_min":35,"x_max":840,"o":"m 382 -299 q 181 -276 258 -299 q 69 -219 103 -254 q 35 -146 35 -185 q 63 -70 35 -99 q 139 -42 92 -42 q 179 -46 150 -42 l 194 -49 l 194 -243 q 247 -257 211 -249 q 368 -271 311 -271 q 616 -223 538 -271 q 694 -104 694 -175 q 528 -14 694 -14 l 264 -14 q 104 29 160 -14 q 49 139 49 72 q 114 257 49 206 q 181 292 140 276 q 106 367 129 324 q 83 472 83 411 q 161 638 83 575 q 389 701 239 701 q 509 688 454 701 q 597 653 564 675 q 626 694 608 676 q 729 736 668 736 q 808 703 776 736 q 840 618 840 671 q 819 553 840 578 q 764 528 797 528 q 729 531 749 528 l 715 535 l 715 701 q 647 667 679 701 q 625 632 635 654 q 694 472 694 571 q 617 306 694 369 q 389 243 539 243 q 208 278 289 243 l 181 264 q 160 248 167 256 q 153 229 153 240 q 177 193 153 206 q 264 181 201 181 l 528 181 q 691 120 632 181 q 750 -49 750 60 q 658 -229 750 -160 q 382 -299 565 -299 m 389 271 q 460 315 435 271 q 486 472 486 360 q 460 629 486 585 q 389 674 435 674 q 317 629 343 674 q 292 472 292 585 q 317 315 292 360 q 389 271 343 271 m 421 764 q 263 797 314 764 q 213 882 213 831 q 236 942 213 918 q 296 965 260 965 q 328 961 299 965 l 344 958 l 344 806 q 365 799 346 806 q 421 792 383 792 q 477 799 458 792 q 497 806 496 806 l 497 958 l 514 961 q 546 965 543 965 q 606 942 582 965 q 629 882 629 918 q 578 797 629 831 q 421 764 528 764 z "},"ĝ":{"ha":840,"x_min":35,"x_max":840,"o":"m 382 -299 q 181 -276 258 -299 q 69 -219 103 -254 q 35 -146 35 -185 q 63 -70 35 -99 q 139 -42 92 -42 q 179 -46 150 -42 l 194 -49 l 194 -243 q 247 -257 211 -249 q 368 -271 311 -271 q 616 -223 538 -271 q 694 -104 694 -175 q 528 -14 694 -14 l 264 -14 q 104 29 160 -14 q 49 139 49 72 q 114 257 49 206 q 181 292 140 276 q 106 367 129 324 q 83 472 83 411 q 161 638 83 575 q 389 701 239 701 q 509 688 454 701 q 597 653 564 675 q 626 694 608 676 q 729 736 668 736 q 808 703 776 736 q 840 618 840 671 q 819 553 840 578 q 764 528 797 528 q 729 531 749 528 l 715 535 l 715 701 q 647 667 679 701 q 625 632 635 654 q 694 472 694 571 q 617 306 694 369 q 389 243 539 243 q 208 278 289 243 l 181 264 q 160 248 167 256 q 153 229 153 240 q 177 193 153 206 q 264 181 201 181 l 528 181 q 691 120 632 181 q 750 -49 750 60 q 658 -229 750 -160 q 382 -299 565 -299 m 389 271 q 460 315 435 271 q 486 472 486 360 q 460 629 486 585 q 389 674 435 674 q 317 629 343 674 q 292 472 292 585 q 317 315 292 360 q 389 271 343 271 m 219 764 l 421 993 l 622 764 l 574 764 l 421 861 l 268 764 l 219 764 z "},"ģ":{"ha":840,"x_min":35,"x_max":840,"o":"m 488 1097 q 436 1067 461 1088 q 369 951 383 1022 q 378 958 374 956 q 385 963 382 960 q 425 972 397 972 q 494 944 467 972 q 522 875 522 917 q 494 806 522 833 q 425 778 467 778 q 349 808 376 778 q 321 896 321 839 q 342 1003 321 958 q 397 1078 364 1049 q 474 1125 432 1108 l 488 1097 m 382 -299 q 181 -276 258 -299 q 69 -219 103 -254 q 35 -146 35 -185 q 63 -70 35 -99 q 139 -42 92 -42 q 179 -46 150 -42 l 194 -49 l 194 -243 q 247 -257 211 -249 q 368 -271 311 -271 q 616 -223 538 -271 q 694 -104 694 -175 q 528 -14 694 -14 l 264 -14 q 104 29 160 -14 q 49 139 49 72 q 114 257 49 206 q 181 292 140 276 q 106 367 129 324 q 83 472 83 411 q 161 638 83 575 q 389 701 239 701 q 509 688 454 701 q 597 653 564 675 q 626 694 608 676 q 729 736 668 736 q 808 703 776 736 q 840 618 840 671 q 819 553 840 578 q 764 528 797 528 q 729 531 749 528 l 715 535 l 715 701 q 647 667 679 701 q 625 632 635 654 q 694 472 694 571 q 617 306 694 369 q 389 243 539 243 q 208 278 289 243 l 181 264 q 160 248 167 256 q 153 229 153 240 q 177 193 153 206 q 264 181 201 181 l 528 181 q 691 120 632 181 q 750 -49 750 60 q 658 -229 750 -160 q 382 -299 565 -299 m 389 271 q 460 315 435 271 q 486 472 486 360 q 460 629 486 585 q 389 674 435 674 q 317 629 343 674 q 292 472 292 585 q 317 315 292 360 q 389 271 343 271 z "},"ġ":{"ha":840,"x_min":35,"x_max":840,"o":"m 382 -299 q 181 -276 258 -299 q 69 -219 103 -254 q 35 -146 35 -185 q 63 -70 35 -99 q 139 -42 92 -42 q 179 -46 150 -42 l 194 -49 l 194 -243 q 247 -257 211 -249 q 368 -271 311 -271 q 616 -223 538 -271 q 694 -104 694 -175 q 528 -14 694 -14 l 264 -14 q 104 29 160 -14 q 49 139 49 72 q 114 257 49 206 q 181 292 140 276 q 106 367 129 324 q 83 472 83 411 q 161 638 83 575 q 389 701 239 701 q 509 688 454 701 q 597 653 564 675 q 626 694 608 676 q 729 736 668 736 q 808 703 776 736 q 840 618 840 671 q 819 553 840 578 q 764 528 797 528 q 729 531 749 528 l 715 535 l 715 701 q 647 667 679 701 q 625 632 635 654 q 694 472 694 571 q 617 306 694 369 q 389 243 539 243 q 208 278 289 243 l 181 264 q 160 248 167 256 q 153 229 153 240 q 177 193 153 206 q 264 181 201 181 l 528 181 q 691 120 632 181 q 750 -49 750 60 q 658 -229 750 -160 q 382 -299 565 -299 m 389 271 q 460 315 435 271 q 486 472 486 360 q 460 629 486 585 q 389 674 435 674 q 317 629 343 674 q 292 472 292 585 q 317 315 292 360 q 389 271 343 271 m 421 778 q 351 806 379 778 q 324 875 324 833 q 351 944 324 917 q 421 972 379 972 q 490 944 463 972 q 518 875 518 917 q 490 806 518 833 q 421 778 463 778 z "},"h":{"ha":924,"x_min":56,"x_max":896,"o":"m 56 21 l 139 42 l 139 931 l 56 951 l 56 972 l 236 972 q 361 847 361 972 l 361 625 q 404 669 382 653 q 542 715 464 715 q 681 683 619 715 q 778 597 743 650 q 813 486 813 544 l 813 42 l 896 21 l 896 0 l 715 0 q 590 125 590 0 l 590 486 q 559 620 590 574 q 486 667 528 667 q 392 611 433 667 q 361 556 374 588 l 361 42 l 444 21 l 444 0 l 56 0 l 56 21 z "},"ħ":{"ha":931,"x_min":56,"x_max":903,"o":"m 63 21 l 146 42 l 146 757 l 56 757 l 56 792 l 146 792 l 146 931 l 63 951 l 63 972 l 243 972 q 368 847 368 972 l 368 792 l 542 792 l 542 757 l 368 757 l 368 583 q 411 628 389 611 q 549 674 471 674 q 688 641 626 674 q 785 556 750 608 q 819 444 819 503 l 819 42 l 903 21 l 903 0 l 722 0 q 597 125 597 0 l 597 444 q 566 578 597 532 q 493 625 535 625 q 399 569 440 625 q 368 514 381 546 l 368 42 l 451 21 l 451 0 l 63 0 l 63 21 z "},"ĥ":{"ha":924,"x_min":56,"x_max":896,"o":"m 896 21 l 896 0 l 715 0 q 590 125 590 0 l 590 486 q 559 620 590 574 q 486 667 528 667 q 392 611 433 667 q 361 556 374 588 l 361 42 l 444 21 l 444 0 l 56 0 l 56 21 l 139 42 l 139 931 l 56 951 l 56 972 l 236 972 q 360 875 346 972 l 463 993 l 664 764 l 615 764 l 463 861 l 361 797 l 361 625 q 404 669 382 653 q 542 715 464 715 q 681 683 619 715 q 778 597 743 650 q 813 486 813 544 l 813 42 l 896 21 z "},"i":{"ha":472,"x_min":56,"x_max":444,"o":"m 56 21 l 139 42 l 139 653 l 56 674 l 56 694 l 236 694 q 361 569 361 694 l 361 42 l 444 21 l 444 0 l 56 0 l 56 21 m 236 778 q 167 806 194 778 q 139 875 139 833 q 167 944 139 917 q 236 972 194 972 q 306 944 278 972 q 333 875 333 917 q 306 806 333 833 q 236 778 278 778 z "},"ı":{"ha":472,"x_min":56,"x_max":444,"o":"m 56 21 l 139 42 l 139 653 l 56 674 l 56 694 l 236 694 q 361 569 361 694 l 361 42 l 444 21 l 444 0 l 56 0 l 56 21 z "},"í":{"ha":472,"x_min":56,"x_max":444,"o":"m 56 21 l 139 42 l 139 653 l 56 674 l 56 694 l 236 694 q 361 569 361 694 l 361 42 l 444 21 l 444 0 l 56 0 l 56 21 m 197 764 l 253 972 l 433 972 l 246 764 l 197 764 z "},"ĭ":{"ha":472,"x_min":28,"x_max":444,"o":"m 56 21 l 139 42 l 139 653 l 56 674 l 56 694 l 236 694 q 361 569 361 694 l 361 42 l 444 21 l 444 0 l 56 0 l 56 21 m 236 764 q 78 797 129 764 q 28 882 28 831 q 51 942 28 918 q 111 965 75 965 q 143 961 114 965 l 160 958 l 160 806 q 180 799 161 806 q 236 792 199 792 q 292 799 274 792 q 313 806 311 806 l 313 958 l 329 961 q 361 965 358 965 q 421 942 397 965 q 444 882 444 918 q 394 797 444 831 q 236 764 343 764 z "},"î":{"ha":472,"x_min":35,"x_max":444,"o":"m 56 21 l 139 42 l 139 653 l 56 674 l 56 694 l 236 694 q 361 569 361 694 l 361 42 l 444 21 l 444 0 l 56 0 l 56 21 m 35 764 l 236 993 l 438 764 l 389 764 l 236 861 l 83 764 l 35 764 z "},"ï":{"ha":472,"x_min":10,"x_max":461,"o":"m 56 21 l 139 42 l 139 653 l 56 674 l 56 694 l 236 694 q 361 569 361 694 l 361 42 l 444 21 l 444 0 l 56 0 l 56 21 m 107 778 q 38 806 65 778 q 10 875 10 833 q 38 944 10 917 q 107 972 65 972 q 176 944 149 972 q 204 875 204 917 q 176 806 204 833 q 107 778 149 778 m 364 778 q 294 806 322 778 q 267 875 267 833 q 294 944 267 917 q 364 972 322 972 q 433 944 406 972 q 461 875 461 917 q 433 806 461 833 q 364 778 406 778 z "},"ị":{"ha":472,"x_min":56,"x_max":444,"o":"m 56 21 l 139 42 l 139 653 l 56 674 l 56 694 l 236 694 q 361 569 361 694 l 361 42 l 444 21 l 444 0 l 56 0 l 56 21 m 236 778 q 167 806 194 778 q 139 875 139 833 q 167 944 139 917 q 236 972 194 972 q 306 944 278 972 q 333 875 333 917 q 306 806 333 833 q 236 778 278 778 m 236 -214 q 191 -195 210 -214 q 172 -150 172 -176 q 191 -104 172 -124 q 236 -85 210 -85 q 282 -104 263 -85 q 301 -150 301 -124 q 282 -195 301 -176 q 236 -214 263 -214 z "},"ì":{"ha":472,"x_min":33,"x_max":444,"o":"m 56 21 l 139 42 l 139 653 l 56 674 l 56 694 l 236 694 q 361 569 361 694 l 361 42 l 444 21 l 444 0 l 56 0 l 56 21 m 221 764 l 33 972 l 214 972 l 269 764 l 221 764 z "},"ỉ":{"ha":472,"x_min":56,"x_max":444,"o":"m 56 21 l 139 42 l 139 653 l 56 674 l 56 694 l 236 694 q 361 569 361 694 l 361 42 l 444 21 l 444 0 l 56 0 l 56 21 m 213 864 q 258 897 242 875 q 274 961 274 919 q 257 1027 274 1007 q 206 1047 240 1047 q 178 1043 199 1047 l 167 1040 l 167 963 l 161 961 l 157 961 q 86 997 86 961 q 215 1074 86 1074 q 385 961 385 1074 q 351 894 385 921 q 256 857 317 867 l 253 818 l 215 818 l 213 864 z "},"ĳ":{"ha":889,"x_min":56,"x_max":792,"o":"m 250 750 q 167 785 203 750 q 132 868 132 821 q 167 951 132 915 q 250 986 203 986 q 333 951 297 986 q 368 868 368 915 q 333 785 368 821 q 250 750 297 750 m 674 750 q 591 785 626 750 q 556 868 556 821 q 591 951 556 915 q 674 986 626 986 q 756 951 721 986 q 792 868 792 915 q 756 785 792 821 q 674 750 721 750 m 479 -299 q 326 -264 375 -299 q 278 -167 278 -229 q 306 -91 278 -119 q 382 -62 335 -62 q 404 -65 393 -62 q 419 -67 415 -67 l 438 -69 l 438 -264 l 446 -268 q 465 -271 460 -271 q 535 -219 508 -271 q 563 -42 563 -167 l 563 660 l 361 660 l 361 42 l 444 21 l 444 0 l 56 0 l 56 21 l 139 42 l 139 653 l 56 674 l 56 694 l 660 694 q 785 569 785 694 l 785 -42 q 749 -174 785 -115 q 643 -265 713 -232 q 479 -299 574 -299 z "},"ī":{"ha":472,"x_min":56,"x_max":444,"o":"m 56 21 l 139 42 l 139 653 l 56 674 l 56 694 l 236 694 q 361 569 361 694 l 361 42 l 444 21 l 444 0 l 56 0 l 56 21 m 56 910 l 56 972 l 417 972 l 417 910 l 56 910 z "},"į":{"ha":472,"x_min":56,"x_max":444,"o":"m 250 750 q 167 785 203 750 q 132 868 132 821 q 167 951 132 915 q 250 986 203 986 q 333 951 297 986 q 368 868 368 915 q 333 785 368 821 q 250 750 297 750 m 257 -264 q 149 -234 186 -264 q 111 -160 111 -204 q 149 -74 111 -108 q 215 -29 188 -40 q 297 0 242 -18 l 56 0 l 56 21 l 139 42 l 139 653 l 56 674 l 56 694 l 236 694 q 361 569 361 694 l 361 42 l 444 21 l 444 0 l 361 0 q 294 -43 322 -19 q 229 -174 229 -100 q 285 -229 229 -229 q 329 -215 307 -229 q 347 -201 340 -208 l 347 -243 q 322 -254 344 -244 q 257 -264 297 -264 z "},"ĩ":{"ha":472,"x_min":44,"x_max":444,"o":"m 56 21 l 139 42 l 139 653 l 56 674 l 56 694 l 236 694 q 361 569 361 694 l 361 42 l 444 21 l 444 0 l 56 0 l 56 21 m 301 806 q 249 816 271 806 q 200 846 226 826 q 166 868 181 861 q 135 875 151 875 q 90 857 108 875 q 72 813 72 839 l 44 813 q 77 933 44 893 q 169 972 110 972 q 222 962 200 972 q 271 932 244 951 q 305 910 290 918 q 336 903 319 903 q 381 921 363 903 q 399 965 399 939 l 426 965 q 394 845 426 885 q 301 806 361 806 z "},"j":{"ha":458,"x_min":-153,"x_max":354,"o":"m 49 -299 q -104 -264 -56 -299 q -153 -167 -153 -229 q -124 -91 -153 -119 q -49 -62 -96 -62 q -26 -65 -37 -62 q -11 -67 -15 -67 l 7 -69 l 7 -264 l 15 -268 q 35 -271 29 -271 q 105 -219 78 -271 q 132 -42 132 -167 l 132 653 l 49 674 l 49 694 l 229 694 q 354 569 354 694 l 354 -42 q 318 -174 354 -115 q 213 -265 282 -232 q 49 -299 143 -299 m 229 778 q 160 806 188 778 q 132 875 132 833 q 160 944 132 917 q 229 972 188 972 q 299 944 271 972 q 326 875 326 917 q 299 806 326 833 q 229 778 271 778 z "},"ȷ":{"ha":458,"x_min":-153,"x_max":354,"o":"m 49 -299 q -104 -264 -56 -299 q -153 -167 -153 -229 q -124 -91 -153 -119 q -49 -62 -96 -62 q -26 -65 -37 -62 q -11 -67 -15 -67 l 7 -69 l 7 -264 l 15 -268 q 35 -271 29 -271 q 105 -219 78 -271 q 132 -42 132 -167 l 132 653 l 49 674 l 49 694 l 229 694 q 354 569 354 694 l 354 -42 q 318 -174 354 -115 q 213 -265 282 -232 q 49 -299 143 -299 z "},"ĵ":{"ha":472,"x_min":-153,"x_max":417,"o":"m 14 785 l 215 1014 l 417 785 l 368 785 l 215 882 l 63 785 l 14 785 m 49 -299 q -104 -264 -56 -299 q -153 -167 -153 -229 q -124 -91 -153 -119 q -49 -62 -96 -62 q -26 -65 -37 -62 q -11 -67 -15 -67 l 7 -69 l 7 -264 l 15 -268 q 35 -271 29 -271 q 105 -219 78 -271 q 132 -42 132 -167 l 132 653 l 49 674 l 49 694 l 229 694 q 354 569 354 694 l 354 -42 q 318 -174 354 -115 q 213 -265 282 -232 q 49 -299 143 -299 z "},"k":{"ha":833,"x_min":56,"x_max":847,"o":"m 56 21 l 139 42 l 139 931 l 56 951 l 56 972 l 236 972 q 361 847 361 972 l 361 361 l 618 632 l 514 674 l 514 694 l 778 694 l 778 674 l 667 632 l 507 465 l 778 42 l 847 21 l 847 0 l 667 0 q 558 29 600 0 q 479 118 517 58 l 361 306 l 361 42 l 444 21 l 444 0 l 56 0 l 56 21 z "},"ķ":{"ha":833,"x_min":56,"x_max":847,"o":"m 56 21 l 139 42 l 139 931 l 56 951 l 56 972 l 236 972 q 361 847 361 972 l 361 361 l 618 632 l 514 674 l 514 694 l 778 694 l 778 674 l 667 632 l 507 465 l 778 42 l 847 21 l 847 0 l 667 0 q 558 29 600 0 q 479 118 517 58 l 361 306 l 361 42 l 444 21 l 444 0 l 56 0 l 56 21 m 350 -403 q 401 -372 376 -393 q 468 -257 454 -328 q 460 -263 464 -261 q 453 -268 456 -265 q 413 -278 440 -278 q 343 -250 371 -278 q 315 -181 315 -222 q 343 -111 315 -139 q 413 -83 371 -83 q 489 -114 461 -83 q 517 -201 517 -144 q 495 -309 517 -264 q 440 -383 474 -354 q 364 -431 406 -414 l 350 -403 z "},"ĸ":{"ha":833,"x_min":56,"x_max":847,"o":"m 56 21 l 139 42 l 139 653 l 56 674 l 56 694 l 236 694 q 361 569 361 694 l 361 361 l 618 632 l 514 674 l 514 694 l 778 694 l 778 674 l 667 632 l 507 465 l 778 42 l 847 21 l 847 0 l 667 0 q 558 29 600 0 q 479 118 517 58 l 361 306 l 361 42 l 444 21 l 444 0 l 56 0 l 56 21 z "},"l":{"ha":472,"x_min":56,"x_max":444,"o":"m 56 21 l 139 42 l 139 931 l 56 951 l 56 972 l 236 972 q 361 847 361 972 l 361 42 l 444 21 l 444 0 l 56 0 l 56 21 z "},"ĺ":{"ha":472,"x_min":56,"x_max":444,"o":"m 444 21 l 444 0 l 56 0 l 56 21 l 139 42 l 139 931 l 56 951 l 56 972 l 236 972 l 253 972 l 433 972 l 357 888 q 361 847 361 869 l 361 42 l 444 21 z "},"ľ":{"ha":472,"x_min":56,"x_max":607,"o":"m 56 21 l 139 42 l 139 931 l 56 951 l 56 972 l 236 972 q 361 847 361 972 l 361 42 l 444 21 l 444 0 l 56 0 l 56 21 m 426 715 q 485 747 456 725 q 558 868 544 792 l 540 857 q 496 847 522 847 q 423 878 454 847 q 392 951 392 910 q 423 1024 392 993 q 496 1056 454 1056 q 576 1022 544 1056 q 607 931 607 988 q 524 731 607 803 q 440 681 488 697 l 426 715 z "},"ļ":{"ha":472,"x_min":56,"x_max":444,"o":"m 56 21 l 139 42 l 139 931 l 56 951 l 56 972 l 236 972 q 361 847 361 972 l 361 42 l 444 21 l 444 0 l 56 0 l 56 21 m 169 -403 q 221 -372 196 -393 q 288 -257 274 -328 q 279 -263 283 -261 q 272 -268 275 -265 q 232 -278 260 -278 q 163 -250 190 -278 q 135 -181 135 -222 q 163 -111 135 -139 q 232 -83 190 -83 q 308 -114 281 -83 q 336 -201 336 -144 q 315 -309 336 -264 q 260 -383 293 -354 q 183 -431 225 -414 l 169 -403 z "},"ŀ":{"ha":674,"x_min":56,"x_max":660,"o":"m 56 21 l 139 42 l 139 931 l 56 951 l 56 972 l 236 972 q 361 847 361 972 l 361 42 l 444 21 l 444 0 l 56 0 l 56 21 m 556 375 q 483 408 514 375 q 451 486 451 440 q 483 565 451 532 q 556 597 514 597 q 628 565 597 597 q 660 486 660 532 q 628 408 660 440 q 556 375 597 375 z "},"ł":{"ha":507,"x_min":28,"x_max":479,"o":"m 63 21 l 146 42 l 146 440 l 28 368 l 28 417 l 146 489 l 146 931 l 63 951 l 63 972 l 243 972 q 368 847 368 972 l 368 626 l 479 694 l 479 646 l 368 578 l 368 42 l 451 21 l 451 0 l 63 0 l 63 21 z "},"m":{"ha":1319,"x_min":56,"x_max":1292,"o":"m 56 21 l 139 42 l 139 653 l 56 674 l 56 694 l 181 694 q 310 642 263 694 q 340 590 328 621 q 385 653 361 629 q 528 715 447 715 q 669 680 608 715 q 764 583 731 644 q 808 649 785 624 q 951 715 872 715 q 1084 685 1025 715 q 1176 601 1143 654 q 1208 486 1208 549 l 1208 42 l 1292 21 l 1292 0 l 1111 0 q 986 125 986 0 l 986 486 q 958 622 986 576 q 896 667 931 667 q 814 611 856 667 q 785 556 797 585 l 785 42 l 868 21 l 868 0 l 479 0 l 479 21 l 563 42 l 563 486 q 535 622 563 576 q 472 667 507 667 q 390 611 432 667 q 361 556 374 585 l 361 42 l 444 21 l 444 0 l 56 0 l 56 21 z "},"n":{"ha":924,"x_min":56,"x_max":896,"o":"m 56 21 l 139 42 l 139 653 l 56 674 l 56 694 l 181 694 q 310 642 263 694 q 340 590 328 621 q 386 653 360 626 q 542 715 449 715 q 681 683 619 715 q 778 597 743 650 q 813 486 813 544 l 813 42 l 896 21 l 896 0 l 715 0 q 590 125 590 0 l 590 486 q 559 620 590 574 q 486 667 528 667 q 392 611 433 667 q 361 556 374 588 l 361 42 l 444 21 l 444 0 l 56 0 l 56 21 z "},"ń":{"ha":924,"x_min":56,"x_max":896,"o":"m 56 21 l 139 42 l 139 653 l 56 674 l 56 694 l 181 694 q 310 642 263 694 q 340 590 328 621 q 386 653 360 626 q 542 715 449 715 q 681 683 619 715 q 778 597 743 650 q 813 486 813 544 l 813 42 l 896 21 l 896 0 l 715 0 q 590 125 590 0 l 590 486 q 559 620 590 574 q 486 667 528 667 q 392 611 433 667 q 361 556 374 588 l 361 42 l 444 21 l 444 0 l 56 0 l 56 21 m 451 764 l 507 972 l 688 972 l 500 764 l 451 764 z "},"ň":{"ha":924,"x_min":56,"x_max":896,"o":"m 56 21 l 139 42 l 139 653 l 56 674 l 56 694 l 181 694 q 310 642 263 694 q 340 590 328 621 q 386 653 360 626 q 542 715 449 715 q 681 683 619 715 q 778 597 743 650 q 813 486 813 544 l 813 42 l 896 21 l 896 0 l 715 0 q 590 125 590 0 l 590 486 q 559 620 590 574 q 486 667 528 667 q 392 611 433 667 q 361 556 374 588 l 361 42 l 444 21 l 444 0 l 56 0 l 56 21 m 289 993 l 338 993 l 490 896 l 643 993 l 692 993 l 490 764 l 289 993 z "},"ņ":{"ha":924,"x_min":56,"x_max":896,"o":"m 56 21 l 139 42 l 139 653 l 56 674 l 56 694 l 181 694 q 310 642 263 694 q 340 590 328 621 q 386 653 360 626 q 542 715 449 715 q 681 683 619 715 q 778 597 743 650 q 813 486 813 544 l 813 42 l 896 21 l 896 0 l 715 0 q 590 125 590 0 l 590 486 q 559 620 590 574 q 486 667 528 667 q 392 611 433 667 q 361 556 374 588 l 361 42 l 444 21 l 444 0 l 56 0 l 56 21 m 424 -403 q 475 -372 450 -393 q 542 -257 528 -328 q 533 -263 538 -261 q 526 -268 529 -265 q 486 -278 514 -278 q 417 -250 444 -278 q 389 -181 389 -222 q 417 -111 389 -139 q 486 -83 444 -83 q 563 -114 535 -83 q 590 -201 590 -144 q 569 -309 590 -264 q 514 -383 547 -354 q 438 -431 479 -414 l 424 -403 z "},"ñ":{"ha":924,"x_min":56,"x_max":896,"o":"m 56 21 l 139 42 l 139 653 l 56 674 l 56 694 l 181 694 q 310 642 263 694 q 340 590 328 621 q 386 653 360 626 q 542 715 449 715 q 681 683 619 715 q 778 597 743 650 q 813 486 813 544 l 813 42 l 896 21 l 896 0 l 715 0 q 590 125 590 0 l 590 486 q 559 620 590 574 q 486 667 528 667 q 392 611 433 667 q 361 556 374 588 l 361 42 l 444 21 l 444 0 l 56 0 l 56 21 m 556 806 q 503 816 525 806 q 454 846 481 826 q 420 868 435 861 q 389 875 406 875 q 344 857 363 875 q 326 813 326 839 l 299 813 q 331 933 299 893 q 424 972 364 972 q 476 962 454 972 q 525 932 499 951 q 559 910 544 918 q 590 903 574 903 q 635 921 617 903 q 653 965 653 939 l 681 965 q 648 845 681 885 q 556 806 615 806 z "},"o":{"ha":847,"x_min":56,"x_max":792,"o":"m 424 -21 q 153 77 251 -21 q 56 347 56 175 q 153 617 56 519 q 424 715 251 715 q 694 617 596 715 q 792 347 792 519 q 694 77 792 175 q 424 -21 596 -21 m 424 7 q 517 85 479 7 q 556 347 556 163 q 517 610 556 532 q 424 688 479 688 q 330 610 368 688 q 292 347 292 532 q 330 85 292 163 q 424 7 368 7 z "},"ó":{"ha":847,"x_min":56,"x_max":792,"o":"m 424 -21 q 153 77 251 -21 q 56 347 56 175 q 153 617 56 519 q 424 715 251 715 q 694 617 596 715 q 792 347 792 519 q 694 77 792 175 q 424 -21 596 -21 m 424 7 q 517 85 479 7 q 556 347 556 163 q 517 610 556 532 q 424 688 479 688 q 330 610 368 688 q 292 347 292 532 q 330 85 292 163 q 424 7 368 7 m 385 764 l 440 972 l 621 972 l 433 764 l 385 764 z "},"ŏ":{"ha":847,"x_min":56,"x_max":792,"o":"m 424 -21 q 153 77 251 -21 q 56 347 56 175 q 153 617 56 519 q 424 715 251 715 q 694 617 596 715 q 792 347 792 519 q 694 77 792 175 q 424 -21 596 -21 m 424 7 q 517 85 479 7 q 556 347 556 163 q 517 610 556 532 q 424 688 479 688 q 330 610 368 688 q 292 347 292 532 q 330 85 292 163 q 424 7 368 7 m 424 764 q 266 797 317 764 q 215 882 215 831 q 239 942 215 918 q 299 965 263 965 q 331 961 301 965 l 347 958 l 347 806 q 367 799 349 806 q 424 792 386 792 q 480 799 461 792 q 500 806 499 806 l 500 958 l 517 961 q 549 965 546 965 q 608 942 585 965 q 632 882 632 918 q 581 797 632 831 q 424 764 531 764 z "},"ô":{"ha":847,"x_min":56,"x_max":792,"o":"m 424 -21 q 153 77 251 -21 q 56 347 56 175 q 153 617 56 519 q 424 715 251 715 q 694 617 596 715 q 792 347 792 519 q 694 77 792 175 q 424 -21 596 -21 m 424 7 q 517 85 479 7 q 556 347 556 163 q 517 610 556 532 q 424 688 479 688 q 330 610 368 688 q 292 347 292 532 q 330 85 292 163 q 424 7 368 7 m 222 764 l 424 993 l 625 764 l 576 764 l 424 861 l 271 764 l 222 764 z "},"ố":{"ha":847,"x_min":56,"x_max":835,"o":"m 424 -21 q 153 77 251 -21 q 56 347 56 175 q 153 617 56 519 q 424 715 251 715 q 694 617 596 715 q 792 347 792 519 q 694 77 792 175 q 424 -21 596 -21 m 424 7 q 517 85 479 7 q 556 347 556 163 q 517 610 556 532 q 424 688 479 688 q 330 610 368 688 q 292 347 292 532 q 330 85 292 163 q 424 7 368 7 m 222 764 l 424 993 l 625 764 l 576 764 l 424 861 l 271 764 l 222 764 m 599 865 l 654 1074 l 835 1074 l 647 865 l 599 865 z "},"ộ":{"ha":847,"x_min":56,"x_max":792,"o":"m 424 -21 q 153 77 251 -21 q 56 347 56 175 q 153 617 56 519 q 424 715 251 715 q 694 617 596 715 q 792 347 792 519 q 694 77 792 175 q 424 -21 596 -21 m 424 7 q 517 85 479 7 q 556 347 556 163 q 517 610 556 532 q 424 688 479 688 q 330 610 368 688 q 292 347 292 532 q 330 85 292 163 q 424 7 368 7 m 424 -214 q 378 -195 397 -214 q 360 -150 360 -176 q 378 -104 360 -124 q 424 -85 397 -85 q 469 -104 450 -85 q 489 -150 489 -124 q 469 -195 489 -176 q 424 -214 450 -214 m 222 764 l 424 993 l 625 764 l 576 764 l 424 861 l 271 764 l 222 764 z "},"ồ":{"ha":847,"x_min":56,"x_max":792,"o":"m 424 -21 q 153 77 251 -21 q 56 347 56 175 q 153 617 56 519 q 424 715 251 715 q 694 617 596 715 q 792 347 792 519 q 694 77 792 175 q 424 -21 596 -21 m 424 7 q 517 85 479 7 q 556 347 556 163 q 517 610 556 532 q 424 688 479 688 q 330 610 368 688 q 292 347 292 532 q 330 85 292 163 q 424 7 368 7 m 222 764 l 424 993 l 625 764 l 576 764 l 424 861 l 271 764 l 222 764 m 576 933 l 389 1142 l 569 1142 l 625 933 l 576 933 z "},"ổ":{"ha":847,"x_min":56,"x_max":792,"o":"m 424 -21 q 153 77 251 -21 q 56 347 56 175 q 153 617 56 519 q 424 715 251 715 q 694 617 596 715 q 792 347 792 519 q 694 77 792 175 q 424 -21 596 -21 m 424 7 q 517 85 479 7 q 556 347 556 163 q 517 610 556 532 q 424 688 479 688 q 330 610 368 688 q 292 347 292 532 q 330 85 292 163 q 424 7 368 7 m 222 764 l 424 993 l 625 764 l 576 764 l 424 861 l 271 764 l 222 764 m 567 949 q 612 982 596 960 q 628 1046 628 1004 q 611 1112 628 1092 q 560 1132 594 1132 q 532 1128 553 1132 l 521 1125 l 521 1047 l 515 1046 l 511 1046 q 440 1082 440 1046 q 569 1158 440 1158 q 739 1046 739 1158 q 705 978 739 1006 q 610 942 671 951 l 607 903 l 569 903 l 567 949 z "},"ỗ":{"ha":847,"x_min":56,"x_max":792,"o":"m 424 -21 q 153 77 251 -21 q 56 347 56 175 q 153 617 56 519 q 424 715 251 715 q 694 617 596 715 q 792 347 792 519 q 694 77 792 175 q 424 -21 596 -21 m 424 7 q 517 85 479 7 q 556 347 556 163 q 517 610 556 532 q 424 688 479 688 q 330 610 368 688 q 292 347 292 532 q 330 85 292 163 q 424 7 368 7 m 222 764 l 424 993 l 625 764 l 576 764 l 424 861 l 271 764 l 222 764 m 489 1019 q 436 1030 458 1019 q 388 1060 414 1040 q 353 1082 368 1075 q 322 1089 339 1089 q 278 1071 296 1089 q 260 1026 260 1053 l 232 1026 q 265 1147 232 1107 q 357 1186 297 1186 q 410 1176 388 1186 q 458 1146 432 1165 q 492 1124 478 1132 q 524 1117 507 1117 q 568 1135 550 1117 q 586 1179 586 1153 l 614 1179 q 581 1059 614 1099 q 489 1019 549 1019 z "},"ö":{"ha":847,"x_min":56,"x_max":792,"o":"m 424 -21 q 153 77 251 -21 q 56 347 56 175 q 153 617 56 519 q 424 715 251 715 q 694 617 596 715 q 792 347 792 519 q 694 77 792 175 q 424 -21 596 -21 m 424 7 q 517 85 479 7 q 556 347 556 163 q 517 610 556 532 q 424 688 479 688 q 330 610 368 688 q 292 347 292 532 q 330 85 292 163 q 424 7 368 7 m 294 778 q 225 806 253 778 q 197 875 197 833 q 225 944 197 917 q 294 972 253 972 q 364 944 336 972 q 392 875 392 917 q 364 806 392 833 q 294 778 336 778 m 551 778 q 482 806 510 778 q 454 875 454 833 q 482 944 454 917 q 551 972 510 972 q 621 944 593 972 q 649 875 649 917 q 621 806 649 833 q 551 778 593 778 z "},"ọ":{"ha":847,"x_min":56,"x_max":792,"o":"m 424 -21 q 153 77 251 -21 q 56 347 56 175 q 153 617 56 519 q 424 715 251 715 q 694 617 596 715 q 792 347 792 519 q 694 77 792 175 q 424 -21 596 -21 m 424 7 q 517 85 479 7 q 556 347 556 163 q 517 610 556 532 q 424 688 479 688 q 330 610 368 688 q 292 347 292 532 q 330 85 292 163 q 424 7 368 7 m 424 -214 q 378 -195 397 -214 q 360 -150 360 -176 q 378 -104 360 -124 q 424 -85 397 -85 q 469 -104 450 -85 q 489 -150 489 -124 q 469 -195 489 -176 q 424 -214 450 -214 z "},"ò":{"ha":847,"x_min":56,"x_max":792,"o":"m 424 -21 q 153 77 251 -21 q 56 347 56 175 q 153 617 56 519 q 424 715 251 715 q 694 617 596 715 q 792 347 792 519 q 694 77 792 175 q 424 -21 596 -21 m 424 7 q 517 85 479 7 q 556 347 556 163 q 517 610 556 532 q 424 688 479 688 q 330 610 368 688 q 292 347 292 532 q 330 85 292 163 q 424 7 368 7 m 408 764 l 221 972 l 401 972 l 457 764 l 408 764 z "},"ỏ":{"ha":847,"x_min":56,"x_max":792,"o":"m 424 -21 q 153 77 251 -21 q 56 347 56 175 q 153 617 56 519 q 424 715 251 715 q 694 617 596 715 q 792 347 792 519 q 694 77 792 175 q 424 -21 596 -21 m 424 7 q 517 85 479 7 q 556 347 556 163 q 517 610 556 532 q 424 688 479 688 q 330 610 368 688 q 292 347 292 532 q 330 85 292 163 q 424 7 368 7 m 400 864 q 445 897 429 875 q 461 961 461 919 q 444 1027 461 1007 q 393 1047 428 1047 q 365 1043 386 1047 l 354 1040 l 354 963 l 349 961 l 344 961 q 274 997 274 961 q 403 1074 274 1074 q 572 961 572 1074 q 538 894 572 921 q 443 857 504 867 l 440 818 l 403 818 l 400 864 z "},"ơ":{"ha":847,"x_min":56,"x_max":799,"o":"m 631 665 q 750 539 708 621 q 792 347 792 457 q 694 77 792 175 q 424 -21 596 -21 q 153 77 251 -21 q 56 347 56 175 q 153 617 56 519 q 424 715 251 715 q 576 690 507 715 q 642 697 614 693 l 682 703 l 682 879 l 699 883 q 738 886 708 886 q 782 858 765 886 q 799 783 799 831 q 760 702 799 732 q 631 665 722 672 m 424 7 q 517 85 479 7 q 556 347 556 163 q 517 610 556 532 q 424 688 479 688 q 330 610 368 688 q 292 347 292 532 q 330 85 292 163 q 424 7 368 7 z "},"ớ":{"ha":847,"x_min":56,"x_max":799,"o":"m 631 665 q 750 539 708 621 q 792 347 792 457 q 694 77 792 175 q 424 -21 596 -21 q 153 77 251 -21 q 56 347 56 175 q 153 617 56 519 q 424 715 251 715 q 576 690 507 715 q 642 697 614 693 l 682 703 l 682 879 l 699 883 q 738 886 708 886 q 782 858 765 886 q 799 783 799 831 q 760 702 799 732 q 631 665 722 672 m 424 7 q 517 85 479 7 q 556 347 556 163 q 517 610 556 532 q 424 688 479 688 q 330 610 368 688 q 292 347 292 532 q 330 85 292 163 q 424 7 368 7 m 385 764 l 440 972 l 621 972 l 433 764 l 385 764 z "},"ợ":{"ha":847,"x_min":56,"x_max":799,"o":"m 631 665 q 750 539 708 621 q 792 347 792 457 q 694 77 792 175 q 424 -21 596 -21 q 153 77 251 -21 q 56 347 56 175 q 153 617 56 519 q 424 715 251 715 q 576 690 507 715 q 642 697 614 693 l 682 703 l 682 879 l 699 883 q 738 886 708 886 q 782 858 765 886 q 799 783 799 831 q 760 702 799 732 q 631 665 722 672 m 424 7 q 517 85 479 7 q 556 347 556 163 q 517 610 556 532 q 424 688 479 688 q 330 610 368 688 q 292 347 292 532 q 330 85 292 163 q 424 7 368 7 m 424 -214 q 378 -195 397 -214 q 360 -150 360 -176 q 378 -104 360 -124 q 424 -85 397 -85 q 469 -104 450 -85 q 489 -150 489 -124 q 469 -195 489 -176 q 424 -214 450 -214 z "},"ờ":{"ha":847,"x_min":56,"x_max":799,"o":"m 631 665 q 750 539 708 621 q 792 347 792 457 q 694 77 792 175 q 424 -21 596 -21 q 153 77 251 -21 q 56 347 56 175 q 153 617 56 519 q 424 715 251 715 q 576 690 507 715 q 642 697 614 693 l 682 703 l 682 879 l 699 883 q 738 886 708 886 q 782 858 765 886 q 799 783 799 831 q 760 702 799 732 q 631 665 722 672 m 424 7 q 517 85 479 7 q 556 347 556 163 q 517 610 556 532 q 424 688 479 688 q 330 610 368 688 q 292 347 292 532 q 330 85 292 163 q 424 7 368 7 m 408 764 l 221 972 l 401 972 l 457 764 l 408 764 z "},"ở":{"ha":847,"x_min":56,"x_max":799,"o":"m 631 665 q 750 539 708 621 q 792 347 792 457 q 694 77 792 175 q 424 -21 596 -21 q 153 77 251 -21 q 56 347 56 175 q 153 617 56 519 q 424 715 251 715 q 576 690 507 715 q 642 697 614 693 l 682 703 l 682 879 l 699 883 q 738 886 708 886 q 782 858 765 886 q 799 783 799 831 q 760 702 799 732 q 631 665 722 672 m 424 7 q 517 85 479 7 q 556 347 556 163 q 517 610 556 532 q 424 688 479 688 q 330 610 368 688 q 292 347 292 532 q 330 85 292 163 q 424 7 368 7 m 400 864 q 445 897 429 875 q 461 961 461 919 q 444 1027 461 1007 q 393 1047 428 1047 q 365 1043 386 1047 l 354 1040 l 354 963 l 349 961 l 344 961 q 274 997 274 961 q 403 1074 274 1074 q 572 961 572 1074 q 538 894 572 921 q 443 857 504 867 l 440 818 l 403 818 l 400 864 z "},"ỡ":{"ha":847,"x_min":56,"x_max":799,"o":"m 631 665 q 750 539 708 621 q 792 347 792 457 q 694 77 792 175 q 424 -21 596 -21 q 153 77 251 -21 q 56 347 56 175 q 153 617 56 519 q 424 715 251 715 q 576 690 507 715 q 642 697 614 693 l 682 703 l 682 879 l 699 883 q 738 886 708 886 q 782 858 765 886 q 799 783 799 831 q 760 702 799 732 q 631 665 722 672 m 424 7 q 517 85 479 7 q 556 347 556 163 q 517 610 556 532 q 424 688 479 688 q 330 610 368 688 q 292 347 292 532 q 330 85 292 163 q 424 7 368 7 m 489 806 q 436 816 458 806 q 388 846 414 826 q 353 868 368 861 q 322 875 339 875 q 278 857 296 875 q 260 813 260 839 l 232 813 q 265 933 232 893 q 357 972 297 972 q 410 962 388 972 q 458 932 432 951 q 492 910 478 918 q 524 903 507 903 q 568 921 550 903 q 586 965 586 939 l 614 965 q 581 845 614 885 q 489 806 549 806 z "},"ő":{"ha":847,"x_min":56,"x_max":792,"o":"m 424 -21 q 153 77 251 -21 q 56 347 56 175 q 153 617 56 519 q 424 715 251 715 q 694 617 596 715 q 792 347 792 519 q 694 77 792 175 q 424 -21 596 -21 m 424 7 q 517 85 479 7 q 556 347 556 163 q 517 610 556 532 q 424 688 479 688 q 330 610 368 688 q 292 347 292 532 q 330 85 292 163 q 424 7 368 7 m 304 764 l 367 972 l 506 972 l 353 764 l 304 764 m 485 764 l 547 972 l 686 972 l 533 764 l 485 764 z "},"ō":{"ha":847,"x_min":56,"x_max":792,"o":"m 424 -21 q 153 77 251 -21 q 56 347 56 175 q 153 617 56 519 q 424 715 251 715 q 694 617 596 715 q 792 347 792 519 q 694 77 792 175 q 424 -21 596 -21 m 424 7 q 517 85 479 7 q 556 347 556 163 q 517 610 556 532 q 424 688 479 688 q 330 610 368 688 q 292 347 292 532 q 330 85 292 163 q 424 7 368 7 m 243 910 l 243 972 l 604 972 l 604 910 l 243 910 z "},"ø":{"ha":847,"x_min":56,"x_max":792,"o":"m 424 -21 q 197 44 288 -21 l 160 0 l 111 0 l 168 68 q 56 347 56 176 q 153 617 56 519 q 424 715 251 715 q 650 649 557 715 l 688 694 l 736 694 l 679 625 q 762 506 732 576 q 792 347 792 435 q 694 77 792 175 q 424 -21 596 -21 m 543 519 q 495 648 528 608 q 424 688 463 688 q 330 610 368 688 q 292 347 292 532 q 297 224 292 274 l 543 519 m 424 7 q 517 85 479 7 q 556 347 556 163 q 550 469 556 424 l 304 174 q 351 45 319 83 q 424 7 383 7 z "},"ǿ":{"ha":847,"x_min":56,"x_max":792,"o":"m 361 778 l 417 986 l 597 986 l 410 778 l 361 778 m 424 -21 q 197 44 288 -21 l 160 0 l 111 0 l 168 68 q 56 347 56 176 q 153 617 56 519 q 424 715 251 715 q 650 649 557 715 l 688 694 l 736 694 l 679 625 q 762 506 732 576 q 792 347 792 435 q 694 77 792 175 q 424 -21 596 -21 m 543 519 q 495 648 528 608 q 424 688 463 688 q 330 610 368 688 q 292 347 292 532 q 297 224 292 274 l 543 519 m 424 7 q 517 85 479 7 q 556 347 556 163 q 550 469 556 424 l 304 174 q 351 45 319 83 q 424 7 383 7 z "},"õ":{"ha":847,"x_min":56,"x_max":792,"o":"m 424 -21 q 153 77 251 -21 q 56 347 56 175 q 153 617 56 519 q 424 715 251 715 q 694 617 596 715 q 792 347 792 519 q 694 77 792 175 q 424 -21 596 -21 m 424 7 q 517 85 479 7 q 556 347 556 163 q 517 610 556 532 q 424 688 479 688 q 330 610 368 688 q 292 347 292 532 q 330 85 292 163 q 424 7 368 7 m 489 806 q 436 816 458 806 q 388 846 414 826 q 353 868 368 861 q 322 875 339 875 q 278 857 296 875 q 260 813 260 839 l 232 813 q 265 933 232 893 q 357 972 297 972 q 410 962 388 972 q 458 932 432 951 q 492 910 478 918 q 524 903 507 903 q 568 921 550 903 q 586 965 586 939 l 614 965 q 581 845 614 885 q 489 806 549 806 z "},"œ":{"ha":1278,"x_min":56,"x_max":1229,"o":"m 410 -21 q 223 24 303 -21 q 99 151 143 68 q 56 347 56 233 q 99 544 56 461 q 223 671 143 626 q 410 715 303 715 q 614 653 538 715 q 667 590 647 628 q 718 653 686 626 q 910 715 792 715 q 1076 678 1004 715 q 1189 577 1149 640 q 1229 438 1229 514 q 1222 375 1229 400 l 1215 354 q 1086 333 1154 342 q 792 313 940 313 q 836 83 792 151 q 958 14 881 14 q 1059 40 1013 14 q 1133 108 1106 65 q 1160 194 1160 150 l 1194 194 q 1161 89 1194 139 q 1068 9 1128 39 q 931 -21 1008 -21 q 725 42 810 -21 q 667 104 690 68 q 614 42 647 67 q 410 -21 538 -21 m 424 7 q 517 85 479 7 q 556 347 556 163 q 517 610 556 532 q 424 688 479 688 q 330 610 368 688 q 292 347 292 532 q 330 85 292 163 q 424 7 368 7 m 792 347 q 936 354 881 347 q 986 361 960 356 q 993 392 988 368 q 1000 465 1000 426 q 969 634 1000 581 q 896 688 939 688 q 792 347 792 688 z "},"p":{"ha":868,"x_min":42,"x_max":813,"o":"m 42 -257 l 125 -236 l 125 653 l 42 674 l 42 694 l 167 694 q 296 642 249 694 q 326 590 314 621 q 372 653 344 626 q 528 715 435 715 q 674 673 610 715 q 775 548 738 631 q 813 347 813 465 q 730 74 813 169 q 507 -21 647 -21 q 390 7 440 -21 q 347 35 369 17 l 347 -236 l 431 -257 l 431 -278 l 42 -278 l 42 -257 m 451 21 q 544 90 511 21 q 576 347 576 160 q 547 597 576 526 q 472 667 517 667 q 378 611 419 667 q 347 556 360 588 l 347 76 q 378 49 367 57 q 451 21 415 21 z "},"þ":{"ha":868,"x_min":42,"x_max":813,"o":"m 42 -257 l 125 -236 l 125 931 l 42 951 l 42 972 l 222 972 q 347 847 347 972 l 347 625 q 393 669 367 651 q 528 715 458 715 q 674 673 610 715 q 775 548 738 631 q 813 347 813 465 q 730 74 813 169 q 507 -21 647 -21 q 390 7 440 -21 q 347 35 369 17 l 347 -236 l 431 -257 l 431 -278 l 42 -278 l 42 -257 m 451 21 q 544 90 511 21 q 576 347 576 160 q 547 597 576 526 q 472 667 517 667 q 381 611 425 667 q 347 556 361 585 l 347 76 q 378 49 367 57 q 451 21 415 21 z "},"q":{"ha":854,"x_min":56,"x_max":826,"o":"m 438 -257 l 521 -236 l 521 35 q 478 7 499 17 q 361 -21 428 -21 q 138 74 221 -21 q 56 347 56 169 q 93 548 56 465 q 194 673 131 631 q 340 715 258 715 q 496 653 433 715 q 542 590 522 626 q 575 646 551 621 q 729 701 628 701 l 743 701 l 743 -236 l 826 -257 l 826 -278 l 438 -278 l 438 -257 m 417 21 q 489 49 451 21 q 521 76 506 61 l 521 556 q 489 611 504 590 q 396 667 447 667 q 322 597 351 667 q 292 347 292 526 q 324 90 292 160 q 417 21 357 21 z "},"r":{"ha":701,"x_min":56,"x_max":694,"o":"m 56 21 l 139 42 l 139 653 l 56 674 l 56 694 l 181 694 q 310 642 263 694 q 340 590 328 621 q 392 646 361 621 q 547 701 461 701 q 658 667 621 701 q 694 569 694 633 q 666 494 694 522 q 590 465 638 465 q 551 468 571 465 l 535 472 l 535 667 q 406 611 464 667 q 361 556 378 583 l 361 42 l 444 21 l 444 0 l 56 0 l 56 21 z "},"ŕ":{"ha":701,"x_min":56,"x_max":694,"o":"m 56 21 l 139 42 l 139 653 l 56 674 l 56 694 l 181 694 q 310 642 263 694 q 340 590 328 621 q 392 646 361 621 q 547 701 461 701 q 658 667 621 701 q 694 569 694 633 q 666 494 694 522 q 590 465 638 465 q 551 468 571 465 l 535 472 l 535 667 q 406 611 464 667 q 361 556 378 583 l 361 42 l 444 21 l 444 0 l 56 0 l 56 21 m 313 764 l 368 972 l 549 972 l 361 764 l 313 764 z "},"ř":{"ha":701,"x_min":56,"x_max":694,"o":"m 56 21 l 139 42 l 139 653 l 56 674 l 56 694 l 181 694 q 310 642 263 694 q 340 590 328 621 q 392 646 361 621 q 547 701 461 701 q 658 667 621 701 q 694 569 694 633 q 666 494 694 522 q 590 465 638 465 q 551 468 571 465 l 535 472 l 535 667 q 406 611 464 667 q 361 556 378 583 l 361 42 l 444 21 l 444 0 l 56 0 l 56 21 m 150 993 l 199 993 l 351 896 l 504 993 l 553 993 l 351 764 l 150 993 z "},"ŗ":{"ha":701,"x_min":56,"x_max":694,"o":"m 56 21 l 139 42 l 139 653 l 56 674 l 56 694 l 181 694 q 310 642 263 694 q 340 590 328 621 q 392 646 361 621 q 547 701 461 701 q 658 667 621 701 q 694 569 694 633 q 666 494 694 522 q 590 465 638 465 q 551 468 571 465 l 535 472 l 535 667 q 406 611 464 667 q 361 556 378 583 l 361 42 l 444 21 l 444 0 l 56 0 l 56 21 m 181 -403 q 232 -372 207 -393 q 299 -257 285 -328 q 290 -263 294 -261 q 283 -268 286 -265 q 243 -278 271 -278 q 174 -250 201 -278 q 146 -181 146 -222 q 174 -111 146 -139 q 243 -83 201 -83 q 319 -114 292 -83 q 347 -201 347 -144 q 326 -309 347 -264 q 271 -383 304 -354 q 194 -431 236 -414 l 181 -403 z "},"s":{"ha":750,"x_min":63,"x_max":701,"o":"m 382 -21 q 228 17 296 -21 q 174 56 194 35 q 125 8 151 25 q 97 -7 113 0 l 63 -7 l 63 229 l 118 229 q 171 121 136 171 q 354 14 244 14 q 442 42 413 14 q 472 125 472 71 q 431 202 472 171 q 303 279 390 233 q 181 347 228 317 q 102 422 135 376 q 69 528 69 467 q 141 663 69 611 q 361 715 213 715 q 497 676 435 715 q 550 639 528 658 q 599 686 568 664 q 626 701 622 700 l 661 701 l 661 465 l 606 465 q 554 572 585 525 q 389 681 485 681 q 325 653 351 681 q 299 583 299 625 q 343 495 299 531 q 478 414 388 460 q 595 348 551 376 q 670 278 639 319 q 701 181 701 236 q 382 -21 701 -21 z "},"ś":{"ha":750,"x_min":63,"x_max":701,"o":"m 382 -21 q 228 17 296 -21 q 174 56 194 35 q 125 8 151 25 q 97 -7 113 0 l 63 -7 l 63 229 l 118 229 q 171 121 136 171 q 354 14 244 14 q 442 42 413 14 q 472 125 472 71 q 431 202 472 171 q 303 279 390 233 q 181 347 228 317 q 102 422 135 376 q 69 528 69 467 q 141 663 69 611 q 361 715 213 715 q 497 676 435 715 q 550 639 528 658 q 599 686 568 664 q 626 701 622 700 l 661 701 l 661 465 l 606 465 q 554 572 585 525 q 389 681 485 681 q 325 653 351 681 q 299 583 299 625 q 343 495 299 531 q 478 414 388 460 q 595 348 551 376 q 670 278 639 319 q 701 181 701 236 q 382 -21 701 -21 m 336 764 l 392 972 l 572 972 l 385 764 l 336 764 z "},"š":{"ha":750,"x_min":63,"x_max":701,"o":"m 382 -21 q 228 17 296 -21 q 174 56 194 35 q 125 8 151 25 q 97 -7 113 0 l 63 -7 l 63 229 l 118 229 q 171 121 136 171 q 354 14 244 14 q 442 42 413 14 q 472 125 472 71 q 431 202 472 171 q 303 279 390 233 q 181 347 228 317 q 102 422 135 376 q 69 528 69 467 q 141 663 69 611 q 361 715 213 715 q 497 676 435 715 q 550 639 528 658 q 599 686 568 664 q 626 701 622 700 l 661 701 l 661 465 l 606 465 q 554 572 585 525 q 389 681 485 681 q 325 653 351 681 q 299 583 299 625 q 343 495 299 531 q 478 414 388 460 q 595 348 551 376 q 670 278 639 319 q 701 181 701 236 q 382 -21 701 -21 m 174 993 l 222 993 l 375 896 l 528 993 l 576 993 l 375 764 l 174 993 z "},"ş":{"ha":750,"x_min":63,"x_max":701,"o":"m 701 181 q 396 -21 701 -17 l 396 -69 q 492 -100 456 -69 q 528 -174 528 -131 q 490 -248 528 -218 q 382 -278 453 -278 q 328 -275 358 -278 l 304 -271 l 304 -229 q 318 -236 313 -235 q 354 -243 335 -243 q 405 -224 386 -243 q 424 -174 424 -206 q 403 -123 424 -142 q 347 -104 383 -104 l 347 -19 q 228 17 285 -14 q 174 56 194 35 q 125 8 151 25 q 97 -7 113 0 l 63 -7 l 63 229 l 118 229 q 171 121 136 171 q 354 14 244 14 q 442 42 413 14 q 472 125 472 71 q 431 202 472 171 q 303 279 390 233 q 181 347 228 317 q 102 422 135 376 q 69 528 69 467 q 141 663 69 611 q 361 715 213 715 q 497 676 435 715 q 550 639 528 658 q 599 686 568 664 q 626 701 622 700 l 661 701 l 661 465 l 606 465 q 554 572 585 525 q 389 681 485 681 q 325 653 351 681 q 299 583 299 625 q 343 495 299 531 q 478 414 388 460 q 595 348 551 376 q 670 278 639 319 q 701 181 701 236 z "},"ŝ":{"ha":750,"x_min":63,"x_max":701,"o":"m 382 -21 q 228 17 296 -21 q 174 56 194 35 q 125 8 151 25 q 97 -7 113 0 l 63 -7 l 63 229 l 118 229 q 171 121 136 171 q 354 14 244 14 q 442 42 413 14 q 472 125 472 71 q 431 202 472 171 q 303 279 390 233 q 181 347 228 317 q 102 422 135 376 q 69 528 69 467 q 141 663 69 611 q 361 715 213 715 q 497 676 435 715 q 550 639 528 658 q 599 686 568 664 q 626 701 622 700 l 661 701 l 661 465 l 606 465 q 554 572 585 525 q 389 681 485 681 q 325 653 351 681 q 299 583 299 625 q 343 495 299 531 q 478 414 388 460 q 595 348 551 376 q 670 278 639 319 q 701 181 701 236 q 382 -21 701 -21 m 174 764 l 375 993 l 576 764 l 528 764 l 375 861 l 222 764 l 174 764 z "},"ș":{"ha":750,"x_min":63,"x_max":701,"o":"m 382 -21 q 228 17 296 -21 q 174 56 194 35 q 125 8 151 25 q 97 -7 113 0 l 63 -7 l 63 229 l 118 229 q 171 121 136 171 q 354 14 244 14 q 442 42 413 14 q 472 125 472 71 q 431 202 472 171 q 303 279 390 233 q 181 347 228 317 q 102 422 135 376 q 69 528 69 467 q 141 663 69 611 q 361 715 213 715 q 497 676 435 715 q 550 639 528 658 q 599 686 568 664 q 626 701 622 700 l 661 701 l 661 465 l 606 465 q 554 572 585 525 q 389 681 485 681 q 325 653 351 681 q 299 583 299 625 q 343 495 299 531 q 478 414 388 460 q 595 348 551 376 q 670 278 639 319 q 701 181 701 236 q 382 -21 701 -21 m 308 -403 q 360 -372 335 -393 q 426 -257 413 -328 q 418 -263 422 -261 q 411 -268 414 -265 q 371 -278 399 -278 q 301 -250 329 -278 q 274 -181 274 -222 q 301 -111 274 -139 q 371 -83 329 -83 q 447 -114 419 -83 q 475 -201 475 -144 q 453 -309 475 -264 q 399 -383 432 -354 q 322 -431 364 -414 l 308 -403 z "},"ß":{"ha":958,"x_min":42,"x_max":924,"o":"m 681 -21 q 575 10 619 -21 q 542 42 554 26 q 493 1 522 14 q 465 -7 478 -6 l 431 -7 l 431 229 l 486 229 q 531 121 504 172 q 653 14 588 14 q 692 38 676 14 q 708 111 708 61 q 678 208 708 169 q 583 296 647 246 q 510 359 538 332 q 463 425 482 386 q 444 514 444 464 q 460 599 444 565 q 506 674 475 633 q 548 742 533 711 q 563 819 563 774 q 533 922 563 885 q 458 958 503 958 q 376 901 406 958 q 347 694 347 844 l 347 0 l 42 0 l 42 21 l 125 42 l 125 694 q 165 849 125 781 q 281 955 206 917 q 458 993 357 993 q 606 963 540 993 q 707 885 671 932 q 743 792 743 838 q 731 702 743 736 q 694 628 718 668 q 668 577 676 597 q 660 528 660 557 q 688 457 660 486 q 775 386 715 428 q 853 328 824 353 q 903 266 882 303 q 924 181 924 229 q 861 34 924 89 q 681 -21 799 -21 z "},"t":{"ha":625,"x_min":21,"x_max":604,"o":"m 417 -21 q 258 13 325 -21 q 154 104 190 46 q 118 236 118 163 l 118 660 l 21 660 l 21 694 l 118 694 l 118 764 q 243 889 118 889 l 340 889 l 340 694 l 535 694 l 535 660 l 340 660 l 340 236 q 367 61 340 108 q 444 14 393 14 q 532 63 494 14 q 569 194 569 111 l 604 194 q 553 35 604 92 q 417 -21 501 -21 z "},"ť":{"ha":625,"x_min":21,"x_max":760,"o":"m 417 -21 q 258 13 325 -21 q 154 104 190 46 q 118 236 118 163 l 118 660 l 21 660 l 21 694 l 118 694 l 118 764 q 243 889 118 889 l 340 889 l 340 694 l 535 694 l 535 660 l 340 660 l 340 236 q 367 61 340 108 q 444 14 393 14 q 532 63 494 14 q 569 194 569 111 l 604 194 q 553 35 604 92 q 417 -21 501 -21 m 579 715 q 638 747 608 725 q 711 868 697 792 l 693 857 q 649 847 675 847 q 576 878 607 847 q 544 951 544 910 q 576 1024 544 993 q 649 1056 607 1056 q 728 1022 697 1056 q 760 931 760 988 q 676 731 760 803 q 593 681 640 697 l 579 715 z "},"ț":{"ha":625,"x_min":21,"x_max":604,"o":"m 417 -21 q 258 13 325 -21 q 154 104 190 46 q 118 236 118 163 l 118 660 l 21 660 l 21 694 l 118 694 l 118 764 q 243 889 118 889 l 340 889 l 340 694 l 535 694 l 535 660 l 340 660 l 340 236 q 367 61 340 108 q 444 14 393 14 q 532 63 494 14 q 569 194 569 111 l 604 194 q 553 35 604 92 q 417 -21 501 -21 m 246 -403 q 297 -372 272 -393 q 364 -257 350 -328 q 356 -263 360 -261 q 349 -268 351 -265 q 308 -278 336 -278 q 239 -250 267 -278 q 211 -181 211 -222 q 239 -111 211 -139 q 308 -83 267 -83 q 385 -114 357 -83 q 413 -201 413 -144 q 391 -309 413 -264 q 336 -383 369 -354 q 260 -431 301 -414 l 246 -403 z "},"u":{"ha":903,"x_min":35,"x_max":875,"o":"m 389 -21 q 249 12 311 -21 q 153 97 188 44 q 118 208 118 150 l 118 653 l 35 674 l 35 694 l 215 694 q 340 569 340 694 l 340 208 q 372 74 340 121 q 444 28 403 28 q 538 83 496 28 q 569 139 553 104 l 569 653 l 486 674 l 486 694 l 875 694 l 875 674 l 792 653 l 792 -7 l 778 -7 q 624 49 676 -7 q 590 104 600 74 q 544 42 571 69 q 389 -21 482 -21 z "},"ú":{"ha":903,"x_min":35,"x_max":875,"o":"m 389 -21 q 249 12 311 -21 q 153 97 188 44 q 118 208 118 150 l 118 653 l 35 674 l 35 694 l 215 694 q 340 569 340 694 l 340 208 q 372 74 340 121 q 444 28 403 28 q 538 83 496 28 q 569 139 553 104 l 569 653 l 486 674 l 486 694 l 875 694 l 875 674 l 792 653 l 792 -7 l 778 -7 q 624 49 676 -7 q 590 104 600 74 q 544 42 571 69 q 389 -21 482 -21 m 413 764 l 468 972 l 649 972 l 461 764 l 413 764 z "},"ŭ":{"ha":903,"x_min":35,"x_max":875,"o":"m 389 -21 q 249 12 311 -21 q 153 97 188 44 q 118 208 118 150 l 118 653 l 35 674 l 35 694 l 215 694 q 340 569 340 694 l 340 208 q 372 74 340 121 q 444 28 403 28 q 538 83 496 28 q 569 139 553 104 l 569 653 l 486 674 l 486 694 l 875 694 l 875 674 l 792 653 l 792 -7 l 778 -7 q 624 49 676 -7 q 590 104 600 74 q 544 42 571 69 q 389 -21 482 -21 m 451 764 q 294 797 344 764 q 243 882 243 831 q 267 942 243 918 q 326 965 290 965 q 358 961 329 965 l 375 958 l 375 806 q 395 799 376 806 q 451 792 414 792 q 508 799 489 792 q 528 806 526 806 l 528 958 l 544 961 q 576 965 574 965 q 636 942 613 965 q 660 882 660 918 q 609 797 660 831 q 451 764 558 764 z "},"û":{"ha":903,"x_min":35,"x_max":875,"o":"m 389 -21 q 249 12 311 -21 q 153 97 188 44 q 118 208 118 150 l 118 653 l 35 674 l 35 694 l 215 694 q 340 569 340 694 l 340 208 q 372 74 340 121 q 444 28 403 28 q 538 83 496 28 q 569 139 553 104 l 569 653 l 486 674 l 486 694 l 875 694 l 875 674 l 792 653 l 792 -7 l 778 -7 q 624 49 676 -7 q 590 104 600 74 q 544 42 571 69 q 389 -21 482 -21 m 250 764 l 451 993 l 653 764 l 604 764 l 451 861 l 299 764 l 250 764 z "},"ü":{"ha":903,"x_min":35,"x_max":875,"o":"m 389 -21 q 249 12 311 -21 q 153 97 188 44 q 118 208 118 150 l 118 653 l 35 674 l 35 694 l 215 694 q 340 569 340 694 l 340 208 q 372 74 340 121 q 444 28 403 28 q 538 83 496 28 q 569 139 553 104 l 569 653 l 486 674 l 486 694 l 875 694 l 875 674 l 792 653 l 792 -7 l 778 -7 q 624 49 676 -7 q 590 104 600 74 q 544 42 571 69 q 389 -21 482 -21 m 322 778 q 253 806 281 778 q 225 875 225 833 q 253 944 225 917 q 322 972 281 972 q 392 944 364 972 q 419 875 419 917 q 392 806 419 833 q 322 778 364 778 m 579 778 q 510 806 538 778 q 482 875 482 833 q 510 944 482 917 q 579 972 538 972 q 649 944 621 972 q 676 875 676 917 q 649 806 676 833 q 579 778 621 778 z "},"ụ":{"ha":903,"x_min":35,"x_max":875,"o":"m 389 -21 q 249 12 311 -21 q 153 97 188 44 q 118 208 118 150 l 118 653 l 35 674 l 35 694 l 215 694 q 340 569 340 694 l 340 208 q 372 74 340 121 q 444 28 403 28 q 538 83 496 28 q 569 139 553 104 l 569 653 l 486 674 l 486 694 l 875 694 l 875 674 l 792 653 l 792 -7 l 778 -7 q 624 49 676 -7 q 590 104 600 74 q 544 42 571 69 q 389 -21 482 -21 m 451 -214 q 406 -195 425 -214 q 388 -150 388 -176 q 406 -104 388 -124 q 451 -85 425 -85 q 497 -104 478 -85 q 517 -150 517 -124 q 497 -195 517 -176 q 451 -214 478 -214 z "},"ù":{"ha":903,"x_min":35,"x_max":875,"o":"m 389 -21 q 249 12 311 -21 q 153 97 188 44 q 118 208 118 150 l 118 653 l 35 674 l 35 694 l 215 694 q 340 569 340 694 l 340 208 q 372 74 340 121 q 444 28 403 28 q 538 83 496 28 q 569 139 553 104 l 569 653 l 486 674 l 486 694 l 875 694 l 875 674 l 792 653 l 792 -7 l 778 -7 q 624 49 676 -7 q 590 104 600 74 q 544 42 571 69 q 389 -21 482 -21 m 436 764 l 249 972 l 429 972 l 485 764 l 436 764 z "},"ủ":{"ha":903,"x_min":35,"x_max":875,"o":"m 389 -21 q 249 12 311 -21 q 153 97 188 44 q 118 208 118 150 l 118 653 l 35 674 l 35 694 l 215 694 q 340 569 340 694 l 340 208 q 372 74 340 121 q 444 28 403 28 q 538 83 496 28 q 569 139 553 104 l 569 653 l 486 674 l 486 694 l 875 694 l 875 674 l 792 653 l 792 -7 l 778 -7 q 624 49 676 -7 q 590 104 600 74 q 544 42 571 69 q 389 -21 482 -21 m 428 864 q 473 897 457 875 q 489 961 489 919 q 472 1027 489 1007 q 421 1047 456 1047 q 393 1043 414 1047 l 382 1040 l 382 963 l 376 961 l 372 961 q 301 997 301 961 q 431 1074 301 1074 q 600 961 600 1074 q 566 894 600 921 q 471 857 532 867 l 468 818 l 431 818 l 428 864 z "},"ư":{"ha":903,"x_min":35,"x_max":988,"o":"m 988 775 q 946 691 988 721 q 803 656 904 661 l 792 653 l 792 -7 l 778 -7 q 624 49 676 -7 q 590 104 600 74 q 544 42 571 69 q 389 -21 482 -21 q 249 12 311 -21 q 153 97 188 44 q 118 208 118 150 l 118 653 l 35 674 l 35 694 l 215 694 q 340 569 340 694 l 340 208 q 372 74 340 121 q 444 28 403 28 q 538 83 496 28 q 569 139 553 104 l 569 653 l 486 674 l 486 694 l 871 694 l 871 871 l 888 875 q 926 878 897 878 q 971 850 954 878 q 988 775 988 822 z "},"ứ":{"ha":903,"x_min":35,"x_max":988,"o":"m 988 775 q 946 691 988 721 q 803 656 904 661 l 792 653 l 792 -7 l 778 -7 q 624 49 676 -7 q 590 104 600 74 q 544 42 571 69 q 389 -21 482 -21 q 249 12 311 -21 q 153 97 188 44 q 118 208 118 150 l 118 653 l 35 674 l 35 694 l 215 694 q 340 569 340 694 l 340 208 q 372 74 340 121 q 444 28 403 28 q 538 83 496 28 q 569 139 553 104 l 569 653 l 486 674 l 486 694 l 871 694 l 871 871 l 888 875 q 926 878 897 878 q 971 850 954 878 q 988 775 988 822 m 413 764 l 468 972 l 649 972 l 461 764 l 413 764 z "},"ự":{"ha":903,"x_min":35,"x_max":988,"o":"m 988 775 q 946 691 988 721 q 803 656 904 661 l 792 653 l 792 -7 l 778 -7 q 624 49 676 -7 q 590 104 600 74 q 544 42 571 69 q 389 -21 482 -21 q 249 12 311 -21 q 153 97 188 44 q 118 208 118 150 l 118 653 l 35 674 l 35 694 l 215 694 q 340 569 340 694 l 340 208 q 372 74 340 121 q 444 28 403 28 q 538 83 496 28 q 569 139 553 104 l 569 653 l 486 674 l 486 694 l 871 694 l 871 871 l 888 875 q 926 878 897 878 q 971 850 954 878 q 988 775 988 822 m 451 -214 q 406 -195 425 -214 q 388 -150 388 -176 q 406 -104 388 -124 q 451 -85 425 -85 q 497 -104 478 -85 q 517 -150 517 -124 q 497 -195 517 -176 q 451 -214 478 -214 z "},"ừ":{"ha":903,"x_min":35,"x_max":988,"o":"m 988 775 q 946 691 988 721 q 803 656 904 661 l 792 653 l 792 -7 l 778 -7 q 624 49 676 -7 q 590 104 600 74 q 544 42 571 69 q 389 -21 482 -21 q 249 12 311 -21 q 153 97 188 44 q 118 208 118 150 l 118 653 l 35 674 l 35 694 l 215 694 q 340 569 340 694 l 340 208 q 372 74 340 121 q 444 28 403 28 q 538 83 496 28 q 569 139 553 104 l 569 653 l 486 674 l 486 694 l 871 694 l 871 871 l 888 875 q 926 878 897 878 q 971 850 954 878 q 988 775 988 822 m 436 764 l 249 972 l 429 972 l 485 764 l 436 764 z "},"ử":{"ha":903,"x_min":35,"x_max":988,"o":"m 988 775 q 946 691 988 721 q 803 656 904 661 l 792 653 l 792 -7 l 778 -7 q 624 49 676 -7 q 590 104 600 74 q 544 42 571 69 q 389 -21 482 -21 q 249 12 311 -21 q 153 97 188 44 q 118 208 118 150 l 118 653 l 35 674 l 35 694 l 215 694 q 340 569 340 694 l 340 208 q 372 74 340 121 q 444 28 403 28 q 538 83 496 28 q 569 139 553 104 l 569 653 l 486 674 l 486 694 l 871 694 l 871 871 l 888 875 q 926 878 897 878 q 971 850 954 878 q 988 775 988 822 m 428 864 q 473 897 457 875 q 489 961 489 919 q 472 1027 489 1007 q 421 1047 456 1047 q 393 1043 414 1047 l 382 1040 l 382 963 l 376 961 l 372 961 q 301 997 301 961 q 431 1074 301 1074 q 600 961 600 1074 q 566 894 600 921 q 471 857 532 867 l 468 818 l 431 818 l 428 864 z "},"ữ":{"ha":903,"x_min":35,"x_max":988,"o":"m 988 775 q 946 691 988 721 q 803 656 904 661 l 792 653 l 792 -7 l 778 -7 q 624 49 676 -7 q 590 104 600 74 q 544 42 571 69 q 389 -21 482 -21 q 249 12 311 -21 q 153 97 188 44 q 118 208 118 150 l 118 653 l 35 674 l 35 694 l 215 694 q 340 569 340 694 l 340 208 q 372 74 340 121 q 444 28 403 28 q 538 83 496 28 q 569 139 553 104 l 569 653 l 486 674 l 486 694 l 871 694 l 871 871 l 888 875 q 926 878 897 878 q 971 850 954 878 q 988 775 988 822 m 517 806 q 464 816 486 806 q 415 846 442 826 q 381 868 396 861 q 350 875 367 875 q 306 857 324 875 q 288 813 288 839 l 260 813 q 292 933 260 893 q 385 972 325 972 q 438 962 415 972 q 486 932 460 951 q 520 910 506 918 q 551 903 535 903 q 596 921 578 903 q 614 965 614 939 l 642 965 q 609 845 642 885 q 517 806 576 806 z "},"ű":{"ha":903,"x_min":35,"x_max":875,"o":"m 389 -21 q 249 12 311 -21 q 153 97 188 44 q 118 208 118 150 l 118 653 l 35 674 l 35 694 l 215 694 q 340 569 340 694 l 340 208 q 372 74 340 121 q 444 28 403 28 q 538 83 496 28 q 569 139 553 104 l 569 653 l 486 674 l 486 694 l 875 694 l 875 674 l 792 653 l 792 -7 l 778 -7 q 624 49 676 -7 q 590 104 600 74 q 544 42 571 69 q 389 -21 482 -21 m 332 764 l 394 972 l 533 972 l 381 764 l 332 764 m 513 764 l 575 972 l 714 972 l 561 764 l 513 764 z "},"ū":{"ha":903,"x_min":35,"x_max":875,"o":"m 389 -21 q 249 12 311 -21 q 153 97 188 44 q 118 208 118 150 l 118 653 l 35 674 l 35 694 l 215 694 q 340 569 340 694 l 340 208 q 372 74 340 121 q 444 28 403 28 q 538 83 496 28 q 569 139 553 104 l 569 653 l 486 674 l 486 694 l 875 694 l 875 674 l 792 653 l 792 -7 l 778 -7 q 624 49 676 -7 q 590 104 600 74 q 544 42 571 69 q 389 -21 482 -21 m 271 910 l 271 972 l 632 972 l 632 910 l 271 910 z "},"ų":{"ha":903,"x_min":35,"x_max":875,"o":"m 875 694 l 875 674 l 792 653 l 792 -7 q 725 -50 753 -26 q 660 -181 660 -107 q 715 -236 660 -236 q 760 -222 738 -236 q 778 -208 771 -215 l 778 -250 q 753 -261 775 -251 q 688 -271 728 -271 q 579 -241 617 -271 q 542 -167 542 -211 q 635 -43 542 -93 q 729 -7 671 -24 l 778 -7 q 624 49 676 -7 q 590 104 600 74 q 544 42 571 69 q 389 -21 482 -21 q 249 12 311 -21 q 153 97 188 44 q 118 208 118 150 l 118 653 l 35 674 l 35 694 l 215 694 q 340 569 340 694 l 340 208 q 372 74 340 121 q 444 28 403 28 q 538 83 496 28 q 569 139 553 104 l 569 653 l 486 674 l 486 694 l 875 694 z "},"ů":{"ha":903,"x_min":35,"x_max":875,"o":"m 389 -21 q 249 12 311 -21 q 153 97 188 44 q 118 208 118 150 l 118 653 l 35 674 l 35 694 l 215 694 q 340 569 340 694 l 340 208 q 372 74 340 121 q 444 28 403 28 q 538 83 496 28 q 569 139 553 104 l 569 653 l 486 674 l 486 694 l 875 694 l 875 674 l 792 653 l 792 -7 l 778 -7 q 624 49 676 -7 q 590 104 600 74 q 544 42 571 69 q 389 -21 482 -21 m 451 764 q 347 804 389 764 q 306 903 306 844 q 347 1001 306 961 q 451 1042 389 1042 q 556 1001 514 1042 q 597 903 597 961 q 556 804 597 844 q 451 764 514 764 m 451 813 q 506 838 485 813 q 528 903 528 863 q 506 968 528 943 q 451 993 485 993 q 397 968 418 993 q 375 903 375 943 q 397 838 375 863 q 451 813 418 813 z "},"ũ":{"ha":903,"x_min":35,"x_max":875,"o":"m 389 -21 q 249 12 311 -21 q 153 97 188 44 q 118 208 118 150 l 118 653 l 35 674 l 35 694 l 215 694 q 340 569 340 694 l 340 208 q 372 74 340 121 q 444 28 403 28 q 538 83 496 28 q 569 139 553 104 l 569 653 l 486 674 l 486 694 l 875 694 l 875 674 l 792 653 l 792 -7 l 778 -7 q 624 49 676 -7 q 590 104 600 74 q 544 42 571 69 q 389 -21 482 -21 m 517 806 q 464 816 486 806 q 415 846 442 826 q 381 868 396 861 q 350 875 367 875 q 306 857 324 875 q 288 813 288 839 l 260 813 q 292 933 260 893 q 385 972 325 972 q 438 962 415 972 q 486 932 460 951 q 520 910 506 918 q 551 903 535 903 q 596 921 578 903 q 614 965 614 939 l 642 965 q 609 845 642 885 q 517 806 576 806 z "},"v":{"ha":778,"x_min":-28,"x_max":806,"o":"m 42 653 l -28 674 l -28 694 l 146 694 q 260 665 218 694 q 333 576 303 635 l 499 256 l 653 632 l 549 674 l 549 694 l 806 694 l 806 674 l 694 632 l 431 -14 l 389 -14 l 42 653 z "},"w":{"ha":1160,"x_min":-28,"x_max":1188,"o":"m 42 653 l -28 674 l -28 694 l 132 694 q 249 664 206 694 q 319 576 292 633 l 472 257 l 551 460 l 458 653 l 389 674 l 389 694 l 549 694 q 665 664 622 694 q 736 576 708 633 l 889 257 l 1035 632 l 931 674 l 931 694 l 1188 694 l 1188 674 l 1076 632 l 819 -14 l 778 -14 l 572 414 l 403 -14 l 361 -14 l 42 653 z "},"ẃ":{"ha":1160,"x_min":-28,"x_max":1188,"o":"m 42 653 l -28 674 l -28 694 l 132 694 q 249 664 206 694 q 319 576 292 633 l 472 257 l 551 460 l 458 653 l 389 674 l 389 694 l 549 694 q 665 664 622 694 q 736 576 708 633 l 889 257 l 1035 632 l 931 674 l 931 694 l 1188 694 l 1188 674 l 1076 632 l 819 -14 l 778 -14 l 572 414 l 403 -14 l 361 -14 l 42 653 m 542 764 l 597 972 l 778 972 l 590 764 l 542 764 z "},"ŵ":{"ha":1160,"x_min":-28,"x_max":1188,"o":"m 42 653 l -28 674 l -28 694 l 132 694 q 249 664 206 694 q 319 576 292 633 l 472 257 l 551 460 l 458 653 l 389 674 l 389 694 l 549 694 q 665 664 622 694 q 736 576 708 633 l 889 257 l 1035 632 l 931 674 l 931 694 l 1188 694 l 1188 674 l 1076 632 l 819 -14 l 778 -14 l 572 414 l 403 -14 l 361 -14 l 42 653 m 379 764 l 581 993 l 782 764 l 733 764 l 581 861 l 428 764 l 379 764 z "},"ẅ":{"ha":1160,"x_min":-28,"x_max":1188,"o":"m 42 653 l -28 674 l -28 694 l 132 694 q 249 664 206 694 q 319 576 292 633 l 472 257 l 551 460 l 458 653 l 389 674 l 389 694 l 549 694 q 665 664 622 694 q 736 576 708 633 l 889 257 l 1035 632 l 931 674 l 931 694 l 1188 694 l 1188 674 l 1076 632 l 819 -14 l 778 -14 l 572 414 l 403 -14 l 361 -14 l 42 653 m 451 778 q 382 806 410 778 q 354 875 354 833 q 382 944 354 917 q 451 972 410 972 q 521 944 493 972 q 549 875 549 917 q 521 806 549 833 q 451 778 493 778 m 708 778 q 639 806 667 778 q 611 875 611 833 q 639 944 611 917 q 708 972 667 972 q 778 944 750 972 q 806 875 806 917 q 778 806 806 833 q 708 778 750 778 z "},"ẁ":{"ha":1160,"x_min":-28,"x_max":1188,"o":"m 42 653 l -28 674 l -28 694 l 132 694 q 249 664 206 694 q 319 576 292 633 l 472 257 l 551 460 l 458 653 l 389 674 l 389 694 l 549 694 q 665 664 622 694 q 736 576 708 633 l 889 257 l 1035 632 l 931 674 l 931 694 l 1188 694 l 1188 674 l 1076 632 l 819 -14 l 778 -14 l 572 414 l 403 -14 l 361 -14 l 42 653 m 565 764 l 378 972 l 558 972 l 614 764 l 565 764 z "},"x":{"ha":771,"x_min":-7,"x_max":778,"o":"m 14 21 l 125 63 l 297 283 l 63 653 l -7 674 l -7 694 l 181 694 q 289 665 247 694 q 368 576 331 635 l 439 464 l 569 632 l 465 674 l 465 694 l 729 694 l 729 674 l 618 632 l 460 431 l 708 42 l 778 21 l 778 0 l 590 0 q 482 29 524 0 q 403 118 440 58 l 319 249 l 174 63 l 278 21 l 278 0 l 14 0 l 14 21 z "},"y":{"ha":778,"x_min":-28,"x_max":806,"o":"m 208 -299 q 111 -265 146 -299 q 76 -174 76 -232 q 105 -92 76 -121 q 181 -62 133 -62 q 203 -65 192 -62 q 218 -67 214 -67 l 236 -69 l 236 -257 q 307 -212 276 -250 q 375 -83 338 -175 l 403 -14 l 42 653 l -28 674 l -28 694 l 146 694 q 260 665 218 694 q 333 576 303 635 l 507 256 l 653 632 l 549 674 l 549 694 l 806 694 l 806 674 l 694 632 l 417 -83 q 322 -248 372 -197 q 208 -299 272 -299 z "},"ý":{"ha":778,"x_min":-28,"x_max":806,"o":"m 208 -299 q 111 -265 146 -299 q 76 -174 76 -232 q 105 -92 76 -121 q 181 -62 133 -62 q 203 -65 192 -62 q 218 -67 214 -67 l 236 -69 l 236 -257 q 307 -212 276 -250 q 375 -83 338 -175 l 403 -14 l 42 653 l -28 674 l -28 694 l 146 694 q 260 665 218 694 q 333 576 303 635 l 507 256 l 653 632 l 549 674 l 549 694 l 806 694 l 806 674 l 694 632 l 417 -83 q 322 -248 372 -197 q 208 -299 272 -299 m 350 764 l 406 972 l 586 972 l 399 764 l 350 764 z "},"ŷ":{"ha":778,"x_min":-28,"x_max":806,"o":"m 208 -299 q 111 -265 146 -299 q 76 -174 76 -232 q 105 -92 76 -121 q 181 -62 133 -62 q 203 -65 192 -62 q 218 -67 214 -67 l 236 -69 l 236 -257 q 307 -212 276 -250 q 375 -83 338 -175 l 403 -14 l 42 653 l -28 674 l -28 694 l 146 694 q 260 665 218 694 q 333 576 303 635 l 507 256 l 653 632 l 549 674 l 549 694 l 806 694 l 806 674 l 694 632 l 417 -83 q 322 -248 372 -197 q 208 -299 272 -299 m 188 764 l 389 993 l 590 764 l 542 764 l 389 861 l 236 764 l 188 764 z "},"ÿ":{"ha":778,"x_min":-28,"x_max":806,"o":"m 208 -299 q 111 -265 146 -299 q 76 -174 76 -232 q 105 -92 76 -121 q 181 -62 133 -62 q 203 -65 192 -62 q 218 -67 214 -67 l 236 -69 l 236 -257 q 307 -212 276 -250 q 375 -83 338 -175 l 403 -14 l 42 653 l -28 674 l -28 694 l 146 694 q 260 665 218 694 q 333 576 303 635 l 507 256 l 653 632 l 549 674 l 549 694 l 806 694 l 806 674 l 694 632 l 417 -83 q 322 -248 372 -197 q 208 -299 272 -299 m 260 778 q 190 806 218 778 q 163 875 163 833 q 190 944 163 917 q 260 972 218 972 q 329 944 301 972 q 357 875 357 917 q 329 806 357 833 q 260 778 301 778 m 517 778 q 447 806 475 778 q 419 875 419 833 q 447 944 419 917 q 517 972 475 972 q 586 944 558 972 q 614 875 614 917 q 586 806 614 833 q 517 778 558 778 z "},"ỵ":{"ha":778,"x_min":-28,"x_max":806,"o":"m 208 -299 q 111 -265 146 -299 q 76 -174 76 -232 q 105 -92 76 -121 q 181 -62 133 -62 q 203 -65 192 -62 q 218 -67 214 -67 l 236 -69 l 236 -257 q 307 -212 276 -250 q 375 -83 338 -175 l 403 -14 l 42 653 l -28 674 l -28 694 l 146 694 q 260 665 218 694 q 333 576 303 635 l 507 256 l 653 632 l 549 674 l 549 694 l 806 694 l 806 674 l 694 632 l 417 -83 q 322 -248 372 -197 q 208 -299 272 -299 m 625 -214 q 580 -195 599 -214 q 561 -150 561 -176 q 580 -104 561 -124 q 625 -85 599 -85 q 671 -104 651 -85 q 690 -150 690 -124 q 671 -195 690 -176 q 625 -214 651 -214 z "},"ỳ":{"ha":778,"x_min":-28,"x_max":806,"o":"m 208 -299 q 111 -265 146 -299 q 76 -174 76 -232 q 105 -92 76 -121 q 181 -62 133 -62 q 203 -65 192 -62 q 218 -67 214 -67 l 236 -69 l 236 -257 q 307 -212 276 -250 q 375 -83 338 -175 l 403 -14 l 42 653 l -28 674 l -28 694 l 146 694 q 260 665 218 694 q 333 576 303 635 l 507 256 l 653 632 l 549 674 l 549 694 l 806 694 l 806 674 l 694 632 l 417 -83 q 322 -248 372 -197 q 208 -299 272 -299 m 374 764 l 186 972 l 367 972 l 422 764 l 374 764 z "},"ỷ":{"ha":778,"x_min":-28,"x_max":806,"o":"m 208 -299 q 111 -265 146 -299 q 76 -174 76 -232 q 105 -92 76 -121 q 181 -62 133 -62 q 203 -65 192 -62 q 218 -67 214 -67 l 236 -69 l 236 -257 q 307 -212 276 -250 q 375 -83 338 -175 l 403 -14 l 42 653 l -28 674 l -28 694 l 146 694 q 260 665 218 694 q 333 576 303 635 l 507 256 l 653 632 l 549 674 l 549 694 l 806 694 l 806 674 l 694 632 l 417 -83 q 322 -248 372 -197 q 208 -299 272 -299 m 365 864 q 410 897 394 875 q 426 961 426 919 q 410 1027 426 1007 q 358 1047 393 1047 q 331 1043 351 1047 l 319 1040 l 319 963 l 314 961 l 310 961 q 239 997 239 961 q 368 1074 239 1074 q 538 961 538 1074 q 503 894 538 921 q 408 857 469 867 l 406 818 l 368 818 l 365 864 z "},"ỹ":{"ha":778,"x_min":-28,"x_max":806,"o":"m 208 -299 q 111 -265 146 -299 q 76 -174 76 -232 q 105 -92 76 -121 q 181 -62 133 -62 q 203 -65 192 -62 q 218 -67 214 -67 l 236 -69 l 236 -257 q 307 -212 276 -250 q 375 -83 338 -175 l 403 -14 l 42 653 l -28 674 l -28 694 l 146 694 q 260 665 218 694 q 333 576 303 635 l 507 256 l 653 632 l 549 674 l 549 694 l 806 694 l 806 674 l 694 632 l 417 -83 q 322 -248 372 -197 q 208 -299 272 -299 m 454 806 q 401 816 424 806 q 353 846 379 826 q 319 868 333 861 q 288 875 304 875 q 243 857 261 875 q 225 813 225 839 l 197 813 q 230 933 197 893 q 322 972 263 972 q 375 962 353 972 q 424 932 397 951 q 458 910 443 918 q 489 903 472 903 q 533 921 515 903 q 551 965 551 939 l 579 965 q 547 845 579 885 q 454 806 514 806 z "},"z":{"ha":757,"x_min":56,"x_max":701,"o":"m 56 35 l 451 660 l 201 660 q 156 506 201 583 q 111 451 138 476 l 69 451 l 69 694 l 701 694 l 701 660 l 306 35 l 569 35 q 614 189 569 114 q 660 243 633 221 l 701 243 l 701 0 l 56 0 l 56 35 z "},"ź":{"ha":757,"x_min":56,"x_max":701,"o":"m 56 35 l 451 660 l 201 660 q 156 506 201 583 q 111 451 138 476 l 69 451 l 69 694 l 701 694 l 701 660 l 306 35 l 569 35 q 614 189 569 114 q 660 243 633 221 l 701 243 l 701 0 l 56 0 l 56 35 m 340 764 l 396 972 l 576 972 l 389 764 l 340 764 z "},"ž":{"ha":757,"x_min":56,"x_max":701,"o":"m 56 35 l 451 660 l 201 660 q 156 506 201 583 q 111 451 138 476 l 69 451 l 69 694 l 701 694 l 701 660 l 306 35 l 569 35 q 614 189 569 114 q 660 243 633 221 l 701 243 l 701 0 l 56 0 l 56 35 m 178 993 l 226 993 l 379 896 l 532 993 l 581 993 l 379 764 l 178 993 z "},"ż":{"ha":757,"x_min":56,"x_max":701,"o":"m 56 35 l 451 660 l 201 660 q 156 506 201 583 q 111 451 138 476 l 69 451 l 69 694 l 701 694 l 701 660 l 306 35 l 569 35 q 614 189 569 114 q 660 243 633 221 l 701 243 l 701 0 l 56 0 l 56 35 m 379 778 q 310 806 338 778 q 282 875 282 833 q 310 944 282 917 q 379 972 338 972 q 449 944 421 972 q 476 875 476 917 q 449 806 476 833 q 379 778 421 778 z "},"ª":{"ha":576,"x_min":42,"x_max":535,"o":"m 215 500 q 86 535 131 500 q 42 625 42 569 q 56 690 42 660 q 69 715 63 707 l 151 736 q 326 757 256 757 l 326 806 q 305 924 326 889 q 243 958 283 958 q 221 956 232 958 q 206 954 210 954 l 188 951 l 188 813 l 174 808 q 139 806 154 806 q 88 824 107 806 q 69 875 69 843 q 119 954 69 922 q 271 986 169 986 q 425 932 371 986 q 479 778 479 878 l 479 549 l 535 535 l 535 514 l 451 514 q 360 549 389 514 q 340 583 349 561 q 314 542 329 558 q 215 500 272 500 m 257 535 q 307 571 282 535 q 326 608 319 588 l 326 729 q 250 725 313 729 l 215 722 q 204 699 211 717 q 194 639 194 674 q 214 563 194 590 q 257 535 233 535 z "}}}
